<?xml version="1.0" encoding="utf-8"?>
<!-- Generator: Adobe Illustrator 24.0.1, SVG Export Plug-In . SVG Version: 6.00 Build 0)  -->
<svg version="1.1" id="Calque_1" xmlns="http://www.w3.org/2000/svg" xmlns:xlink="http://www.w3.org/1999/xlink" x="0px" y="0px"
	 viewBox="0 0 925.5 629.6" style="enable-background:new 0 0 925.5 629.6;" xml:space="preserve">
<style type="text/css">
	.st0{fill:#403E56;}
	.st1{opacity:0.2;fill:#3E559A;}
	.st2{opacity:0.4;fill:#585EA7;enable-background:new    ;}
	.st3{fill:#3E559A;}
	.st4{fill:#302F42;}
	.st5{fill:#F6B6B9;}
	.st6{opacity:0.1;fill:#020203;enable-background:new    ;}
	.st7{fill:#D0CDE1;}
</style>
<g>
	<ellipse class="st0" cx="421" cy="601.7" rx="222.1" ry="27.9"/>
	<path class="st1" d="M796.8,363.4l-85.9,40.6l76-56.8c-12.4-19.3-26.2-37.5-41.5-54.6L373,385.2l336.4-128.3
		c-15.4-13.6-31.7-26-48.8-37.2L93.1,311.1C32.9,386.4,0,480,0,576.4h854.1C854.1,501.6,834.3,428.2,796.8,363.4z"/>
	<path class="st1" d="M614.1,193.3c-58.3-28.4-122.2-43.1-187.1-43c-131.9,0-249.9,59.8-328.2,153.8
		C233,274.6,466.6,223.8,614.1,193.3z"/>
	<circle class="st2" cx="92.4" cy="255.5" r="26.8"/>
	<circle class="st2" cx="42.8" cy="268.3" r="18.8"/>
	<path class="st0" d="M766.2,575.6L698,474.4c0,0,103.2,36,91.5,101.2H766.2z"/>
	<path class="st3" d="M768.8,575.6L837,474.4c0,0-103.2,36-91.5,101.2H768.8z"/>
	<path class="st1" d="M168.9,113.9c0-5.6-7.9-10.1-17.7-10.1c-0.2,0-0.4,0-0.6,0c-3-9.1-16.9-15.9-33.7-15.9c-14.3,0-26.5,5-31.7,12
		c-3.8-1-7.7-1.5-11.7-1.5c-15,0-27.2,6.9-27.2,15.5c0,7.8,10.1,14.2,23.2,15.3c9.5,1.7,24.4,2.9,41.1,2.9c28.4,0,49.1-5.4,49.7-9.5
		C165.4,120.8,168.9,117.5,168.9,113.9z"/>
	<path class="st1" d="M686.3,118.1c0-5.6-7.9-10.1-17.7-10.1c-0.2,0-0.4,0-0.6,0c-3-9.1-16.9-15.9-33.7-15.9c-14.3,0-26.5,5-31.7,12
		c-3.8-1-7.7-1.5-11.7-1.5c-15,0-27.2,6.9-27.2,15.5c0,7.8,10.1,14.2,23.2,15.3c9.5,1.7,24.4,2.9,41.1,2.9c28.4,0,49.1-5.4,49.7-9.5
		C682.8,125.1,686.3,121.8,686.3,118.1z"/>
	<path class="st1" d="M925.5,45.6c0-9.8-13.9-17.7-31.1-17.7c-0.3,0-0.7,0-1,0C888.2,12,863.6,0,834.2,0c-25.1,0-46.6,8.7-55.6,21.1
		c-6.7-1.8-13.6-2.7-20.5-2.6c-26.4,0-47.8,12.2-47.8,27.2c0,13.6,17.6,24.9,40.6,26.8c16.7,3.1,42.8,5,72.2,5
		c49.8,0,86.3-9.5,87.2-16.6C919.4,57.8,925.5,52.1,925.5,45.6z"/>
	<path class="st4" d="M479.5,248.6c-17.7-30-52.8-31.4-52.8-31.4s-34.2-4.4-56.1,41.3c-20.4,42.5-48.7,83.6-4.5,93.6l8-24.8
		l4.9,26.7c6.3,0.5,12.6,0.6,18.9,0.3c47.3-1.5,92.3,0.4,90.8-16.5C486.7,315.2,496.6,277.4,479.5,248.6z"/>
	<path class="st4" d="M363.5,511.1c-0.5,3.3-1.3,6.6-2.3,9.7c-1.1,3.1-2.8,6-3.8,9.2c-3.2,10.1,1.2,21.3,8.4,29
		c6.2,6.7,14.2,11.5,23.1,13.7c6.5,1.6,13.2,1.9,19.8,2.1c18.4,0.6,37.4,1.2,54.8-4.7c5.5-1.9,10.9-4.3,15.9-7.2
		c1.6-0.8,3-1.9,4.1-3.3c1.3-1.9,1.5-4.4,1.5-6.7c0-7.8-1.6-15.6-1.2-23.4c0.2-4.3,1-8.6,0.6-13c-1.1-10-8.4-18.3-18.3-20.6
		c-5-1.1-10.1-0.5-15.1,0c-13.1,1.3-26.3,1.8-39.4,1.8c-13.4-0.1-26.8-2.1-40.2-2.4c-4-0.1-3.9,1.2-5.1,5
		C365.2,503.9,364.2,507.4,363.5,511.1z"/>
	<path class="st5" d="M401.6,318.1c-0.6,3.4-1.3,6.9-3.4,9.7c-2.3,3.2-6.2,5-8.7,8.1c-3.8,4.6-4,11.1-4,17.1
		c0,5.5,0.1,11.4,3.2,15.9c2,3,5,5,8,7c11.5,7.7,23.9,15.6,37.8,15.9c5.7,0.1,11.9-1.4,15.7-5.7c1.6-2,2.9-4.3,3.8-6.8
		c3.5-8.7,5.7-18,6.4-27.4c0.3-4.4,0.3-9-1.2-13.1c-1.7-4.7-5.1-8.6-7.3-13c-2.7-5.3-3.6-11.3-2.8-17.1c0.1-0.4,0.1-0.9-0.1-1.2
		c-0.4-0.4-0.9-0.6-1.5-0.6l-27.5-2c-2.6-0.1-5.1-0.4-7.6-0.9c-1.5-0.3-5.4-2.4-6.8-1.8C402.9,303.1,402.2,315.3,401.6,318.1z"/>
	<path class="st6" d="M401.6,318.1c-0.6,3.4-1.3,6.9-3.4,9.7c-2.3,3.2-6.2,5-8.7,8.1c-3.8,4.6-4,11.1-4,17.1
		c0,5.5,0.1,11.4,3.2,15.9c2,3,5,5,8,7c11.5,7.7,23.9,15.6,37.8,15.9c5.7,0.1,11.9-1.4,15.7-5.7c1.6-2,2.9-4.3,3.8-6.8
		c3.5-8.7,5.7-18,6.4-27.4c0.3-4.4,0.3-9-1.2-13.1c-1.7-4.7-5.1-8.6-7.3-13c-2.7-5.3-3.6-11.3-2.8-17.1c0.1-0.4,0.1-0.9-0.1-1.2
		c-0.4-0.4-0.9-0.6-1.5-0.6l-27.5-2c-2.6-0.1-5.1-0.4-7.6-0.9c-1.5-0.3-5.4-2.4-6.8-1.8C402.9,303.1,402.2,315.3,401.6,318.1z"/>
	<circle class="st5" cx="427.9" cy="281.4" r="40.3"/>
	<path class="st7" d="M407.3,371.7c2.1,2.2,4.3,4.4,7.1,5.7c2.8,1.2,5.8,1.7,8.8,1.7c7.3,0.2,15.1-1.1,20.2-6.4
		c6.5-6.7,6.3-17.6,11.4-25.4c0.4-0.7,1-1.3,1.6-1.8c0.9-0.5,1.8-0.7,2.8-0.6c6.4-0.1,12.1,4.1,17.1,8.1c2.3,1.8,4.6,3.6,6,6.1
		c1,2,1.7,4.1,2,6.2c2.5,12.3,3.3,24.8,4.1,37.4c0.4,6.9,0.9,13.8,0.9,20.8c-0.1,22.8-5.4,45.2-10.7,67.4c-0.7,2.9-1.6,6.1-4.2,7.4
		c-1.2,0.5-2.4,0.8-3.7,0.9c-15.1,1.8-30.2,3.5-45.4,3.8c-5.9,0.1-11.9-0.1-17.8-0.4c-1,0-2-0.2-3-0.5c-1.3-0.6-2.4-1.6-3.3-2.8
		c-8.2-10.4-8.7-24.7-8.7-37.9c0.1-32.4,1.3-64.7,3.5-97c0.2-2.7,0.2-5.9-1.7-8C398,361.9,402.8,367,407.3,371.7z"/>
	<path class="st3" d="M398.8,325.2c-1.4,2.5-11.4,8.6-13.3,10.6c-10.8,11.4-30.6,11-40.5,23.2c-3.5,4.3-5.3,9.7-6.6,15.1
		c-1.9,7.6-2.9,15.9,0.3,23c3,6.9,9.4,11.7,13.8,17.8c4.8,6.8,6.9,15,9,23c1.5,5.9,3,12,2.5,18.1c-0.7,6.9-4,13.2-6,19.9
		c-2,6.7-2.3,14.6,2.2,19.8c3.4,3.8,8.6,5.4,13.6,6.2c6.4,1,12.9,1.5,19.4,1.7c5.7,0.3,12.1,0.3,16.5-3.4c3.5-2.9,5-7.6,5.2-12.2
		c0.2-4.5-0.7-9-1.3-13.5c-0.6-4.7-0.8-9.4-1-14.1c-0.9-21.1-1-42.2-0.4-63.3c0.1-4.4,0.3-8.8-0.6-13.1c-1.2-5.7-4.3-10.7-6.8-15.9
		c-5.1-10.3-7.4-20.3-6.7-31.8C398.7,325,403.6,316.4,398.8,325.2z"/>
	<path class="st3" d="M455.4,326c2.1,2.1,9.1,2.8,11.8,4.2c2.5,1.1,5.1,2,7.7,2.7c9.6,2.8,18.8,7,27.1,12.5c1.7,1,3.3,2.3,4.5,3.9
		c1.5,2.1,2,4.6,2.5,7.1c1.3,6.4,2.6,12.9,2.3,19.4c-0.3,6.9-2.4,13.6-4.5,20.2l-7.7,24.7c-5.8,18.4-11.6,37.1-13.2,56.3
		c-0.9,10.7-0.5,21.4,1.2,32c0.2,1.1,0.3,2.3-0.4,3.1c-0.5,0.5-1.2,0.8-1.9,0.9c-3.7,0.6-7.3-1.3-10.7-3
		c-10.3-5.1-21.4-8.7-32.7-10.7c4.4-6.4,7.9-13.5,10.2-20.9c1.3-4.7,2.3-9.5,3.1-14.4l3.6-20.8c1.5-7.6,2.5-15.3,3.1-23
		c0.3-2.9,0.1-5.8-0.5-8.7c-0.8-2.7-1.9-5.3-3.3-7.8c-5.9-12.3-8.7-26.4-6.4-39.9c1-5.9,3-11.8,2.2-17.7c-0.8-5.7,0-10.1-1.4-15.8
		C445.9,307.2,451.4,322,455.4,326z"/>
	<path class="st3" d="M344.8,378.5c-2.7,5.6-7.2,10.4-8.8,16.4c-0.6,2.8-0.9,5.7-0.8,8.6c0,4.3-0.1,8.8,1.3,12.9
		c0.9,2.7,2.3,5.1,3.3,7.7c1.4,3.6,2,7.5,1.8,11.4c-0.3,5.4-2.1,10.6-2.2,16c-0.2,8.5,3.7,16.5,7.5,24.1c3.7-9.1,14-13.4,23-9.8
		c0.9,0.4,1.8,0.8,2.7,1.4c1-0.9,1.1-2.5,1.2-3.8c0.3-9.9,0.6-19.7,0.8-29.6c0.4-15.2,0.8-30.7-2.7-45.5c-1.6-6.7-4-13.4-8.6-18.6
		c-2.4-2.7-10.5-9.9-14.4-6.9c-1.8,1.4-1.3,5.1-1.6,7C347,372.8,346.1,375.8,344.8,378.5z"/>
	<path class="st3" d="M512.1,362.3c1.3,4,1.4,8.2,1.4,12.4c0.1,8.5-0.1,17-0.3,25.6c-0.1,4.4-0.3,8.8-1.7,12.9
		c-0.9,2.7-2.2,5.3-3.1,8c-2.7,8.2-1.2,17.1-1,25.7c0.2,2.8-0.1,5.6-0.7,8.3c-1.4,5.3-5.3,9.7-7.9,14.5c-2.5,4.6-4.1,9.8-7.1,14
		c-3,4.3-8.3,7.7-13.4,6.4c-3.9-1-6.6-4.4-8.5-7.9c-4.1-7.7-5.5-16.6-4-25.2c1.9-10.5,8-19.7,10.3-30.2c3-14.3-1.6-29-1.4-43.6
		c-0.1-2.3,0.2-4.6,0.9-6.8c1.2-3.3,3.7-6,6-8.7c2.9-3.3,5.6-6.9,8-10.5c1.7-2.5,3.9-8.8,6.8-9.3
		C502.9,346.9,510.5,357.3,512.1,362.3z"/>
	<path class="st4" d="M310.9,504.7c-3.6-0.9-7.3-1.3-11.1-1.2c-15.2,0.8-26.9,13.9-26.1,29.1c0.1,1.2,0.2,2.3,0.4,3.5
		c0.9,4.2,2.4,8.2,4.4,12c2.9,6,6.5,11.9,11.9,15.7c3.2,2.2,6.9,3.6,10.5,5l28.6,10.8c4.2,1.6,8.4,3.2,12.7,4.6
		c21.4,7.4,43.6,11.8,66.2,13.2c6.9,0.4,13.8,0.5,20.5-1c1.6-0.4,3.3-0.9,4.2-2.3c0.5-1,0.9-2,0.9-3.1l1.8-12.3
		c0.2-1.7,0.5-3.6-0.1-5.2c-0.8-2.1-2.8-3.4-4.8-4.5c-18.8-10.8-40.8-16.8-56.6-31.6c-3.7-3.5-6.8-9-11.4-11.4
		c-5.1-2.7-11.2-4.2-16.5-6.7C334.9,513.8,323.5,507.6,310.9,504.7z"/>
	<path class="st6" d="M339.5,521.3c10.1,3.2,52.8,25.1,60.1,32.8c-1,0.4-34.3-18.3-35.3-18.6c-9.1-2.7-18.2-5.5-26.8-9.5
		c-1.7-0.8-11.3-4.6-10.8-6.8C327.2,516.9,337.7,520.8,339.5,521.3z"/>
	<path class="st5" d="M465.7,603.8c0.6,0,1.1-0.1,1.6-0.5c0.4-0.5,0.6-1.2,0.5-1.8c0-5.6,0-11.2,0-16.8c-4.8-2.3-10.2-3-15.5-3.7
		l-24.7-3.3c0.6,0.1-3.9,10.7-3.2,12.1c1.2,2.5,10.4,4.7,12.9,5.9C446.2,599.6,455.5,604.1,465.7,603.8z"/>
	<path class="st5" d="M388,584.6c-4.7,0.7-9.9,1.4-12.9,5c-3.8,4.6-2.2,11.5-0.4,17.2c0.3,1.2,0.8,2.2,1.6,3.1
		c1.2,1.2,3.2,1.4,4.9,1.5c4.3,0.3,8.8,0.5,12.5-1.6c1.7-1.1,3.3-2.3,4.9-3.6c2.7-1.8,5.8-3.2,8.9-4.1c5.8-1.8,11.9-3.1,17.9-3.7
		c2.4-0.1,4.8-0.5,7.1-1.2c2.2-0.8,4.3-2.5,5-4.8c0.9-3.1-0.9-6.2-2.6-8.8c-2.1-3.3-4.4-6.8-7.5-9.3c-4.6-3.6-6.9-0.8-11.5,1.5
		C407.1,580.1,397.7,583.1,388,584.6z"/>
	<path class="st4" d="M375.8,588.8l-29.7-8.8c-3.6-1.1-7.3-2.1-11-2.1c-3.8,0-7.7,1.2-10.1,4.1c-2.3,2.7-3,6.4-3.5,9.9l-1.2,7.5
		c-0.6,3.8-1.2,7.7-0.7,11.5c0.6,3.8,2.5,7.6,5.9,9.5c4.1,2.2,9.1,1.1,13.7,0.2c9.3-1.9,18.7-2.9,28.1-3c3.5,0,7.3,0,10.4-1.7
		c3.7-2,6-6.2,6.3-10.4C384.6,599.1,382.5,590.8,375.8,588.8z"/>
	<path class="st4" d="M477.3,581.2c3.8-0.7,7.2-2.9,10.9-4.1c5.2-1.8,10.8-1.8,16.3-1.8c2,0,4.2,0.1,5.8,1.2c2.4,1.6,3,4.8,3.5,7.7
		l2.5,17.4c0.5,3.3,0.9,6.6,0.2,9.8c-0.7,3.2-2.9,6.3-6.1,7.2c-3.9,1-7.7-1.5-11.3-3.1c-9.2-4.1-19.8-3-29.3-6.1
		c-1.8-0.6-3.7-1.4-4.4-3.1c-0.3-1-0.4-2-0.3-3c0.2-5.6-1-13.2,0.7-18.5C467.2,579.8,473,581.2,477.3,581.2z"/>
	<path class="st4" d="M540.1,497.7c5.9-1.5,12.1-1.9,18.1-1.2c4.9,0.5,9.8,1.9,13.4,5.2c4.3,4.1,5.7,10.4,5.8,16.3
		c0.2,11.8-3.7,23.4-11.1,32.6c-1.8,2.3-3.9,4.4-6.3,6.1c-2.6,1.6-5.4,3-8.3,4l-64.1,25.3c-16.9,6.6-33.8,13.3-51.4,17.7
		c-2,1-4.4,0.1-5.3-1.9c0,0,0-0.1,0-0.1c-5.6-8-10.3-16.6-14-25.7c-0.6-0.7-0.5-1.8,0.2-2.4c0.2-0.1,0.3-0.2,0.5-0.3l45.3-26
		c3.2-1.9,6.5-3.8,9.2-6.4c2-1.9,3.6-4.1,4.7-6.6c0.9-2,1-6.6,2.2-8c1.2-1.4,5.2-1.5,7.1-2.1c2.6-0.8,5.2-1.8,7.7-2.9
		c10.1-4.5,19.2-11.1,28.9-16.4C528.2,501.8,534,499.4,540.1,497.7z"/>
	<path class="st6" d="M514.4,517.2c-7.8,5.8-17.9,11.2-25.6,17.2c-2.6,2-46.5,26.7-47.2,30c7.2,1.2,53.1-30.9,59.6-34.1
		c6.6-3.2,12.4-7.7,18.1-12.2c1.5-1.1,7.7-4.6,3.5-5.9C520.5,511.6,516.1,516,514.4,517.2z"/>
	<polygon class="st4" points="471.7,245.7 437,227.6 389.1,235 379.2,278.7 403.9,277.8 410.8,261.7 410.8,277.5 422.1,277.1 
		428.7,251.5 432.9,278.7 473.3,277.9 	"/>
	<rect x="389.3" y="335.5" class="st0" width="74.6" height="90"/>
	<circle class="st7" cx="426.6" cy="366.9" r="7.6"/>
	<path class="st5" d="M353.9,492.1c1.7,2.6,3.7,5.1,6.5,6.4c3.6,1.6,7.7,1.5,11.1-0.3c3.4-1.8,6.2-4.6,8-8
		c3.8-6.7,4.5-14.6,4.1-22.2c-0.5-7.6-2.1-15.1-2.8-22.8c-0.5-5.5-0.6-11.1-0.6-16.7c-0.1-1.2,0.1-2.3,0.7-3.4
		c0.8-1.1,2.4-1.5,3.7-1.9c7.6-2.3,12.7-9.4,16.3-16.4c2.4-4.7,4.5-9.9,4.1-15.1c-0.5-5.3-4.3-10.6-9.5-11.1
		c-4.3-0.4-8.4,2.3-11.5,5.4c-7.9,7.7-13,17.9-14.4,28.8c-0.7,5.4-0.5,10.9-2,16.1c-3.1,11.1-12.9,17.9-17.7,27.9
		C344.4,469.8,347.4,482.3,353.9,492.1z"/>
	<path class="st5" d="M497.4,449.6c-2.2,5.2-6.5,9.3-11.8,11.3c-3.3,1.3-6.9,1.5-10.2,0.6c-3.4-0.9-6.2-3.4-7.5-6.7
		c-0.5-1.6-0.8-3.3-0.8-5c-0.5-7.5-0.3-15.2,2.4-22.2c1.1-2.7,2.5-5.3,3.3-8c0.8-3.2,1.2-6.5,1.2-9.8l0.9-20.5c0.1-1.5,0-3-0.3-4.4
		c-0.9-3-3.7-4.9-6.2-6.7c-6.1-4.3-12.2-9.2-15.2-16.1c-1-2.1-1.4-4.4-1-6.7c0.8-4.1,4.9-6.7,9-7.6c10.9-2.4,21.6,4.5,23.9,15.4
		c0.1,0.3,0.1,0.6,0.2,0.9c0.4,2.3,0.4,4.7,0.6,7c0.5,4.9,2.1,9.7,3.1,14.6c2.4,12,1.2,24.4,3.6,36.4
		C494.5,432.1,502,438.6,497.4,449.6z"/>
	<path class="st4" d="M613.3,574.7l-1.7,0c0.7-19.1,2.7-38.1,6.1-56.8c7.4-40.2,19.7-66.6,36.7-78.5l1,1.4
		C615.8,468.5,613.3,573.7,613.3,574.7z"/>
	<path class="st4" d="M634.7,574.3l-1.7,0c0-1.9,1.1-46.7,18.7-59l1,1.4C635.8,528.5,634.7,573.9,634.7,574.3z"/>
	<circle class="st3" cx="665" cy="432.4" r="8.6"/>
	<circle class="st3" cx="660.8" cy="506.1" r="8.6"/>
	<path class="st4" d="M630.7,446.1c1.6,10.3-2.6,19.5-2.6,19.5s-6.8-7.5-8.4-17.8c-1.6-10.3,2.6-19.5,2.6-19.5
		S629.1,435.8,630.7,446.1z"/>
	<path class="st4" d="M658.7,471.1c-9.9,3.4-19.7,0.8-19.7,0.8s6.2-8,16-11.4c9.9-3.4,19.7-0.8,19.7-0.8S668.6,467.7,658.7,471.1z"
		/>
	<path class="st4" d="M659,536.4c-4.5,1.4-9.2,1.6-13.8,0.6c5.9-7.5,15.7-10.9,25-8.6C667.3,532,663.4,534.8,659,536.4z"/>
</g>
</svg>
