<?xml version="1.0" encoding="utf-8"?>
<!-- Generator: Adobe Illustrator 24.0.1, SVG Export Plug-In . SVG Version: 6.00 Build 0)  -->
<svg version="1.1" id="Calque_1" xmlns="http://www.w3.org/2000/svg" xmlns:xlink="http://www.w3.org/1999/xlink" x="0px" y="0px"
	 viewBox="0 0 690.7 534.7" style="enable-background:new 0 0 690.7 534.7;" xml:space="preserve">
<style type="text/css">
	.st0{fill:#403E56;}
	.st1{fill:#585EA7;}
	.st2{fill:#302F42;}
	.st3{fill:#F6B7BA;}
	.st4{fill:#D0CDE1;}
	.st5{fill:#F3BCBC;}
	.st6{fill:#585B89;}
	.st7{opacity:0.1;fill:#020203;enable-background:new    ;}
	.st8{fill:#A0626B;}
	.st9{fill:#F2F2F2;}
	.st10{opacity:0.1;fill:#FFFFFF;enable-background:new    ;}
	.st11{fill:#FFFFFF;}
</style>
<g>
	<path class="st0" d="M306.8,121.6c-28.4,0-56.7-4.7-83.5-14c-36-12.5-65.5-29.6-87.7-51C93.6,16,59.3,9.9,37.8,11.9
		C14.6,14.1,1.1,26,0.9,26.1l-0.9-1c0.1-0.1,13.9-12.3,37.6-14.5c13.9-1.3,28.4,1,43.1,6.8c18.4,7.3,37.2,20.1,55.9,38.2
		c22,21.3,51.4,38.4,87.2,50.7c65.8,22.7,139.9,17.2,203.3-15.1c21-10.7,41.8-18,61.7-21.7c25.2-4.7,49-3.6,70.9,3.2
		c48.1,15,81,14.2,100.1,10.9c20.6-3.6,30-10.7,30-10.8l0.8,1.1c-0.4,0.3-9.7,7.4-30.7,11C640.8,88.2,607.7,89,559.3,74
		c-49-15.2-98.6,1.6-131.6,18.4c-31.4,16.1-65.6,25.7-100.8,28.4C320.2,121.3,313.5,121.6,306.8,121.6z"/>
	<circle class="st1" cx="304" cy="124.7" r="14"/>
	<circle class="st1" cx="521.3" cy="68.7" r="14"/>
	<circle class="st1" cx="69.5" cy="14" r="14"/>
	<path class="st0" d="M404.6,335.2v135.5h21.3V347.1h85.2v123.6h21.3v-271h-21.3c-7.1,0-17.9,36.8-17.9,73.7
		c0,27.8,3.3,51.7,7.9,61.8H404.6z M511.1,335.2h-0.2c0.1-0.2,0.1-0.3,0.2-0.5V335.2z"/>
	<path class="st2" d="M483.5,132.7L483.5,132.7c-17.5,0-31.7,15.7-31.7,35.1v24.7h7.6l4.4-9.1l-1.1,9.1h48.7l4-8.3l-1,8.3h5.5v-19.4
		C520,150.8,503.6,132.7,483.5,132.7z"/>
	<path class="st2" d="M447.2,293.7l-19.4,8.3l-67.6,54.9c-2.5,3.1-4,6.8-4.4,10.7c-0.5,6.3-20.9,39.4-13.6,43.7
		c7.3,4.4,33.5,17.5,35,8.7s9.2-46.2,9.2-46.2l65.1-58.3L447.2,293.7z"/>
	<path class="st2" d="M370.9,412.8l-8.3,24.3c0,0,8.7,9.2,4.4,17v26.7h-6.8l-1.9-14.1c0,0-7.7,13.9-11.7,14.1
		c-8.2,0.4-24.5,3.3-24.9-1.1c-0.5-4.4,12.3-8.6,12.3-8.6l13.6-37.4l5.8-22.8L370.9,412.8z"/>
	<path class="st2" d="M497.8,287.4c0,0,4.4,42.8-8.3,50.5c-12.6,7.8-68.5,32.6-68.5,32.6s23.8,22.4,19,27.7
		c-4.9,5.3-26.7,19.9-29.6,17c-2.9-2.9-35.5-37.9-31.6-49.1c3.9-11.2,57.8-47.6,57.8-47.6l6.3-22.8l1.9-18.5l20.4-13.1L497.8,287.4z
		"/>
	<circle class="st3" cx="475.5" cy="167.6" r="20.3"/>
	<path class="st3" d="M491.2,175.9c0,0-1,18.5,14.1,24.3c15.1,5.8-37.4,43.7-37.4,43.7v-42.3c0,0,6.8-7.3,0-18.5L491.2,175.9z"/>
	<path class="st3" d="M523.5,262.6l-3.9,19L508,346.7c0,0,9.7,27.7-3.4,27.2c-13.1-0.5-6.8-30.1-6.8-30.1l6.8-53.9V269L523.5,262.6z
		"/>
	<path class="st3" d="M439.9,253.4l-4.4,17l-19.9,48.1c0,0-13.6,22.8-2.4,22.4s11.2-22.4,11.2-22.4l22.8-38.9v-21.9L439.9,253.4z"/>
	<path class="st2" d="M436.5,395.3l16,15.1c0,0,11.2-2.4,15.6,10.7s7.3,21.4,7.3,21.4l-5.8,3.4l-7.3-10.2c0,0-4.4,18.5-8.7,19.9
		c-4.4,1.5-26.2,11.2-24.3,0l10.7-15.6c0,0,1.5-17.5-2.9-19c-4.4-1.5-16-16-16-16L436.5,395.3z"/>
	<path class="st0" d="M498.6,302.5c0,0-45.7-16.5-48.6-15.1c-2.2,1-4.5,1.6-6.8,1.8l0-6.6c0,0,15.1-5.3,23.3-1.9
		c8.3,3.4,33.5,18.5,33.5,18.5L498.6,302.5z"/>
	<path class="st4" d="M470.8,234.2c0,0,13.1-15.1,17-24.3c2.5-5.6,7-10,12.6-12.4c0,0,29.2,6.6,28.7,18.2
		c-0.5,11.7-18.5,29.6-18.5,29.6S513.1,310,500,309c-2.8-3.4-4.8-7.4-5.8-11.7c-1.5-6.8-46.7-14.1-46.7-14.1s-3.9,6.8-4.4,3.9
		c-0.5-2.9,3.9-74.4,3.9-74.4l23.2-15.3L470.8,234.2z"/>
	<path class="st4" d="M525.4,211l0.3,0.2c2.1,1.2,3.4,3.4,3.4,5.8l0,36.1c0,2,0.9,3.9,2.4,5.1c1.9,1.6,3.6,3.9,0,5.1
		c-5.8,1.9-28.7,11.7-29.2,8.3c-0.5-3.4-1.5-7.3,0-7.3c1.1,0,7.9-34.9,13.4-49.8c1.3-3.5,5.1-5.3,8.6-4
		C524.7,210.7,525.1,210.9,525.4,211z"/>
	<path class="st4" d="M453.6,211.1l-6.8,1.9l-7.8,33.5c0,0-9.2,1.9-6.3,5.3c2.9,3.4,15.1,12.2,15.1,12.2L453.6,211.1z"/>
	<path class="st2" d="M492.5,142.3c-3.1-4.1-7.9-6.6-13.1-6.7h-0.6c-12,0-21.7,10.8-21.7,24.2v0h4l0.6-4.9l1,4.9h23.8l2-4.2
		l-0.5,4.2h4.7c2.2,10.9-1,21.7-9.4,32.6h8l4-8.4l-1,8.4h15.2l3-19.2C512.5,158.8,504.1,146.6,492.5,142.3z"/>
	<path class="st0" d="M85.5,366.5c5.1-11.1,8.7-37.5,8.7-68.3c0-40.8-12-81.5-19.8-81.5H50.8v299.6h23.6V379.7h94.2v136.6h23.6
		V366.5H85.5z M74.4,366c0.1,0.2,0.2,0.4,0.2,0.5h-0.2V366z"/>
	<path class="st5" d="M183.6,311.9c0,0,28.4,11.8,19.4,18.7s-27.7-8.3-27-10.4c0.7-2.1-2.8-6.9-2.8-6.9L183.6,311.9z"/>
	<path class="st6" d="M158.7,219.1l9,8.3l2.1,24.2l6.9,25.6c0,0,11.8,24.2,9.7,29.1c-2.1,4.8,2.1,6.2,2.1,6.2l-15.9,6.2
		c0,0-17.3-19.4-17.3-23.5S158.7,219.1,158.7,219.1z"/>
	<path class="st7" d="M158.7,219.1l9,8.3l2.1,24.2l6.9,25.6c0,0,11.8,24.2,9.7,29.1c-2.1,4.8,2.1,6.2,2.1,6.2l-15.9,6.2
		c0,0-17.3-19.4-17.3-23.5S158.7,219.1,158.7,219.1z"/>
	<path class="st6" d="M243.8,468.2c0,0-3.5,15.9-4.2,17.3s13.1,6.2,13.1,6.2l16.6-11.8c0,0-6.9-15.2-6.9-18L243.8,468.2z"/>
	<path class="st2" d="M153.2,313.2l4.8,5.5c0,0,100.3,12.5,102.4,31.8c2.1,19.4,16.6,110.7,8.3,113.5c-8.3,2.8-29.8,13.1-29.8,7.6
		c0-5.5-13.8-81.6-11.1-95.5c0,0-119.7-15.2-122.5-32.5c-2.8-17.3,2.8-24.9,2.8-24.9L153.2,313.2z"/>
	<path class="st7" d="M153.2,313.2l4.8,5.5c0,0,100.3,12.5,102.4,31.8c2.1,19.4,16.6,110.7,8.3,113.5c-8.3,2.8-29.8,13.1-29.8,7.6
		c0-5.5-13.8-81.6-11.1-95.5c0,0-119.7-15.2-122.5-32.5c-2.8-17.3,2.8-24.9,2.8-24.9L153.2,313.2z"/>
	<path class="st2" d="M242.5,484.1c0,0-2.8-6.2-4.2-4.2c-1.4,2.1-6.2,26.3-1.4,26.3s49.1,11.1,55.4,9.7c6.2-1.4,18,0.7,16.6-6.2
		c-1.4-6.9-8.3-7.6-8.3-7.6s-25.6-15.2-27-22.8s-9-3.5-9-3.5v4.8C264.6,480.7,250.1,491.7,242.5,484.1z"/>
	<path class="st8" d="M111,166.6c0,0,4.8,23.5-5.5,25.6c-10.4,2.1,13.1,15.9,13.1,15.9l15.2,8.3l11.1-11.1c0,0-10-20.4-2.4-35.6
		S111,166.6,111,166.6z"/>
	<path class="st5" d="M144.9,205.3l-11.1,11.1l-15.2-8.3c0,0-23.5-13.8-13.1-15.9c6.7-1.3,7.1-11.5,6.5-18.7
		c-0.2-2.3-0.5-4.6-0.9-6.9c0,0,39.1-12.1,31.5,3.1c-1.2,2.4-2,4.9-2.4,7.4C137.8,190.8,144.9,205.3,144.9,205.3z"/>
	<polygon class="st6" points="183.6,488.3 183.6,504.2 209.9,504.2 212,498 209.2,481.4 	"/>
	<path class="st2" d="M75,327.1c0,0,0,40.8,16.6,42.2s76.1,9,76.1,9s3.5,67.8,9.7,89.9c6.2,22.1,0.7,23.5,6.2,24.9
		c5.5,1.4,29.1-3.5,28.4-8.3c-0.7-4.8-3.5-127.3-3.5-127.3s6.2-26.3-76.8-38.7L75,327.1z"/>
	<path class="st2" d="M185.7,499.3c0,0-4.2-9-4.8-6.2s-9,27-0.7,29.1c8.3,2.1,34.6,13.1,51.9,12.5c17.3-0.7,19.4-1.4,19.4-1.4
		s4.8-6.9-1.4-11.1c-6.2-4.2-31.8-28.4-33.2-31.1s-11.8-4.8-11.8,0C205.1,495.9,190.6,505.6,185.7,499.3z"/>
	<path class="st7" d="M142.5,169.7c-1.2,2.4-2,4.9-2.4,7.4c-3.4,2.1-5.7,1.5-10.1,1.5c-6.4,0-9-8.2-13.1-12.5
		c-0.3-4-5.9,0.3-5.9,0.3S150.1,154.4,142.5,169.7z"/>
	<circle class="st5" cx="128.3" cy="155.5" r="22.8"/>
	<path class="st6" d="M167.7,227.4c0,0-3.5,24.9-5.5,33.9c-2.1,9-4.8,50.5-6.2,56c-1.4,5.5-9.7,6.9-26.3,4.8c-1-0.1-2.1-0.2-3.1-0.2
		c-10.2-0.3-21.9,3.5-32.8,6.5c-6.2,1.7-12.2,3.2-17.4,3.4c-7.9,0.4-10.2-8.4-9.9-17.9c0.3-8.8,2.8-18.3,5.1-21.6
		c4.2-6,0.1-59.9,1.6-77.7v0c0.2-2.7,0.6-4.6,1.1-5.3c4.2-5.5,31.1-19.4,34.2-18.8c3,0.6,28.8,16.7,28.8,16.7c6.2,0,6-6.8,6-6.8
		s4.4,8.1,12.7,10.2S167.7,227.4,167.7,227.4z"/>
	<path class="st5" d="M121.5,317.1c0,0,44.6,1.4,36.8,6.7c-7.8,5.3-42.4,10.1-43.1,3.2S121.5,317.1,121.5,317.1z"/>
	<path class="st7" d="M126.5,322c0.1,2.7-7,8.6-9.3,12.7c-1.3,2.2-11.2-0.7-23.4-6.2c-9.4-4.2-18.5-9-27.3-14.4
		c0.3-8.8,2.8-18.3,5.1-21.6c4.2-6,0.1-59.9,1.6-77.7v0c0.4-0.2,0.8-0.3,1.1-0.5h8.3c28.4,13.1-4.2,69.9-4.2,69.9s42.9,35.3,47,36.7
		C126.1,321,126.5,321.4,126.5,322z"/>
	<path class="st6" d="M82.6,210.1h-8.3c0,0-7.6,2.1-13.8,15.9c-6.2,13.8-29.1,56.7-9,73.3c20.1,16.6,63,36,65.7,31.1
		c2.8-4.8,12.5-12.5,8.3-13.8c-4.2-1.4-47-36.7-47-36.7S111,223.3,82.6,210.1z"/>
	<path class="st2" d="M124.8,144.9c0,0,1-13.9,13.4-8.2c12.4,5.7,11.6-9.9,7.8-12.7c-3.7-2.8-3.6-3.4-17.3-1.6s-40.2,5-31.6,32.4
		s16.3,20.4,16.3,20.4s-6.8-24.7,0.1-20l6.9,4.7l3.6-0.8L124.8,144.9z"/>
	<path class="st0" d="M634.8,344.6c0-12.5-92.8-22.6-207.3-22.6s-207.3,10.1-207.3,22.6c0,4.8,13.9,9.3,37.7,13v154.7h11.3V359.2
		c38,4.9,94.8,8,158.3,8c64,0,121.2-3.2,159.2-8.1v153.2h11.3V357.4C621.2,353.8,634.8,349.4,634.8,344.6z"/>
	<ellipse class="st9" cx="453.5" cy="334.7" rx="42.2" ry="10.4"/>
	<ellipse class="st4" cx="453.5" cy="334.7" rx="34.6" ry="8.5"/>
	<ellipse class="st9" cx="296.5" cy="343" rx="42.2" ry="10.4"/>
	<ellipse class="st4" cx="296.5" cy="343" rx="34.6" ry="8.5"/>
	<ellipse class="st8" cx="452.5" cy="330.8" rx="20.1" ry="3.2"/>
	<ellipse class="st1" cx="441.8" cy="326.1" rx="6.4" ry="3.4"/>
	<ellipse class="st1" cx="439.4" cy="326.1" rx="6.4" ry="3.4"/>
	<ellipse class="st1" cx="467.2" cy="326.9" rx="6.4" ry="3.4"/>
	<ellipse class="st1" cx="452.7" cy="326.1" rx="6.4" ry="3.4"/>
	<ellipse class="st1" cx="463.5" cy="326.1" rx="6.4" ry="3.4"/>
	<path class="st0" d="M471.7,324c-11.5,3.9-24.4,3.9-38.7,0v-0.5c0-8.4,6.6-15.4,15-15.8c3.4-0.2,6.8-0.2,10.2,0
		c7.6,0.4,13.5,6.7,13.4,14.3V324z"/>
	<path class="st0" d="M466.1,338.6c-8.5,0.9-17,0.9-25.5,0c-4.2-0.4-7.4-3.9-7.4-8.1h40.2C473.4,334.7,470.3,338.2,466.1,338.6z"/>
	<path class="st4" d="M447.1,312.6c-1.9,0.8-4,0.8-5.8,0C443.1,311.9,445.2,311.9,447.1,312.6z"/>
	<path class="st4" d="M452.9,315c-1.9,0.8-4,0.8-5.8,0C449,314.2,451.1,314.2,452.9,315z"/>
	<path class="st4" d="M453.5,310.8c-1.9,0.8-4,0.8-5.8,0C449.5,310,451.6,310,453.5,310.8z"/>
	<path class="st4" d="M464.3,310.8c-1.9,0.8-4,0.8-5.8,0C460.4,310,462.4,310,464.3,310.8z"/>
	<path class="st4" d="M461.4,313.2c-1.9,0.8-4,0.8-5.8,0C457.4,312.4,459.5,312.4,461.4,313.2z"/>
	<ellipse class="st8" cx="296.2" cy="339.1" rx="20.1" ry="3.2"/>
	<ellipse class="st1" cx="285.4" cy="334.4" rx="6.4" ry="3.4"/>
	<ellipse class="st1" cx="283.1" cy="334.4" rx="6.4" ry="3.4"/>
	<ellipse class="st1" cx="310.9" cy="335.2" rx="6.4" ry="3.4"/>
	<ellipse class="st1" cx="296.3" cy="334.4" rx="6.4" ry="3.4"/>
	<ellipse class="st1" cx="307.2" cy="334.4" rx="6.4" ry="3.4"/>
	<path class="st0" d="M315.4,332.3c-11.5,3.9-24.4,3.9-38.7,0v-0.5c0-8.4,6.6-15.4,15-15.8c3.4-0.2,6.8-0.2,10.2,0
		c7.6,0.4,13.5,6.7,13.4,14.3V332.3z"/>
	<path class="st0" d="M309.7,346.9c-8.5,0.9-17,0.9-25.5,0c-4.2-0.4-7.4-3.9-7.4-8.1h40.2C317.1,343,313.9,346.5,309.7,346.9z"/>
	<path class="st4" d="M290.7,320.9c-1.9,0.8-4,0.8-5.8,0C286.8,320.2,288.9,320.2,290.7,320.9z"/>
	<path class="st4" d="M296.6,323.3c-1.9,0.8-4,0.8-5.8,0C292.6,322.5,294.7,322.5,296.6,323.3z"/>
	<path class="st4" d="M297.1,319.1c-1.9,0.8-4,0.8-5.8,0C293.1,318.3,295.2,318.3,297.1,319.1z"/>
	<path class="st4" d="M307.9,319.1c-1.9,0.8-4,0.8-5.8,0C304,318.3,306.1,318.3,307.9,319.1z"/>
	<path class="st4" d="M305,321.5c-1.9,0.8-4,0.8-5.8,0C301.1,320.7,303.2,320.7,305,321.5z"/>
	<path class="st1" d="M489.8,331.9l0.1,2.1l0.1,2.8c0,0-12.8,0.7-15.3,3.4c-0.1,0.1-0.1,0.1-0.2,0.2l-5.1-1.1l0-2.5
		c0,0,0.1,0,0.2-0.1c0,0,0.1,0,0.1-0.1C476,333.5,482.9,331.9,489.8,331.9z"/>
	<path class="st7" d="M489.8,331.9l0.1,2.1c-5.7,0.2-16.4,3.5-16.4,3.5l-3.9-0.9C475.9,333.6,482.8,331.9,489.8,331.9z"/>
	<path class="st10" d="M469.7,336.6l3.8,1l1.2,2.7c-0.1,0.1-0.1,0.1-0.2,0.2l-5.1-1.1l0-2.5c0,0,0.1,0,0.2-0.1
		C469.7,336.7,469.7,336.6,469.7,336.6z"/>
	<path class="st1" d="M335.5,340.9l0.1,2.1l0.1,2.8c0,0-12.8,0.7-15.3,3.4c-0.1,0.1-0.1,0.1-0.2,0.2l-5.1-1.1l0-2.5
		c0,0,0.1,0,0.2-0.1c0,0,0.1,0,0.1-0.1C321.7,342.5,328.6,340.9,335.5,340.9z"/>
	<path class="st7" d="M335.5,340.9l0.1,2.1c-5.7,0.2-16.4,3.5-16.4,3.5l-3.9-0.9C321.6,342.6,328.5,340.9,335.5,340.9z"/>
	<path class="st10" d="M315.4,345.6l3.8,1l1.2,2.7c-0.1,0.1-0.1,0.1-0.2,0.2l-5.1-1.1l0-2.5c0,0,0.1,0,0.2-0.1
		C315.4,345.6,315.4,345.6,315.4,345.6z"/>
	<path class="st0" d="M566.7,267.7c-1.1-1.1-2.4-2-3.8-2.6v-26.9c0-0.7-0.5-1.2-1.2-1.2l0,0h-6.7c-0.7,0-1.2,0.5-1.2,1.2l0,0v26.4
		c-4.9,1.6-8.3,6.2-8.3,11.4v57.7c0,2.9,2.4,5.3,5.3,5.3h14.3c2.9,0,5.3-2.4,5.3-5.3v-57C570.4,273.3,569.1,270.1,566.7,267.7z"/>
	<rect x="545.6" y="284.5" class="st1" width="24.8" height="32.8"/>
	<path class="st1" d="M563.5,238.8h-0.5v-0.6c0-0.7-0.5-1.2-1.2-1.2l0,0h-6.7c-0.7,0-1.2,0.5-1.2,1.2l0,0v0.6h-0.5v2.8h0.5v14.1h9
		v-14.1h0.5V238.8z"/>
	<path class="st4" d="M368.1,291c-0.7-1.4-1.2-2.4-1.4-2.7c-11.1,2.7-18.6,0.4-19.7,0c-0.6,1.1-4.1,8-5.6,14.6
		c-1.3,6-0.5,10,2.3,11.9l0.1,0.1l0,0c3.1,2,6,3.8,8.8,5.4c0.4,0.2,0.7,0.4,1,0.6l0,0l0,0c0.4,0.5,0.7,1,1,1.5
		c0.6,0.8,1,1.8,1.1,2.9v29.7l-0.2,0c-7.1,0.1-11.5,1.3-11.5,2.4c0,1.1,5.3,2.4,12.8,2.4c7.6,0,12.8-1.3,12.8-2.4
		c0-1-4.3-2.2-11.3-2.4l-0.2,0l0.2-27.5c0-1.9,0.4-3.7,1.3-5.4c0.1-0.3,0.3-0.6,0.5-0.8c0.1-0.2,0.3-0.4,0.4-0.6l0,0l0,0
		c0.3-0.2,0.7-0.4,1.1-0.6l0,0c2.6-1.5,5.4-3.2,8.3-5.1c2.6-1.7,3.5-5.2,2.7-10.3C371.9,299.8,369.8,294.5,368.1,291z"/>
	<path class="st1" d="M368.8,314.3c-3,2-5.6,3.5-7.5,4.6h0c-2.8-0.2-5.6-0.1-8.4,0.2c-2-1.1-4.6-2.7-7.9-4.8c0,0-0.1,0-0.1-0.1v0
		c-3-2.1-3.1-6.4-2.1-10.9c2.5-0.3,6.4-0.2,11.7,1.7c6.3,2.2,12.9,1,16.7-0.2C371.9,308.8,371.5,312.5,368.8,314.3z"/>
	<circle class="st1" cx="350.7" cy="300.8" r="0.9"/>
	<circle class="st11" cx="348.3" cy="308.8" r="0.9"/>
	<circle class="st1" cx="352.8" cy="302.9" r="0.5"/>
	<circle class="st11" cx="354.8" cy="312.7" r="0.5"/>
	<circle class="st11" cx="351.2" cy="313.2" r="0.5"/>
	<circle class="st1" cx="361.7" cy="296" r="0.5"/>
	<path class="st4" d="M408.5,263c-0.7-1.4-1.2-2.4-1.4-2.7c-11.1,2.7-18.6,0.4-19.7,0c-0.6,1.1-4.1,8-5.6,14.6
		c-1.3,6-0.5,10,2.3,11.9l0.1,0.1l0,0c3.1,2,6,3.8,8.8,5.4c0.4,0.2,0.7,0.4,1,0.6l0,0l0,0c0.4,0.5,0.7,1,1,1.5
		c0.6,0.8,1,1.8,1.1,2.9v29.7l-0.2,0c-7.1,0.1-11.5,1.3-11.5,2.4c0,1.1,5.3,2.4,12.8,2.4s12.8-1.3,12.8-2.4c0-1-4.3-2.2-11.3-2.4
		l-0.2,0l0.2-27.5c0-1.9,0.4-3.7,1.3-5.4c0.1-0.3,0.3-0.6,0.5-0.8c0.1-0.2,0.3-0.4,0.4-0.6l0,0l0,0c0.3-0.2,0.7-0.4,1.1-0.6l0,0
		c2.6-1.5,5.4-3.2,8.3-5.1c2.6-1.7,3.5-5.2,2.7-10.3C412.3,271.8,410.2,266.6,408.5,263z"/>
	<path class="st1" d="M409.2,286.3c-3,2-5.6,3.5-7.5,4.6h0c-2.8-0.2-5.6-0.1-8.4,0.2c-2-1.1-4.6-2.7-7.9-4.8c0,0-0.1,0-0.1-0.1v0
		c-3-2.1-3.1-6.4-2.1-10.9c2.5-0.3,6.4-0.2,11.7,1.7c6.3,2.2,12.9,1,16.7-0.2C412.3,280.8,411.9,284.5,409.2,286.3z"/>
	<circle class="st1" cx="391.1" cy="272.9" r="0.9"/>
	<circle class="st11" cx="388.7" cy="280.8" r="0.9"/>
	<circle class="st1" cx="393.2" cy="274.9" r="0.5"/>
	<circle class="st11" cx="395.2" cy="284.7" r="0.5"/>
	<circle class="st11" cx="391.6" cy="285.3" r="0.5"/>
	<circle class="st1" cx="402.1" cy="268" r="0.5"/>
</g>
</svg>
