<?xml version="1.0" encoding="utf-8"?>
<!-- Generator: Adobe Illustrator 24.0.1, SVG Export Plug-In . SVG Version: 6.00 Build 0)  -->
<svg version="1.1" id="Calque_1" xmlns="http://www.w3.org/2000/svg" xmlns:xlink="http://www.w3.org/1999/xlink" x="0px" y="0px"
	 viewBox="0 0 1158.2 1107.9" style="enable-background:new 0 0 1158.2 1107.9;" xml:space="preserve">
<style type="text/css">
	.st0{fill:#F6BDBE;}
	.st1{fill:#CECCDF;}
	.st2{fill:#303042;}
	.st3{fill:#423D56;}
	.st4{opacity:0.15;fill:#020203;enable-background:new    ;}
	.st5{fill:#3E559A;}
	.st6{fill:#FFFFFF;}
</style>
<g>
	<g>
		<path class="st0" d="M915.1,651.2l-6.4,24.3c0,0-23,51.2,0,53.7c23,2.6,24.3-66.5,24.3-66.5L915.1,651.2z"/>
		<path class="st1" d="M954.8,475.9l-46.1,181.7c0,0,17.9,5.1,26.9,11.5L954.8,475.9z"/>
		<path class="st2" d="M1099.3,614.1l12.8,198.3c0,0,30.7,78,29.4,152.3c0,0-11.5,29.4-2.6,34.5c9,5.1,14.1,9,9,12.8
			s-9,12.8-5.1,15.4c3.8,2.6,5.1,6.4,3.8,6.4h-38.4c0,0,7.7-19.2-3.8-24.3c-11.5-5.1-5.1-17.9-5.1-17.9l-85.7-250.8l-67.8,230.3
			c0,0,11.5,7.7,2.6,11.5c-9,3.8-12.8-3.8-9,3.8c3.8,7.7-1.3,11.5-1.3,12.8c0,1.3-38.4-3.8-38.4-3.8s19.2-16.6,10.2-20.5
			c-9-3.8-12.8-7.7-10.2-10.2s12.8-26.9,12.8-26.9s5.1-92.1,6.4-96c1.3-3.8,0-21.8,0-30.7s-1.3-44.8,2.6-53.7
			c3.8-9,7.7-119,28.1-131.8C970.1,612.8,1099.3,614.1,1099.3,614.1z"/>
		<path class="st2" d="M936.8,992.8c0,0,25.6,52.5,7.7,58.9c-17.9,6.4-40.9,1.3-46.1,9c-5.1,7.7-61.4,16.6-62.7-2.6
			c-1.3-19.2,61.4-55,61.4-55l8.2-13.2L936.8,992.8z"/>
		<path class="st2" d="M1144.1,1031.2c0,0,25.6,52.5,7.7,58.9c-17.9,6.4-40.9,1.3-46.1,9c-5.1,7.7-61.4,16.6-62.7-2.6
			c-1.3-19.2,61.4-55,61.4-55l8.2-13.2L1144.1,1031.2z"/>
		<circle class="st0" cx="1025.8" cy="330.7" r="42.2"/>
		<polygon class="st0" points="1054.6,353.1 1049.4,390.2 1011.1,419.6 1000.8,405.5 1000.8,356.9 		"/>
		<path class="st3" d="M994.4,400.4c0,0,39.7,3.8,60.1-10.2l40.9,241.8c0,0-144.6,11.5-151,3.8v-75.5l25.6-122.8L994.4,400.4z"/>
		<path class="st1" d="M1051,378.6l13.8,11.6c0,0,56.3,9,52.5,24.3l-15.4,181.7l5.1,61.4c0,0-43.5-11.5-76.8,0s-6.8-247.5-6.8-247.5
			S1053.9,382.4,1051,378.6z"/>
		<path class="st1" d="M1000.8,392.6c0,0-40.9,29.5-46.1,48.7c-5.1,19.2-21.8,221.3-21.8,221.3s7.7-3.8,11.5,2.6
			C948.4,671.7,1007.2,402.8,1000.8,392.6z"/>
		<path class="st0" d="M1113.4,660.2l-9.2,29.9c0,0-2.3,55.8-33.1,48.1c-30.7-7.7,9-72.9,9-72.9l9-14.1L1113.4,660.2z"/>
		<path class="st2" d="M983.6,328.9c0,0-4.6-6.9-2.8-14.2c1.1-4.2,1.5-8.5,1.2-12.8c0,0,3.7-12,7.4-18.6s1.9-9.5,13.5-11.6
			c11.6-2.1,6.9-17.2,37.4-0.9c2.1,2.9,5.8,4.3,9.3,3.5c6.3-1.2,8.6,7.6,8.6,7.6s4.2-2.5,5.8,1.1c1.6,3.5,12.9-2.1,12.9,21.6
			c0,23.7-12.8,44.9-12.8,44.9s0.9-39.9-20-44c-20.9-4-43.4-15.8-48.9-0.7C992.3,313.2,988.4,321.3,983.6,328.9z"/>
		<ellipse class="st0" cx="1064.6" cy="332.8" rx="4.1" ry="5.5"/>
		<path class="st1" d="M1107,405.5c0,0,20.5-5.1,26.9,29.4c6.4,34.5,14.1,133.1,14.1,133.1l-30.7,103.6c0,0-30.7-16.6-37.1-14.1
			l24.2-90l-20.3-91.7C1084,475.9,1101.9,405.5,1107,405.5z"/>
		<polygon class="st4" points="1077.2,477.7 1104.1,567.2 1077.2,658.1 1092.6,567.2 		"/>
	</g>
	<g>
		<path class="st3" d="M351.2,673c-3.5,0-7.1-0.1-10.7-0.2l0.1-2.6c5.1,0.2,10.2,0.2,15.3,0.1l0,2.6C354.3,673,352.7,673,351.2,673z
			 M371.3,672.4l-0.1-2.6c5.1-0.3,10.2-0.7,15.2-1.2l0.3,2.5C381.6,671.7,376.4,672.1,371.3,672.4z M325.1,672
			c-5.1-0.4-10.3-0.9-15.3-1.5l0.3-2.5c5,0.6,10.1,1.1,15.2,1.5L325.1,672z M401.9,669.2l-0.4-2.5c5-0.8,10.1-1.6,15.1-2.6l0.5,2.5
			C412.1,667.5,407,668.4,401.9,669.2z M294.5,668.2c-5-0.9-10.1-1.8-15.1-2.9l0.5-2.5c5,1.1,10,2.1,15,2.9L294.5,668.2z
			 M432.2,663.2l-0.6-2.5c4.9-1.2,9.9-2.6,14.8-4l0.7,2.5C442.1,660.6,437.1,662,432.2,663.2z M264.4,661.7
			c-4.9-1.3-9.9-2.8-14.8-4.3l0.8-2.4c4.8,1.5,9.8,3,14.7,4.3L264.4,661.7z M461.7,654.4l-0.8-2.4c4.8-1.7,9.6-3.5,14.3-5.4l0.9,2.4
			C471.4,650.9,466.5,652.7,461.7,654.4L461.7,654.4z M235,652.4c-4.8-1.8-9.6-3.7-14.4-5.7l1-2.4c4.7,2,9.5,3.9,14.3,5.6L235,652.4
			z M490.3,643l-1.1-2.3c4.6-2.1,9.2-4.3,13.7-6.6l1.2,2.3C499.5,638.6,494.9,640.9,490.3,643L490.3,643z M517.6,629l-1.3-2.2
			c4.4-2.5,8.8-5.2,13.1-7.9l1.4,2.2C526.5,623.8,522.1,626.5,517.6,629L517.6,629z M543.6,612.5l-1.5-2.1c4.2-2.9,8.3-5.9,12.3-9
			l1.6,2C552,606.6,547.8,609.6,543.6,612.5z M153.6,608.9c-4.1-3-8.3-6.1-12.3-9.3l1.6-2c4,3.2,8.1,6.3,12.2,9.3L153.6,608.9z
			 M568,593.8l-1.6-2c3.9-3.3,7.7-6.7,11.5-10.1l1.7,1.9C575.8,587.1,571.9,590.5,568,593.8z M129.5,589.7
			c-3.8-3.4-7.7-6.9-11.4-10.4l1.8-1.8c3.7,3.5,7.5,7,11.3,10.3L129.5,589.7z M590.7,572.9l-1.8-1.8c3.6-3.6,7.1-7.4,10.5-11.1
			l1.9,1.7C597.8,565.5,594.3,569.2,590.7,572.9z M107.3,568.4c-3.5-3.7-7-7.5-10.4-11.4l1.9-1.7c3.3,3.8,6.8,7.6,10.3,11.3
			L107.3,568.4z M611.3,550l-2-1.6c3.2-3.9,6.4-8,9.4-12l2,1.5C617.7,541.9,614.5,546,611.3,550L611.3,550z M87.1,545.1
			c-3.2-4-6.3-8.1-9.3-12.3l2.1-1.5c3,4.1,6.1,8.2,9.2,12.2L87.1,545.1z M629.7,525.3l-2.1-1.4c2.9-4.2,5.6-8.5,8.3-12.9l2.2,1.3
			C635.4,516.7,632.6,521.1,629.7,525.3L629.7,525.3z M69.1,520.1c-2.8-4.3-5.5-8.7-8.1-13.1l2.2-1.3c2.6,4.4,5.3,8.7,8.1,13
			L69.1,520.1z M645.9,499l-2.2-1.2c2.5-4.4,4.8-9,7.1-13.6l2.3,1.1C650.8,489.9,648.4,494.5,645.9,499z M659.5,471.3l-2.3-1
			c2-4.7,4-9.4,5.8-14.2l2.4,0.9C663.6,461.8,661.6,466.7,659.5,471.3z M40.4,465.8c-2-4.7-3.8-9.5-5.6-14.3l2.4-0.9
			c1.7,4.8,3.6,9.5,5.5,14.2L40.4,465.8z M670.6,442.5l-2.4-0.8c1.6-4.8,3.1-9.7,4.5-14.6l2.5,0.7
			C673.7,432.7,672.2,437.7,670.6,442.5z M29.9,436.9c-1.5-4.9-3-9.9-4.3-14.8l2.5-0.6c1.3,4.9,2.7,9.9,4.2,14.7L29.9,436.9z
			 M679,412.9l-2.5-0.6c1.1-4.9,2.2-10,3.1-15l2.5,0.5C681.2,402.8,680.1,407.9,679,412.9L679,412.9z M22.1,407.1
			c-1.1-5-2-10.1-2.9-15.1l2.5-0.4c0.8,5,1.8,10.1,2.8,15L22.1,407.1z M684.5,382.6l-2.5-0.3c0.7-5,1.3-10.1,1.7-15.2l2.5,0.2
			C685.8,372.4,685.2,377.5,684.5,382.6L684.5,382.6z M17,376.7c-0.6-5.1-1.1-10.2-1.5-15.3l2.6-0.2c0.4,5.1,0.9,10.2,1.5,15.2
			L17,376.7z M687.3,351.9l-2.6-0.1c0.2-5.1,0.3-10.2,0.3-15.3h2.6C687.7,341.6,687.5,346.8,687.3,351.9z M14.8,346
			c-0.1-3.1-0.1-6.3-0.1-9.5c0-2,0-3.9,0.1-5.9l2.6,0c0,1.9-0.1,3.9-0.1,5.9c0,3.1,0,6.3,0.1,9.4L14.8,346z M17.9,315.4l-2.6-0.2
			c0.3-5.1,0.8-10.3,1.3-15.3l2.5,0.3C18.6,305.2,18.2,310.3,17.9,315.4L17.9,315.4z M683.4,299.8c-0.5-5-1.2-7.5-2-12.5l2.5-0.4
			c0.7,5.1,1.4,8.9,1.9,14L683.4,299.8z M21.2,285l-2.5-0.4c0.8-5.1,1.7-10.2,2.7-15.2l2.5,0.5C22.9,274.9,22,280,21.2,285z
			 M678.9,272.2c-1-5-2.1-10-3.3-14.9l2.5-0.6c1.2,5,2.3,10,3.3,15L678.9,272.2z M27.2,255l-2.5-0.6c1.2-5,2.6-10,4.1-14.9l2.5,0.7
			C29.8,245.1,28.5,250.1,27.2,255z M671.7,242.5c-1.4-4.9-3-9.8-4.6-14.6l2.4-0.8c1.7,4.8,3.2,9.8,4.7,14.7L671.7,242.5z M36,225.7
			l-2.4-0.8c1.7-4.8,3.5-9.7,5.5-14.4l2.4,1C39.6,216.1,37.7,220.9,36,225.7L36,225.7z M661.7,213.6c-1.9-4.7-3.9-9.4-5.9-14
			l2.3-1.1c2.1,4.6,4.1,9.4,6,14.2L661.7,213.6z M47.5,197.3l-2.3-1.1c2.1-4.7,4.4-9.3,6.8-13.9l2.3,1.2
			C51.9,188,49.6,192.7,47.5,197.3z M649.2,185.7c-2.3-4.5-4.7-9-7.2-13.5l2.2-1.3c2.5,4.4,5,9,7.3,13.6L649.2,185.7z M61.6,170.1
			l-2.2-1.3c2.6-4.4,5.2-8.9,8-13.2l2.2,1.4C66.8,161.3,64.1,165.7,61.6,170.1L61.6,170.1z M634.2,159.2c-2.7-4.3-5.5-8.6-8.4-12.7
			l2.1-1.5c2.9,4.2,5.8,8.5,8.5,12.8L634.2,159.2z M78,144.3l-2.1-1.5c2.9-4.2,6-8.4,9.2-12.4l2,1.6C84,136,81,140.1,78,144.3z
			 M616.8,134.1c-3.1-4-6.3-8.1-9.5-11.9l2-1.6c3.3,3.9,6.5,8,9.6,12L616.8,134.1z M96.8,120.1l-1.9-1.7c3.3-3.9,6.8-7.8,10.3-11.5
			l1.9,1.7C103.5,112.4,100.1,116.3,96.8,120.1z M597.1,110.7c-3.4-3.7-7-7.4-10.6-11l1.8-1.8c3.6,3.6,7.2,7.3,10.7,11.1
			L597.1,110.7z M117.7,97.8l-1.8-1.8c3.7-3.6,7.4-7.1,11.3-10.5l1.7,1.9C125,90.7,121.3,94.2,117.7,97.8z M575.5,89.1
			c-3.8-3.4-7.7-6.8-11.6-10l1.6-2c3.9,3.3,7.9,6.6,11.6,10.1L575.5,89.1z M140.5,77.4l-1.6-2c4-3.2,8-6.4,12.2-9.4l1.5,2.1
			C148.4,71.1,144.4,74.2,140.5,77.4z M165,59.2l-1.4-2.1c4.2-2.9,8.6-5.6,13-8.3l1.3,2.2C173.5,53.6,169.2,56.4,165,59.2z
			 M191.1,43.4l-1.2-2.2c4.5-2.5,9.1-4.8,13.7-7.1l1.1,2.3C200.1,38.6,195.5,40.9,191.1,43.4z M499.9,37.4
			c-4.6-2.3-9.2-4.5-13.9-6.5l1-2.3c4.7,2.1,9.4,4.3,14,6.6L499.9,37.4z M218.5,30l-1-2.3c4.7-2,9.5-4,14.2-5.8l0.9,2.4
			C227.9,26,223.1,27.9,218.5,30z M471.9,25c-4.7-1.8-9.6-3.6-14.4-5.2l0.8-2.4c4.9,1.6,9.7,3.4,14.5,5.3L471.9,25z M247,19.1
			l-0.8-2.4c4.9-1.6,9.8-3.1,14.7-4.5l0.7,2.5C256.8,16,251.9,17.5,247,19.1z M442.9,15.3c-4.9-1.4-9.9-2.7-14.8-3.9l0.6-2.5
			c5,1.2,10,2.5,14.9,3.9L442.9,15.3z M276.5,10.9l-0.6-2.5c5-1.1,10.1-2.2,15.1-3.1l0.5,2.5C286.5,8.8,281.4,9.8,276.5,10.9z
			 M413.1,8.3c-5-0.9-10.1-1.8-15.1-2.5l0.4-2.5c5.1,0.7,10.2,1.5,15.2,2.5L413.1,8.3z M306.6,5.5L306.2,3
			c5.1-0.7,10.2-1.2,15.3-1.7l0.2,2.5C316.7,4.3,311.6,4.8,306.6,5.5z M382.8,4c-5-0.5-10.2-0.8-15.2-1.1l0.1-2.6
			c5.1,0.2,10.3,0.6,15.4,1.1L382.8,4z M337,2.9l-0.1-2.6c4.7-0.2,9.5-0.3,14.2-0.3l1.2,0l0,2.6l-1.2,0C346.4,2.6,341.7,2.7,337,2.9
			L337,2.9z"/>
		<path class="st3" d="M762.9,120.5v829.3c0,20.6-16.7,37.2-37.3,37.2H388.9c-20.5,0-37.2-16.6-37.3-37.1c0,0,0-0.1,0-0.1V120.5
			c0-20.6,16.7-37.3,37.3-37.3c0,0,0,0,0,0h50.4v6.5c0,16.9,13.7,30.7,30.7,30.7h171.2c6.6,0,12.9-2.1,18.2-6c1.1-0.8,2.1-1.6,3-2.5
			c6.1-5.8,9.5-13.8,9.5-22.2v-6.5h53.7C746.2,83.3,762.9,99.9,762.9,120.5C762.9,120.5,762.9,120.5,762.9,120.5z"/>
		<rect x="400.9" y="382.2" class="st5" width="312.8" height="238"/>
		<path class="st5" d="M236.1,342.1c27.8,0.6,50,20.8,50,20.8s-23,19.2-50.8,18.6c-27.8-0.6-50-20.8-50-20.8
			S208.3,341.5,236.1,342.1z"/>
		<path class="st5" d="M96.1,247.1c25.2,12,54,3.8,54,3.8s-11.9-27.5-37.1-39.4c-25.2-12-54-3.8-54-3.8S71,235.1,96.1,247.1z"/>
		<path class="st3" d="M98.7,235.2c27.7-2.5,52,15,52,15s-20.7,21.7-48.4,24.2s-52-15-52-15S71,237.7,98.7,235.2z"/>
		<path class="st3" d="M200.4,240c-2.7,27.7,14.8,52.1,14.8,52.1s21.8-20.6,24.4-48.3s-14.8-52.1-14.8-52.1S203,212.3,200.4,240z"/>
		<path class="st3" d="M331,410c-14.5,23.8-9.5,53.3-9.5,53.3s28.6-9,43.1-32.7s9.5-53.3,9.5-53.3S345.6,386.3,331,410z"/>
		<path class="st3" d="M288.8,668.3l2.1-1.4c-7.5-10.8-11.6-23.7-11.7-36.8c0.1-19.3,9.5-37.1,18.7-54.3c1.7-3.2,3.4-6.4,5-9.6
			c6.8-13,12.3-26.7,16.3-40.8c14.2-52.8,0.2-115-37.4-166.5c-29.8-40.9-74.3-76.6-135.9-109.2l-1.2,2.3
			c61.3,32.4,105.5,67.9,135.1,108.5c37.2,50.9,51,112.3,37,164.3c-3.9,14-9.3,27.5-16.1,40.3c-1.6,3.2-3.3,6.4-5,9.5
			c-9.3,17.5-18.9,35.6-19,55.5C276.8,643.7,281.1,657,288.8,668.3z"/>
		<circle class="st3" cx="24.3" cy="228.7" r="24.3"/>
		<polygon class="st5" points="366.5,623.3 213.9,610.6 213.9,386.8 366.5,379.1 		"/>
		<polygon class="st5" points="748,623.3 900.6,610.6 900.6,386.8 748,379.1 		"/>
		<path class="st6" d="M610.3,471.6c-9.3-8-22.5-9.7-33.5-4.3c-4.7,2.3-9.7,3.7-14.9,4.2c-0.1-11.2,1.9-22.3,6-32.6l0.7-1.7h-9
			l-0.3,0.9c-1,3.7-1.8,7.4-2.4,11.2c-0.5-1.6-1.1-3.2-1.9-4.7c-6.3-12.5-20.8-17.6-21.4-17.8l-1.2-0.4l-0.4,1.2
			c-0.2,0.6-4.7,15.3,1.6,27.8c4.5,8.9,13.2,14.1,18.1,16.4c-6.1-0.4-12.1-2-17.6-4.7c-7-3.6-15.4-2.9-21.7,1.8
			c-16.7,12.7-26.4,31.4-26.4,51.2c0,26,16.8,49.8,42.9,60.7c2.4,1,4.9,1.5,7.4,1.5c3.5,0,7-1,10-2.8c8.2-4.8,18.4-4.8,26.6-0.1
			c5.3,3.1,11.8,3.6,17.5,1.2c25.9-10.9,42.7-34.7,42.7-60.6C633.3,501.5,625.1,484.3,610.3,471.6z M561.7,439.7h3.3
			c-3.7,9.9-5.6,20.4-5.6,31h-0.6C558,460.3,559,449.8,561.7,439.7L561.7,439.7z M536,454.2c-4.8-9.5-2.7-20.8-1.8-24.6
			c3.6,1.5,13.9,6.5,18.7,16c4.8,9.5,2.7,20.8,1.8,24.6C551.1,468.7,540.8,463.7,536,454.2L536,454.2z M589.7,578.3
			c-5,2-10.6,1.6-15.2-1.1c-9-5.2-20.2-5.2-29.2,0.1c-4.6,2.7-10.2,3.2-15.2,1.1c-25.1-10.5-41.3-33.3-41.3-58.3
			c0-19,9.2-36.9,25.3-49.1c3.1-2.3,6.9-3.6,10.7-3.6c2.9,0,5.7,0.7,8.2,2c14.2,6.8,30.7,6.9,44.9,0.3c10.1-5,22.2-3.4,30.7,3.9
			c14.3,12.2,22.1,28.8,22.1,46.6C630.8,544.9,614.6,567.8,589.7,578.3L589.7,578.3z"/>
		<path class="st6" d="M289.8,447.4v-3h1.2V435c0-1.4-0.8-2.7-2-3.4c-5.3-2.8-11-2.8-16.9,0c-1.3,0.6-2.2,2-2.2,3.5v9.3h1.2v2.7
			c-9,2.5-15.3,10.8-15.2,20.2v20.2l2.3,0.8l-2.3,1.5v6.1l2.3,0.8l-2.3,1.5v6.1l2.3,0.8l-2.3,1.5v46.3c0,7.5,6.1,13.6,13.6,13.6
			h20.1c7.5,0,13.6-6.1,13.6-13.6v-46.4L301,505l2.3-0.8v-6.1l-2.3-1.5l2.3-0.8v-6.1l-2.3-1.5l2.3-0.8v-21.3
			C303.2,457.7,297.8,450.2,289.8,447.4z M273.2,434c5.2-2.4,10-2.5,14.6-0.1c0.4,0.2,0.7,0.6,0.6,1.1v5h-16v-4.9
			C272.5,434.6,272.8,434.2,273.2,434z M300.7,485.7l-5.5,1.8l5.5,3.7v2.9l-5.5,1.8l5.5,3.7v2.9l-5.5,1.8l5.5,3.7v45
			c0,6.1-4.9,11-11,11h-20.1c-6.1,0-11.1-5-11.1-11.1v-45l5.5-3.7l-5.5-1.8v-2.9l5.5-3.7l-5.5-1.8v-2.9l5.5-3.7l-5.5-1.8v-18.4
			c0-8.6,5.9-16,14.2-17.9l1-0.2v-4.7h13.6v4.9l0.9,0.3c7.4,2.2,12.5,9,12.5,16.7V485.7z"/>
		<path class="st6" d="M891.2,482.4l-6.4-1.3l1.5-3l-3-0.6l0.5-3.1l-3.2-0.5V471l-2.6-0.7l2.5-3.1h-4.3l0.9-2.2l-3.2-0.5l1.1-3.8
			h-3.4V457h-1.3c-4,0-6.3,4.8-7,6.7c-22.3,3.9-86.9,48.6-94.2,53.8c-3.1-1-7.6,1.3-8.6,1.9l-1.5,0.8l2.2,2.2l-0.6,1.9l4,1.5
			l-0.9,2.2l2.5,2.1l-2.2,1.7l3.4,2l-0.6,3l3.8,0.5v3l2.2,0.4l-1.1,3.8h2.4v3h2.4l1.1,3.2l1.1-0.2c2.6-0.5,4.8-4.1,5.6-5.7
			c21.4-3.8,87.6-50.4,94-54.9c7.5,0.9,10.3-1.1,10.6-1.3l1.2-1l-2.9-2.4L891.2,482.4z M878,487.4l-0.5-0.1l-0.4,0.3
			c-0.7,0.5-73.3,51.9-94,54.9l-0.7,0.1l-0.3,0.6c-0.8,1.6-1.9,3.1-3.2,4.3l-0.8-2.5h-1.7v-3h-1.6l0.9-3.2l-2.9-0.6V535l-3.3-0.5
			l0.4-2.1l-1.7-1l1.8-1.3l-3.6-3l1.2-2.9l-4.1-1.5l0.4-1.1l-0.8-0.8c1.9-0.8,4.2-1.4,5.2-0.8l0.7,0.4l0.7-0.5
			c0.7-0.5,72.8-50.9,94.5-53.9l0.8-0.1l0.2-0.8c0.4-1.2,1.7-4.3,3.6-5.3v3.2h2.6l-0.9,3.3l2.9,0.5l-1.1,2.8h2.8l-1.6,2l4.5,1.3v3.2
			l2.8,0.5l-0.5,3l2.1,0.4l-1.5,3l3.7,0.7l-1.9,1.3l2.7,2.3C883,487.7,880.5,487.8,878,487.4z"/>
		<circle class="st5" cx="557.2" cy="691.9" r="37.1"/>
		<polygon class="st6" points="580.6,688.2 560.9,688.2 560.9,668.5 553.6,668.5 553.6,688.2 533.9,688.2 533.9,695.5 553.6,695.5 
			553.6,715.2 560.9,715.2 560.9,695.5 580.6,695.5 		"/>
		<polygon class="st6" points="674.3,693.1 655.1,684.2 655.1,689.3 610.3,689.3 610.3,697 655.1,697 655.1,702.1 		"/>
		<polygon class="st6" points="440.2,693.1 459.4,684.2 459.4,689.3 504.2,689.3 504.2,697 459.4,697 459.4,702.1 		"/>
		<rect x="434.4" y="204.4" class="st6" width="245.7" height="2.6"/>
		<rect x="435" y="903" class="st6" width="245.7" height="2.6"/>
	</g>
</g>
</svg>
