<?xml version="1.0" encoding="utf-8"?>
<!-- Generator: Adobe Illustrator 24.0.1, SVG Export Plug-In . SVG Version: 6.00 Build 0)  -->
<svg version="1.1" id="f9eb83fe-2109-496c-8de2-d29751931755"
	 xmlns="http://www.w3.org/2000/svg" xmlns:xlink="http://www.w3.org/1999/xlink" x="0px" y="0px" viewBox="0 0 1092.8 625.3"
	 style="enable-background:new 0 0 1092.8 625.3;" xml:space="preserve">
<style type="text/css">
	.st0{fill:#3D5499;}
	.st1{fill:#6ABFBC;}
	.st2{fill:#FFFFFF;}
	.st3{opacity:0.8;fill:#FA5959;enable-background:new    ;}
	.st4{opacity:0.8;fill:#FED253;enable-background:new    ;}
	.st5{opacity:0.8;fill:#8CCF4D;enable-background:new    ;}
	.st6{opacity:5.000000e-02;enable-background:new    ;}
	.st7{fill:#46A59E;}
	.st8{fill:url(#SVGID_1_);}
	.st9{fill:#FBBEBE;}
	.st10{fill:#3F3D56;}
	.st11{opacity:0.1;enable-background:new    ;}
	.st12{fill:#33487C;}
	.st13{fill:#33313F;}
	.st14{opacity:0.1;}
</style>
<title>authentication</title>
<g>
	<g>
		<path class="st0" d="M177.4,437.1c15.5,2.8,20.6-2.8,20.6-2.8c-11.4-6.7-25.2-1.5-25.2-1.5L177.4,437.1z"/>
		<path class="st0" d="M176.2,436.8c3.3,13.1-3.5,17.3-3.5,17.3c-7.9-9.7-1.6-21.3-1.6-21.3L176.2,436.8z"/>
		<path class="st0" d="M176.4,424.6c10.4-1.8,11.6-8.5,11.6-8.5c-27.1-7.4-30.1,2.9-30.1,2.9C162.1,423.1,166,426.4,176.4,424.6z"/>
		<path class="st0" d="M161.1,434.7c-3.1,8.6-11.2,8.9-11.2,8.9c-6.1-23.5,6.3-25,6.3-25C160.7,422.5,164.2,426.1,161.1,434.7z"/>
		<path class="st0" d="M147.6,406.5c24.6-0.6,25.6-16.3,25.6-16.3c-28-5.8-29.8,11.5-29.8,11.5L147.6,406.5z"/>
		<path class="st0" d="M132.2,385c28,2.5,31.2-14.3,31.2-14.3c-27.2-9.8-35,9-35,9L132.2,385z"/>
		<path class="st0" d="M120,361.6c26,4,36.1-12,36.1-12c-27-9.6-37.2,8.3-37.2,8.3L120,361.6z"/>
		<path class="st0" d="M110.8,340.1c22.3,4.8,35.1-12.5,35.1-12.5c-26-9.7-36.2,9-36.2,9L110.8,340.1z"/>
		<path class="st0" d="M106.1,320.6c21.1,2.6,32.7-18.1,32.7-18.1c-24.2-8.9-33.9,14.3-33.9,14.3L106.1,320.6z"/>
		<path class="st0" d="M102.7,297c19.2,5.1,33.7-16.2,33.7-16.2c-24.2-10.6-34.9,12.7-34.9,12.7L102.7,297z"/>
		<path class="st0" d="M101.5,277c18.5-0.3,33.1-24.4,33.1-24.4c-19.7-3.5-33.8,19.3-33.8,19.3L101.5,277z"/>
		<path class="st0" d="M101.4,255.8c20.5-6.5,31.9-27.7,31.9-27.7c-15.7-4.5-31.6,23.1-31.6,23.1L101.4,255.8z"/>
		<path class="st0" d="M103.9,233.1c20.1-5,31.3-27.9,31.3-27.9c-16.1-1.3-30.4,21.6-30.4,21.6L103.9,233.1z"/>
		<path class="st0" d="M107.6,208c17.1-2.6,27-25.7,27-25.7c-10.6-0.9-27.3,21.6-27.3,21.6L107.6,208z"/>
		<path class="st0" d="M110.9,184.9c17.1-6.8,22.8-28.1,22.8-28.1c-10.9,0.7-23.5,26-23.5,26L110.9,184.9z"/>
		<path class="st0" d="M112.7,160.1c13.4-2.8,20-27.3,20-27.3c-9.1,2-21,21.9-21,21.9L112.7,160.1z"/>
		<path class="st0" d="M111.9,142.8c16.3-13.7,6-43.8,6-43.8l-5.8,37.2L111.9,142.8z"/>
		<path class="st0" d="M110.8,110.1c6.7-22.2-12.3-42.9-12.3-42.9c2.5,1.9,8.5,30.5,8.5,30.5L110.8,110.1z"/>
		<path class="st0" d="M146.4,406.5c-9.9,19-27.6,13.9-27.6,13.9c4.2-24.1,23.9-19,23.9-19L146.4,406.5z"/>
		<path class="st0" d="M131.4,384.3c-11,21.9-29.9,16.2-29.9,16.2c3-24.8,26.2-21.5,26.2-21.5L131.4,384.3z"/>
		<path class="st0" d="M119.4,363.2c-20.3,14.3-38.4,4.6-38.4,4.6c17.8-19.6,37.2-8.3,37.2-8.3L119.4,363.2z"/>
		<path class="st0" d="M110.3,340.3c-16.6,13.5-37.9,3.7-37.9,3.7c16.9-19.3,36.7-7.3,36.7-7.3L110.3,340.3z"/>
		<path class="st0" d="M105.3,321.3c-19.1,7.8-37.6-9-37.6-9c20-14.6,37.4,5.1,37.4,5.1L105.3,321.3z"/>
		<path class="st0" d="M102.9,296.7c-16.9,9.2-37.6-8.2-37.6-8.2c20-15.6,37.5,4.5,37.5,4.5L102.9,296.7z"/>
		<path class="st0" d="M101.9,276.6C83.5,275,71.3,250,71.3,250c19.9-2.1,31.8,21.6,31.8,21.6L101.9,276.6z"/>
		<path class="st0" d="M101.8,255.8c-19.1-9-26.7-31.4-26.7-31.4c16.3-2.5,27.2,26.8,27.2,26.8L101.8,255.8z"/>
		<path class="st0" d="M106.6,231.9c-19.7-6.1-29-29.6-29-29.6c16.2-0.4,28.6,23.2,28.6,23.2L106.6,231.9z"/>
		<path class="st0" d="M107.5,207.6c-15.5-6.7-17-31.2-17-31.2c10.5,1.7,18.7,27.3,18.7,27.3L107.5,207.6z"/>
		<path class="st0" d="M110,184.3c-16.2-8.1-19.5-29.8-19.5-29.8c10.8,1.6,20.4,27.7,20.4,27.7L110,184.3z"/>
		<path class="st0" d="M111.5,161.6c-12.5-5-13-30.1-13-30.1c8.5,3.5,15.3,25,15.3,25L111.5,161.6z"/>
		<path class="st0" d="M113.3,141.7C93.1,132.3,93,101,93,101l17.9,34.3L113.3,141.7z"/>
		<path class="st0" d="M101.9,90.6C92,64.9,65.8,60.1,65.8,60.1c8.2,1.1,35.1,31.7,35.1,31.7L101.9,90.6z"/>
		<path class="st1" d="M100.5,89.6l-0.6,0.9c9.4,4.3,13.5,29.1,11.6,69.8l1.2,0C114.7,118.6,110.4,94.2,100.5,89.6z"/>
		<path class="st1" d="M104,245.4c4.9-33.3,7.7-64.9,8.8-88.2l-1.2,0.9c-1.1,23.2-4.5,53.8-9.4,87c-0.6,3.8-1,7.7-1.4,11.4l1.8,0.1
			C103,253.1,103.4,249.2,104,245.4z"/>
		<path class="st1" d="M203.2,454.6c-0.3-0.2-28.7-16.1-55.2-48.3c-24.4-29.8-52.1-82-45.3-151.6l-1.7-1c-3,31-0.2,63.8,9.6,91.6
			c7.8,22.2,19.8,43.2,35.5,62.3c26.7,32.5,55.5,48.7,55.8,48.8L203.2,454.6z"/>
	</g>
	<g>
		<path class="st0" d="M174.5,440.4c7.6-5,7.8-8.8,7.8-8.8c-7.1,2.2-11.3,9.1-11.3,9.1L174.5,440.4z"/>
		<path class="st0" d="M173.9,440.8c5.8,3,4.4,7,4.4,7c-6.6-0.1-7.9-6.3-7.9-6.3L173.9,440.8z"/>
		<path class="st0" d="M169.9,436.7c3.8-4.5,2.1-7.2,2.1-7.2c-14,7.9-11.8,12.4-11.8,12.4C163.2,441.7,166,441.3,169.9,436.7z"/>
		<path class="st0" d="M166.7,445.9c1.5,4-1.8,7.2-1.8,7.2c-10.5-5.3-5.7-10.6-5.7-10.6C162.5,442.1,165.2,441.9,166.7,445.9z"/>
		<path class="st0" d="M151.5,441.8c10.3-9.6,5.4-15.1,5.4-15.1c-13.9,8.8-8.8,15.2-8.8,15.2L151.5,441.8z"/>
		<path class="st0" d="M137.7,440.7c12.8-9.9,8.5-16.6,8.5-16.6c-14.9,7.2-11.9,16.3-11.9,16.3L137.7,440.7z"/>
		<path class="st0" d="M124.6,437.7c12.4-8.6,11.3-17.7,11.3-17.7c-14.7,7.2-13.1,16.9-13.1,16.9L124.6,437.7z"/>
		<path class="st0" d="M113.5,434.2c11.1-7,10.7-17.5,10.7-17.5c-14.3,6.8-12.4,16.8-12.4,16.8L113.5,434.2z"/>
		<path class="st0" d="M104.9,429.6c9.9-7.2,7.9-18.4,7.9-18.4c-13.3,6.4-9.6,17.6-9.6,17.6L104.9,429.6z"/>
		<path class="st0" d="M95.5,423.2c9.9-5.6,8.9-18.2,8.9-18.2c-13.9,5.8-10.6,17.5-10.6,17.5L95.5,423.2z"/>
		<path class="st0" d="M88.3,417.1c7.8-7.1,5.9-20.6,5.9-20.6c-9.5,6.4-7.9,19.2-7.9,19.2L88.3,417.1z"/>
		<path class="st0" d="M81.1,410.3c6.5-9.9,4.3-21.2,4.3-21.2c-8.2,4.5-5.7,19.6-5.7,19.6L81.1,410.3z"/>
		<path class="st0" d="M74.5,401.9c6.9-9.3,4-21.1,4-21.1c-7.3,5.7-5.7,18.7-5.7,18.7L74.5,401.9z"/>
		<path class="st0" d="M67.6,392.3c6.4-7.4,2.9-18.7,2.9-18.7c-4.8,3.7-4.3,17.5-4.3,17.5L67.6,392.3z"/>
		<path class="st0" d="M61.2,383.4c5-8.7,0.3-17.9,0.3-17.9c-4.4,4.4-1.3,17.4-1.3,17.4L61.2,383.4z"/>
		<path class="st0" d="M53.6,374.6c4.8-6-0.6-16.6-0.6-16.6c-3.2,4.1-1.6,15.2-1.6,15.2L53.6,374.6z"/>
		<path class="st0" d="M47.5,369.3c2.3-10.7-12.2-16.6-12.2-16.6l10,14.4L47.5,369.3z"/>
		<path class="st0" d="M36,359c-4.6-9.8-19.7-9.3-19.7-9.3c1.7-0.3,13.9,6.7,13.9,6.7L36,359z"/>
		<path class="st0" d="M151,442.3c2.2,10-7.1,15.1-7.1,15.1c-6.3-9.5,3.8-15.3,3.8-15.3L151,442.3z"/>
		<path class="st0" d="M137.1,440.8c2.7,11.4-7.3,16.7-7.3,16.7c-7.1-9.2,3.9-17,3.9-17L137.1,440.8z"/>
		<path class="st0" d="M124.9,438.5c-3.8,12.4-14.8,16.2-14.8,16.2c1-13.2,13.1-16.9,13.1-16.9L124.9,438.5z"/>
		<path class="st0" d="M113.3,434.5c-2.6,10.8-14.9,15.7-14.9,15.7c0.7-12.7,13.2-16.4,13.2-16.4L113.3,434.5z"/>
		<path class="st0" d="M104.8,430.2c-5.5,9.9-19.1,11.4-19.1,11.4c3.6-12.4,17.7-12.6,17.7-12.6L104.8,430.2z"/>
		<path class="st0" d="M95.5,423.1c-4.1,9.5-18.8,11.7-18.8,11.7c3.3-12.8,17.5-12.9,17.5-12.9L95.5,423.1z"/>
		<path class="st0" d="M88.3,416.9c-8.4,6.5-22,3-22,3c7.8-8.3,20.8-5.1,20.8-5.1L88.3,416.9z"/>
		<path class="st0" d="M81.2,410.1c-11.2,4.4-21.9-0.1-21.9-0.1c6.1-7.1,20.6-1.6,20.6-1.6L81.2,410.1z"/>
		<path class="st0" d="M75.2,400.4c-10.4,5.5-22.3,1.4-22.3,1.4c6.8-6.3,20-3.4,20-3.4L75.2,400.4z"/>
		<path class="st0" d="M67.5,392.2c-8.9,3.7-17.8-3.7-17.8-3.7c5-3.5,17.2,1.8,17.2,1.8L67.5,392.2z"/>
		<path class="st0" d="M60.6,383.6c-9.7,3.5-18.3-2.3-18.3-2.3c5.1-3.6,18,1.3,18,1.3L60.6,383.6z"/>
		<path class="st0" d="M53.7,375.6c-7,3.1-15.7-4.9-15.7-4.9c4.8-2.1,14.9,2.3,14.9,2.3L53.7,375.6z"/>
		<path class="st0" d="M47.7,368.4c-11.7,4.6-22.3-5.6-22.3-5.6l19.2,4.4L47.7,368.4z"/>
		<path class="st0" d="M25.7,356C12.8,351.4,0,359.9,0,359.9c3.9-2.8,25.6-3,25.6-3L25.7,356z"/>
		<path class="st1" d="M24.7,356.3l0.1,0.5c5.4-2.2,15.5,4.4,28.4,18.4l0.5-0.4C40.5,360.3,30.5,354,24.7,356.3z"/>
		<path class="st1" d="M78.7,405.9c-9.1-12.7-18.6-24.2-25.9-32.2l-0.2,0.8c7.3,8,16.2,19.3,25.3,32c1,1.5,2.1,2.9,3.3,4.3l0.8-0.6
			C80.8,408.8,79.7,407.3,78.7,405.9z"/>
		<path class="st1" d="M191.4,436.3c-0.2,0.1-17.7,5.7-39.8,5.3c-20.4-0.4-49.8-6.9-70.3-32.3l-1.1,0.3c9.2,11.3,21.4,21,34.9,26.3
			c10.8,4.3,23,6.6,36.1,6.8c22.3,0.4,40-5.3,40.2-5.4L191.4,436.3z"/>
	</g>
	<g>
		<path class="st0" d="M942,486.6c0,0-10.7-7-21.3-2c0,0,3.3,6.3,16.7,5.7L942,486.6z"/>
		<path class="st0" d="M943.4,487c0,0,3.2,12.4-4.9,20.8c0,0-4.9-5.1,0-17.6L943.4,487z"/>
		<path class="st0" d="M956.6,475.1c0,0-0.8-10.5-24.6-7c0,0-0.1,6.8,8.2,10C948.7,481.3,952.5,478.6,956.6,475.1z"/>
		<path class="st0" d="M958.1,475c0,0,10,3.2,1.1,25.5c0,0-6.6-1.5-7.8-10.3C950.2,481.3,953.7,478.3,958.1,475z"/>
		<path class="st0" d="M971.6,460.1c0,0,1.4-17.3-22.9-15.5c0,0-1.7,15.6,18.6,19.7L971.6,460.1z"/>
		<path class="st0" d="M987.6,440.6c0,0-3.3-19.6-27.6-13.8c0,0-0.1,17,23.6,18.5L987.6,440.6z"/>
		<path class="st0" d="M999.3,420.4c0,0-5.6-19.1-29.6-13.4c0,0,5.7,17.2,28,16.9L999.3,420.4z"/>
		<path class="st0" d="M1010.5,400.6c0,0-5.4-19.8-28.7-13.9c0,0,7.7,18.8,27.1,17.3L1010.5,400.6z"/>
		<path class="st0" d="M1017.6,381.9c0,0-4.2-24.3-25.8-18.9c0,0,6.3,22.1,24.2,22.4L1017.6,381.9z"/>
		<path class="st0" d="M1024.4,359.2c0,0-5-24.4-26.9-17.4c0,0,8.6,23.1,25.4,20.7L1024.4,359.2z"/>
		<path class="st0" d="M1028.5,338.1c0,0-8-24.5-24.9-23.8c0,0,8.2,25.8,23.5,28.7L1028.5,338.1z"/>
		<path class="st0" d="M1031.2,317.6c0,0-8.7-29.4-22.5-27.2c0,0,6,22.5,22,31.8L1031.2,317.6z"/>
		<path class="st0" d="M1032.7,293c0,0-8.1-24.5-21.7-25.5c0,0,5.5,24.1,21.4,31.9L1032.7,293z"/>
		<path class="st0" d="M1034.3,270.1c0,0-10.2-24.6-19.1-25.1c0,0,4.4,24.2,18.2,29.1L1034.3,270.1z"/>
		<path class="st0" d="M1035.5,248.8c0,0-6.2-26.7-15.2-28.9c0,0,1.2,21.8,14.3,30.9L1035.5,248.8z"/>
		<path class="st0" d="M1038.8,220.9c0,0-6.6-21.3-13.8-24.5c0,0,1.4,25.1,12.2,29.7L1038.8,220.9z"/>
		<path class="st0" d="M1041.7,202.7l1.3-37.5c0,0-13.6,28.3-2.3,44.1L1041.7,202.7z"/>
		<path class="st0" d="M1052.1,165.4c0,0,9.8-27.4,12.2-28.9c0,0-19.2,17.8-17.3,40.6L1052.1,165.4z"/>
		<path class="st0" d="M972.2,460c0,0,17.2-2.3,16.7,22.1c0,0-15.6,2.5-20.6-17.6L972.2,460z"/>
		<path class="st0" d="M988.4,439.9c0,0,19.9-0.1,18.2,24.8c0,0-16.7,3-22.2-20.1L988.4,439.9z"/>
		<path class="st0" d="M999.5,422c0,0,18.1-8.5,29.6,13.4c0,0-16.7,7.1-31.2-9.9L999.5,422z"/>
		<path class="st0" d="M1010.9,400.8c0,0,18.5-9,29.4,12.3c0,0-19.3,6.6-30.9-9L1010.9,400.8z"/>
		<path class="st0" d="M1017.4,382.4c0,0,17.8-17,32,0.2c0,0-18.2,14-32.8,3.6L1017.4,382.4z"/>
		<path class="st0" d="M1023.4,358.6c0,0,17.9-17.4,32,0.8c0,0-20.1,14.3-32.6,2.8L1023.4,358.6z"/>
		<path class="st0" d="M1026.7,337.5c0,0,13.8-21.7,30-16.9c0,0-14.3,23-29.9,22L1026.7,337.5z"/>
		<path class="st0" d="M1030.8,317.4c0,0,13.9-27.3,27.1-22.6c0,0-10,21-27.4,27.2L1030.8,317.4z"/>
		<path class="st0" d="M1031.7,291.6c0,0,14.3-21.5,27.7-18.9c0,0-11.7,21.8-29.1,25.1L1031.7,291.6z"/>
		<path class="st0" d="M1032.9,269.7c0,0,11.1-24.2,20.1-24.3c0,0-5.3,24-19.3,28.4L1032.9,269.7z"/>
		<path class="st0" d="M1035,248.3c0,0,12.3-24.5,21.6-24.5c0,0-6.3,20.9-21.2,26.7L1035,248.3z"/>
		<path class="st0" d="M1036.9,222.5c0,0,9.2-20.2,16.8-22.5c0,0-4.6,24.7-15.8,27.9L1036.9,222.5z"/>
		<path class="st0" d="M1042.7,201.9l20.6-31.4c0,0-5.3,30.9-23.6,37.4L1042.7,201.9z"/>
		<path class="st0" d="M1056.9,167.9c0,0,23.9-16.5,24.8-19.2c0,0-12.2,23.1-34.7,27.2L1056.9,167.9z"/>
		<path class="st0" d="M1058.3,160.5c0,0,27.5-26.4,34.5-26.4c0,0-22.6,1-35.1,25L1058.3,160.5z"/>
		<path class="st1" d="M1037.1,226.4l1,0.1c5.2-40.4,12.7-64.3,21.2-67.2l-0.3-1C1050,161.5,1042.4,185,1037.1,226.4z"/>
		<path class="st1" d="M1029.6,323l1.5,0.1c0.3-3.8,0.6-7.6,0.7-11.5c1.4-33.4,3.7-64.1,6.6-87.1l-0.9-1.1
			c-2.9,23.1-5.8,54.7-7.3,88.2C1030.1,315.4,1029.9,319.2,1029.6,323z"/>
		<path class="st1" d="M913.8,505.9c0.3-0.1,26.9-12,54.5-40.3c16.2-16.6,29.6-35.7,39.8-56.5c12.8-26,20.6-58,23.2-89l-1.6,0.7
			c-5.9,69.7-37.6,117.3-62.8,143.2c-27.3,28.1-53.7,39.8-53.9,40L913.8,505.9z"/>
		<path class="st0" d="M982.7,0H148c-4.1,0-7.4,3.3-7.4,7.4v21.7h849.6V7.4C990.2,3.3,986.8,0,982.7,0z"/>
		<path class="st2" d="M140.5,29.1v487.6c0,8.3,6.7,15,15,15c0,0,0,0,0,0h819.6c8.3,0,15-6.7,15-15l0,0V29.1H140.5z"/>
		<circle class="st3" cx="154" cy="14.3" r="3.5"/>
		<circle class="st4" cx="163.6" cy="14.3" r="3.5"/>
		<circle class="st5" cx="173.1" cy="14.3" r="3.5"/>
		<rect x="219.5" y="110.4" class="st6" width="682.8" height="300.3"/>
		<rect x="224.7" y="112.7" class="st0" width="672.4" height="293.6"/>
		<path class="st0" d="M408,188.2c-36.9,0-66.9,29.9-66.9,66.9S371.1,322,408,322s66.9-29.9,66.9-66.9S445,188.2,408,188.2
			L408,188.2z M420,256.7v31.7h-23.6v-31.7c-8.6-6.5-10.3-18.8-3.8-27.4c6.5-8.6,18.8-10.3,27.4-3.8c8.6,6.5,10.3,18.8,3.8,27.4
			C422.7,254.4,421.5,255.7,420,256.7z"/>
		<path class="st7" d="M408,188.2c-36.9,0-66.9,29.9-66.9,66.9S371.1,322,408,322s66.9-29.9,66.9-66.9S445,188.2,408,188.2
			L408,188.2z M420,256.7v31.7h-23.6v-31.7c-8.6-6.5-10.3-18.8-3.8-27.4c6.5-8.6,18.8-10.3,27.4-3.8c8.6,6.5,10.3,18.8,3.8,27.4
			C422.7,254.4,421.5,255.7,420,256.7z"/>
		<path class="st1" d="M408,169.1c-47.5,0-86,38.5-86,86s38.5,86,86,86s86-38.5,86-86l0,0C494,207.6,455.5,169.1,408,169.1z
			 M423.5,257.2v40.7h-30.4v-40.7c-11.1-8.4-13.3-24.2-4.9-35.3c8.4-11.1,24.2-13.3,35.3-4.9c11.1,8.4,13.3,24.2,4.9,35.3
			C427,254.2,425.3,255.8,423.5,257.2z"/>
		<rect x="529.7" y="243.9" class="st2" width="278" height="29.5"/>
		<rect x="747.7" y="297.7" class="st1" width="59.9" height="29.5"/>
		<path class="st0" d="M557,258.2h-5l4.5-4.5c0.2-0.2,0.2-0.4,0-0.6c-0.2-0.2-0.4-0.2-0.6,0c0,0,0,0,0,0l-4.5,4.5v-5
			c0-0.2-0.2-0.4-0.4-0.4c-0.2,0-0.4,0.2-0.4,0.4v5l-4.5-4.5c-0.2-0.2-0.4-0.2-0.6,0c0,0,0,0,0,0c-0.2,0.2-0.2,0.4,0,0.6l4.5,4.5h-5
			c-0.2,0-0.4,0.2-0.4,0.4c0,0.2,0.2,0.4,0.4,0.4h5l-4.5,4.5c-0.2,0.2-0.2,0.4,0,0.6c0.2,0.2,0.4,0.2,0.6,0l4.5-4.5v5
			c0,0.2,0.2,0.4,0.4,0.4c0.2,0,0.4-0.2,0.4-0.4v-5l4.5,4.5c0.2,0.2,0.4,0.2,0.6,0c0.2-0.2,0.2-0.4,0-0.6L552,259h5
			c0.2,0,0.4-0.2,0.4-0.4C557.4,258.4,557.3,258.2,557,258.2z"/>
		<path class="st0" d="M575.3,258.2h-5l4.5-4.5c0.2-0.2,0.2-0.4,0-0.6c-0.2-0.2-0.4-0.2-0.6,0c0,0,0,0,0,0l-4.5,4.5v-5
			c0-0.2-0.2-0.4-0.4-0.4c-0.2,0-0.4,0.2-0.4,0.4v5l-4.5-4.5c-0.2-0.2-0.4-0.2-0.6,0c0,0,0,0,0,0c-0.2,0.2-0.2,0.4,0,0.6l4.5,4.5h-5
			c-0.2,0-0.4,0.2-0.4,0.4c0,0.2,0.2,0.4,0.4,0.4h5l-4.5,4.5c-0.2,0.2-0.2,0.4,0,0.6c0.2,0.2,0.4,0.2,0.6,0l4.5-4.5v5
			c0,0.2,0.2,0.4,0.4,0.4c0.2,0,0.4-0.2,0.4-0.4v-5l4.5,4.5c0.2,0.2,0.4,0.2,0.6,0c0.2-0.2,0.2-0.4,0-0.6l-4.5-4.5h5
			c0.2,0,0.4-0.2,0.4-0.4C575.7,258.4,575.5,258.2,575.3,258.2z"/>
		<path class="st0" d="M593.5,258.2h-5l4.5-4.5c0.2-0.2,0.2-0.4,0-0.6c-0.2-0.2-0.4-0.2-0.6,0c0,0,0,0,0,0l-4.5,4.5v-5
			c0-0.2-0.2-0.4-0.4-0.4c-0.2,0-0.4,0.2-0.4,0.4v5l-4.5-4.5c-0.2-0.2-0.4-0.2-0.6,0c0,0,0,0,0,0c-0.2,0.2-0.2,0.4,0,0.6l4.5,4.5h-5
			c-0.2,0-0.4,0.2-0.4,0.4c0,0.2,0.2,0.4,0.4,0.4h5l-4.5,4.5c-0.2,0.2-0.2,0.4,0,0.6c0.2,0.2,0.4,0.2,0.6,0l4.5-4.5v5
			c0,0.2,0.2,0.4,0.4,0.4c0.2,0,0.4-0.2,0.4-0.4v-5l4.5,4.5c0.2,0.2,0.4,0.2,0.6,0c0.2-0.2,0.2-0.4,0-0.6l-4.5-4.5h5
			c0.2,0,0.4-0.2,0.4-0.4C593.9,258.4,593.7,258.2,593.5,258.2z"/>
		<path class="st0" d="M611.8,258.2h-5l4.5-4.5c0.2-0.2,0.2-0.4,0-0.6c-0.2-0.2-0.4-0.2-0.6,0c0,0,0,0,0,0l-4.5,4.5v-5
			c0-0.2-0.2-0.4-0.4-0.4c-0.2,0-0.4,0.2-0.4,0.4v5l-4.5-4.5c-0.2-0.2-0.4-0.2-0.6,0c0,0,0,0,0,0c-0.2,0.2-0.2,0.4,0,0.6l4.5,4.5h-5
			c-0.2,0-0.4,0.2-0.4,0.4c0,0.2,0.2,0.4,0.4,0.4h5l-4.5,4.5c-0.2,0.2-0.2,0.4,0,0.6c0.2,0.2,0.4,0.2,0.6,0l4.5-4.5v5
			c0,0.2,0.2,0.4,0.4,0.4c0.2,0,0.4-0.2,0.4-0.4v-5l4.5,4.5c0.2,0.2,0.4,0.2,0.6,0c0.2-0.2,0.2-0.4,0-0.6l-4.5-4.5h5
			c0.2,0,0.4-0.2,0.4-0.4C612.2,258.4,612,258.2,611.8,258.2z"/>
		<path class="st0" d="M630,258.2h-5l4.5-4.5c0.2-0.2,0.2-0.4,0-0.6c-0.2-0.2-0.4-0.2-0.6,0c0,0,0,0,0,0l-4.5,4.5v-5
			c0-0.2-0.2-0.4-0.4-0.4c-0.2,0-0.4,0.2-0.4,0.4v5l-4.5-4.5c-0.2-0.2-0.4-0.2-0.6,0c0,0,0,0,0,0c-0.2,0.2-0.2,0.4,0,0.6l4.5,4.5h-5
			c-0.2,0-0.4,0.2-0.4,0.4c0,0.2,0.2,0.4,0.4,0.4h5l-4.5,4.5c-0.2,0.2-0.2,0.4,0,0.6c0.2,0.2,0.4,0.2,0.6,0l4.5-4.5v5
			c0,0.2,0.2,0.4,0.4,0.4c0.2,0,0.4-0.2,0.4-0.4v-5l4.5,4.5c0.2,0.2,0.4,0.2,0.6,0c0.2-0.2,0.2-0.4,0-0.6L625,259h5
			c0.2,0,0.4-0.2,0.4-0.4C630.4,258.4,630.2,258.2,630,258.2z"/>
		<path class="st0" d="M648.2,258.2h-5l4.5-4.5c0.2-0.2,0.2-0.4,0-0.6c-0.2-0.2-0.4-0.2-0.6,0c0,0,0,0,0,0l-4.5,4.5v-5
			c0-0.2-0.2-0.4-0.4-0.4c-0.2,0-0.4,0.2-0.4,0.4v5l-4.5-4.5c-0.2-0.2-0.4-0.2-0.6,0c0,0,0,0,0,0c-0.2,0.2-0.2,0.4,0,0.6l4.5,4.5h-5
			c-0.2,0-0.4,0.2-0.4,0.4c0,0.2,0.2,0.4,0.4,0.4h5l-4.5,4.5c-0.2,0.2-0.2,0.4,0,0.6c0.2,0.2,0.4,0.2,0.6,0l4.5-4.5v5
			c0,0.2,0.2,0.4,0.4,0.4s0.4-0.2,0.4-0.4v-5l4.5,4.5c0.2,0.2,0.4,0.2,0.6,0c0.2-0.2,0.2-0.4,0-0.6l-4.5-4.5h5
			c0.2,0,0.4-0.2,0.4-0.4C648.7,258.4,648.5,258.2,648.2,258.2z"/>
		<path class="st0" d="M666.5,258.2h-5l4.5-4.5c0.2-0.2,0.2-0.4,0-0.6c-0.2-0.2-0.4-0.2-0.6,0c0,0,0,0,0,0l-4.5,4.5v-5
			c0-0.2-0.2-0.4-0.4-0.4c-0.2,0-0.4,0.2-0.4,0.4v5l-4.5-4.5c-0.2-0.2-0.4-0.2-0.6,0c0,0,0,0,0,0c-0.2,0.2-0.2,0.4,0,0.6l4.5,4.5h-5
			c-0.2,0-0.4,0.2-0.4,0.4c0,0.2,0.2,0.4,0.4,0.4h5l-4.5,4.5c-0.2,0.2-0.2,0.4,0,0.6c0.2,0.2,0.4,0.2,0.6,0l4.5-4.5v5
			c0,0.2,0.2,0.4,0.4,0.4s0.4-0.2,0.4-0.4v-5l4.5,4.5c0.2,0.2,0.4,0.2,0.6,0c0.2-0.2,0.2-0.4,0-0.6l-4.5-4.5h5
			c0.2,0,0.4-0.2,0.4-0.4C666.9,258.4,666.7,258.2,666.5,258.2z"/>
		<path class="st0" d="M684.7,258.2h-5l4.5-4.5c0.2-0.2,0.2-0.4,0-0.6c-0.2-0.2-0.4-0.2-0.6,0c0,0,0,0,0,0l-4.5,4.5v-5
			c0-0.2-0.2-0.4-0.4-0.4c-0.2,0-0.4,0.2-0.4,0.4v5l-4.5-4.5c-0.2-0.2-0.4-0.2-0.6,0c0,0,0,0,0,0c-0.2,0.2-0.2,0.4,0,0.6l4.5,4.5h-5
			c-0.2,0-0.4,0.2-0.4,0.4c0,0.2,0.2,0.4,0.4,0.4h5l-4.5,4.5c-0.2,0.2-0.2,0.4,0,0.6c0.2,0.2,0.4,0.2,0.6,0l4.5-4.5v5
			c0,0.2,0.2,0.4,0.4,0.4s0.4-0.2,0.4-0.4v-5l4.5,4.5c0.2,0.2,0.4,0.2,0.6,0c0.2-0.2,0.2-0.4,0-0.6l-4.5-4.5h5
			c0.2,0,0.4-0.2,0.4-0.4C685.2,258.4,685,258.2,684.7,258.2z"/>
		<path class="st0" d="M703,258.2h-5l4.5-4.5c0.2-0.2,0.2-0.4,0-0.6c-0.2-0.2-0.4-0.2-0.6,0c0,0,0,0,0,0l-4.5,4.5v-5
			c0-0.2-0.2-0.4-0.4-0.4c-0.2,0-0.4,0.2-0.4,0.4v5l-4.5-4.5c-0.2-0.2-0.4-0.2-0.6,0c0,0,0,0,0,0c-0.2,0.2-0.2,0.4,0,0.6l4.5,4.5h-5
			c-0.2,0-0.4,0.2-0.4,0.4c0,0.2,0.2,0.4,0.4,0.4h5l-4.5,4.5c-0.2,0.2-0.2,0.4,0,0.6c0.2,0.2,0.4,0.2,0.6,0l4.5-4.5v5
			c0,0.2,0.2,0.4,0.4,0.4s0.4-0.2,0.4-0.4v-5l4.5,4.5c0.2,0.2,0.4,0.2,0.6,0c0.2-0.2,0.2-0.4,0-0.6l-4.5-4.5h5
			c0.2,0,0.4-0.2,0.4-0.4C703.4,258.4,703.2,258.2,703,258.2z"/>
		<path class="st0" d="M721.2,258.2h-5l4.5-4.5c0.2-0.2,0.2-0.4,0-0.6c-0.2-0.2-0.4-0.2-0.6,0c0,0,0,0,0,0l-4.5,4.5v-5
			c0-0.2-0.2-0.4-0.4-0.4c-0.2,0-0.4,0.2-0.4,0.4v5l-4.5-4.5c-0.2-0.2-0.4-0.2-0.6,0c0,0,0,0,0,0c-0.2,0.2-0.2,0.4,0,0.6l4.5,4.5h-5
			c-0.2,0-0.4,0.2-0.4,0.4c0,0.2,0.2,0.4,0.4,0.4h5l-4.5,4.5c-0.2,0.2-0.2,0.4,0,0.6c0.2,0.2,0.4,0.2,0.6,0l4.5-4.5v5
			c0,0.2,0.2,0.4,0.4,0.4s0.4-0.2,0.4-0.4v-5l4.5,4.5c0.2,0.2,0.4,0.2,0.6,0c0.2-0.2,0.2-0.4,0-0.6l-4.5-4.5h5
			c0.2,0,0.4-0.2,0.4-0.4C721.6,258.4,721.5,258.2,721.2,258.2z"/>
		<path class="st0" d="M739.5,258.2h-5l4.5-4.5c0.2-0.2,0.2-0.4,0-0.6c-0.2-0.2-0.4-0.2-0.6,0c0,0,0,0,0,0l-4.5,4.5v-5
			c0-0.2-0.2-0.4-0.4-0.4c-0.2,0-0.4,0.2-0.4,0.4v5l-4.5-4.5c-0.2-0.2-0.4-0.2-0.6,0c0,0,0,0,0,0c-0.2,0.2-0.2,0.4,0,0.6l4.5,4.5h-5
			c-0.2,0-0.4,0.2-0.4,0.4c0,0.2,0.2,0.4,0.4,0.4h5l-4.5,4.5c-0.2,0.2-0.2,0.4,0,0.6c0.2,0.2,0.4,0.2,0.6,0l4.5-4.5v5
			c0,0.2,0.2,0.4,0.4,0.4s0.4-0.2,0.4-0.4v-5l4.5,4.5c0.2,0.2,0.4,0.2,0.6,0c0.2-0.2,0.2-0.4,0-0.6l-4.5-4.5h5
			c0.2,0,0.4-0.2,0.4-0.4C739.9,258.4,739.7,258.2,739.5,258.2z"/>
		
			<linearGradient id="SVGID_1_" gradientUnits="userSpaceOnUse" x1="764.3357" y1="116.6477" x2="897.3209" y2="116.6477" gradientTransform="matrix(1 0 0 -1 -16.91 574.6502)">
			<stop  offset="0" style="stop-color:#808080;stop-opacity:0.25"/>
			<stop  offset="0.54" style="stop-color:#808080;stop-opacity:0.12"/>
			<stop  offset="1" style="stop-color:#808080;stop-opacity:0.1"/>
		</linearGradient>
		<path class="st8" d="M879.3,363.9c0-1.1-0.2-2.1-0.4-3.1c-0.8-2.9-2.5-6.5-5.4-7.4c-3-0.9-5.9-2.1-8.6-3.6
			c-0.5-9.3,1.6-18.8-0.7-27.9c-0.9-3.3-2.3-6.5-2.7-9.8c-0.5-4.2,0.7-8.7-1-12.6c-1.3-3.1-4.2-5.2-7.3-6.3
			c-3.1-1.1-6.5-1.4-9.8-1.7c-4.2-0.3-17.7-1.9-22.4,1.8l0,0c-0.3,0.3-0.6,0.5-0.9,0.9l0,0c-0.1,0.1-0.2,0.3-0.3,0.5l0,0.1
			c-0.1,0.2-0.2,0.4-0.2,0.6l0,0c-0.1,0.2-0.1,0.4-0.1,0.7c0,0.1,0,0.1,0,0.2s0,0.3,0,0.5v0.2c0,0.2,0,0.3,0,0.5s0,0.1,0,0.2
			c0.1,0.8,0.2,1.6,0.2,2.3c0,0.4,0,0.8-0.1,1.1c-0.3,1-0.8,2-1.4,2.8l0,0l-0.2,0.2c-0.1,0.1-0.2,0.3-0.3,0.4s-0.2,0.2-0.2,0.4
			c-0.1,0.1-0.1,0.2-0.2,0.3c-0.1,0.1-0.2,0.3-0.2,0.4c0,0.1-0.1,0.2-0.1,0.3c-0.1,0.2-0.2,0.5-0.3,0.7c-0.2,0.8-0.2,1.5-0.1,2.3
			c0.2,1,0.6,1.9,1.2,2.7c0.2,0.4,0.5,0.7,0.7,1.1l0.6,0.8c-0.1,0.8-0.2,1.6-0.2,2.4c0,5.5,2.5,10.7,6.9,14.1
			c0.3,3.7,0.3,7.4-0.1,11c-0.1,0.8-0.2,1.5-0.3,2.3s-0.2,1.3-0.3,1.9c-1.3,0.2-2.6,0.1-3.8-0.3c-0.6-0.3-1.1-0.5-1.7-0.7
			c-2.5-0.6-5.1,1.9-7.6,1.1c0,0.1-0.1,0.2-0.1,0.3c-0.5-0.3-1.1-0.5-1.7-0.5c-1.5-0.1-2.7-1.1-3.8-2.2l-3.3-3.1
			c-0.2-0.2-0.4-0.4-0.6-0.6c-0.2-0.3-0.3-0.7-0.4-1.1c-0.6-1.8-1.9-3.2-3.2-4.6c-0.2-0.3-0.6-0.5-0.9-0.7c-0.1,0-0.3,0-0.4,0
			c-0.1-0.1-0.2-0.2-0.3-0.3c-0.2-0.3-0.5-0.5-0.7-0.7c-1.6-1.5-1.7-2.7-3.1-4.3c-1.2-1.6-2.3-3.2-3.2-4.9c-0.1-0.9-0.3-1.9-0.5-2.8
			c-0.4-2.2-1.1-4.3-1.9-6.3l-1.7-3.8l-0.2,0.2c-1.3-1.9-2.6-2.9-3.8-2.7c-2,0.4-3,4.3-2.7,9.5l0.7,5.2c0,0.1,0.1,0.3,0.1,0.4
			c-0.1,0.6-0.2,1.2-0.2,1.9c0,0.7,0.7,1.3,1,1.9c0.6,0.9,0.9,1.9,0.9,3c0,0.4-0.2,0.7-0.2,1.1c0,0.8,0.3,1.6,0.8,2.3l4.3,7.3
			l0.9,1.5l0.1,0.1c0.3,0.5,0.7,1,1.2,1.3c0.2,1.8,0.7,3.6,1.4,5.3c0.1,0.3,0.3,0.6,0.5,1c1.2,1.9,2.5,3.7,4.1,5.3l2.1,2.3
			c2,2.3,4.1,4.6,6.3,6.7c0.8,0.8,1.8,1.5,2.8,2c1.1,0.4,2.3,0.2,3.2-0.5c0,1.1,0,2.2,0,3.2c1,0.1,1.8,0.9,1.7,1.9
			c0,0.3-0.1,0.7-0.3,0.9c-1.8,4.7-3.7,9.4-6.4,13.6c1.9,1.2,3.8,2.5,5.4,4.1c1.1,1.2,2,2.4,2.8,3.8c0.1,0.6,0.1,1.3,0.2,1.9
			c0.6,10.4-3.4,20.6-6.9,30.5c-1,2.8-2.2,5.7-2.1,8.6c-0.7,0.4-1.3,0.9-1.9,1.4c0.7,1.9,0.4,3.5,0.4,5.5c0,1.2-0.3,2.4-0.7,3.5
			c-0.4,0.8-0.8,1.5-1.3,2.2c-2.3,4-2.7,8.7-3.2,13.2c-0.3,2.7,0.8,6.1-0.5,8.5c-2.1,4.2-4,8.7-4.3,13.4c0,1.1-0.1,2.1-0.4,3.1
			c-0.3,0.9-0.7,1.6-1,2.5c-0.3,1.1-0.3,2.3-0.2,3.5c0.2,4.2-0.5,8.3-1.8,12.3c-1.1,3.1-2.3,6.4-1.4,9.6c-2.1,2.2-3.4,5-3.7,8.1
			c0,0.8-0.1,1.5-0.3,2.3c-0.3,0.8-0.6,1.5-1,2.2c-1.7,3.2-2.6,6.8-2.4,10.4c-2.6,3.5-3.9,7.9-4.7,12.2c-0.8,4.3-1.1,8.7-2.1,13
			c-1.3,5.7-3.7,11.4-4.2,17.2c-2.8,1.8-4,5.3-4.6,8.6c-0.5,3.3-0.6,6.8-2,9.8c-0.7,1.6-1.7,3-2.4,4.6c-0.5,1.3-0.8,2.6-1,4
			c-0.4,2.1-0.8,4.5-0.3,6.5c-0.7,0.8-1.6,1.4-2.5,1.9c0.1-0.5,0.3-1.1,0.3-1.6c-2.2,2-6.3,1.3-8.1,3.8c-1.1,1.6-0.7,3.9,0.9,5
			c0.6,0.3,1.2,0.6,1.8,0.8c4.3,1.4,8.8,2.8,13.3,2.1c0.5-0.1,1-0.2,1.5-0.5c0.6-0.4,1.1-1,1.4-1.6c0.7-1.1,1.3-2.1,2-3.2
			c1.6,0.5,3.2,0.9,4.9,1.1c0.2,1.4,0.3,2.8,0.3,4.2c0.9,0.2,2,0.2,2.4-0.6c0.1-0.3,0.2-0.6,0.1-1c0-0.6,0.1-1.4,0.1-2.3h0.2
			c2.7,0.1,5.3-0.4,7.7-1.6c-0.9-7.7,2.1-15.2,4.8-22.5c2.8-7.7,5.2-15.5,7.6-23.3c1.7-5.5,3.7-10.8,5.4-16.3
			c2.1-6.9,4.3-13.9,6.5-20.8c0.9-3.1,1.9-6.1,3-9.1c2.3-6.2,5-12.1,8.1-17.9c0.9-1.6,1.7-3.3,2.4-5c0.9-2.1,1.5-4.2,2.2-6.4
			c1.5-4.4,3.3-8.7,5.5-12.8c0.1-0.1,0.1-0.2,0.2-0.3c0.7,2.9,1.4,5.8,1.9,8.7c0.6,3.5,0.7,7.2,0.1,10.7c-0.4,2.4-1.2,4.8-1.1,7.3
			c0.1,3.4,1.9,6.5,2.8,9.8c0.6,2.5,0.9,5,1,7.5c0.2,3.9,2.4,8.3,0.9,11.9c-4.6,11.5-2.4,24.4-5,36.5c-1.4,6.2-5.5,12-5.2,18.3
			c0.2,4.5,0.6,9,1.2,13.4c0.1,1.4,0.5,2.8,1.1,4.1c0.3,0.7,0.7,1.3,1.2,1.9c-0.4,0.1-0.7,0.5-1,1.4c-0.7,2.2,0,4.9,1.9,6.1
			c0.8,0.4,1.6,0.7,2.5,0.9c1.2,0.3,2.4,0.5,3.6,0.5c0.4,0,0.8-0.1,1.1-0.1c1.3,0.6,2.7,1.1,4.1,1.5c0,0.4,0.1,0.7,0.1,1.1
			c0,0.4,0.2,0.7,0.5,1c0.2,0.1,0.5,0.1,0.7,0.1h4.7c0-0.4,0-0.8,0-1.2c1.1,0.1,2.2-0.2,3-1c0.4-0.5,0.7-1.1,0.9-1.8
			c1.3-4.4,2.6-8.7,3.8-13.1c1.5-4.8,2.2-9.9,1.9-14.9c-1.7-16,2-32.1,0.8-48.1c-0.7-9.6-0.2-19.4,1.5-28.9c0.4-2.2,0.9-4.3,1-6.5
			c0.4-4-0.1-8.1,0.2-12.2c0.1-1.4,0.3-2.8,0.5-4.2c1.2-8.7,1.8-17.4,1.9-26.2c0-2.9-0.2-5.8-0.5-8.7c0.9-0.2,1.7-0.7,2.4-1.4
			c0.8-1,0.6-2.4,0.6-3.7c0-3.1,1.3-6,2.3-8.9c1.3-4,2.4-8.1,3.3-12.2c0.9-3.3,1.4-6.8,1.5-10.2c0-0.3,0-0.7-0.1-1
			c0.3-0.2,0.6-0.5,0.8-0.9c0.2-0.5,0.4-1.1,0.4-1.6c0.3-2.2,0.6-4.4,0.9-6.7c0.2-1.6,0.5-3.2,0.7-4.8l2.8-19.3
			c0.2-1.7,0.5-3.3,0.7-5l0.7-5c0.1-0.6,0.2-1.2,0.2-1.7C881.6,372.6,879.5,367.9,879.3,363.9z M856.3,436c-1-2.4-2-4.9-1.7-7.5
			h-0.1c0.2-0.8,0.2-1.7-0.1-2.4c-0.3-0.6-0.7-1.2-1-1.8c-0.3-0.8-0.5-1.6-0.5-2.4c-0.2-5.3,0.2-10.6,1.2-15.8
			c0.1-0.6,0.2-1.2,0.3-1.8c0.4-0.2,0.7-0.5,1-0.8c0.5-0.5,0.8-1.1,1.1-1.7c1-2,1.9-4,2.7-6c0.3-0.7,0.7-1.4,1.3-1.6
			c-0.1,5.1,0.4,10.3-1.7,14.9c-0.4,0.7-0.7,1.5-0.9,2.3c-0.2,1.3,0.3,2.6,0.2,3.9c-0.1,0.7-0.4,1.3-0.5,1.9c-0.2,0.7,0,1.4,0.5,1.8
			c0.1,0.1,0.2,0.1,0.4,0.2c-0.1,0.3-0.1,0.7-0.1,1c-0.1,0.7-0.1,1.4-0.1,1.8c-0.2,2.1-0.3,4.3-0.2,6.4c0,2.3,0.1,4.6,0.1,6.9
			c0,0.7-0.1,1.3-0.3,2c-0.2,0.3-0.4,0.6-0.7,0.9C856.8,437.4,856.6,436.7,856.3,436L856.3,436z"/>
		
			<ellipse transform="matrix(0.9796 -0.2007 0.2007 0.9796 -48.5891 164.1073)" class="st9" cx="784.9" cy="321.6" rx="4.9" ry="13.9"/>
		<path class="st10" d="M828.2,614.5c-0.7,2.2,0,4.8,1.9,6c0.8,0.4,1.6,0.7,2.5,0.9c1.2,0.3,2.4,0.5,3.6,0.5
			c1.5-0.1,2.9-0.7,4.4-0.9c0.2,0,0.4,0,0.5,0.1c0.2,0.2,0.2,0.4,0.2,0.6c0,0.9,0.1,1.7,0.2,2.6c0,0.4,0.2,0.7,0.5,1
			c0.2,0.1,0.5,0.1,0.7,0.1h4.7c0.1-4.1-0.3-8.3-1.3-12.3c-0.1-0.3-0.2-0.6-0.3-0.9c-0.4-0.4-0.9-0.7-1.5-0.9
			c-1.2-0.5-2.4-0.7-3.6-0.6c-1.5,0.2-2.8,1.2-4.1,2c-1.3,0.8-3.1,1.5-4.6,1.1C830.3,613.4,829,612.1,828.2,614.5z"/>
		<path class="st9" d="M759,610.7c-1.3,1.4-2.9,2.5-4.8,3.2l-0.8,0.4c-0.1,0-0.2,0.1-0.3,0.2c0,0.1,0,0.3,0.1,0.4
			c1.4,2.1,4,3.1,6.4,2.3c0.5-0.1,1-0.4,1.4-0.7c0.7-0.8,1-1.8,1.1-2.8c0.3-1.1,0.2-2.2-0.1-3.2C760.8,607.7,760.4,609,759,610.7z"
			/>
		<path class="st10" d="M777.1,621.4c0,0.3,0,0.7-0.1,1c-0.4,0.8-1.5,0.8-2.4,0.6c-0.1-2.9-0.5-5.9-1.1-8.8c-1.7-0.1-2.9,1.5-3.8,3
			l-2.3,3.7c-0.3,0.6-0.8,1.2-1.4,1.6c-0.5,0.3-1,0.4-1.5,0.5c-4.4,0.7-8.9-0.7-13.2-2.1c-0.6-0.2-1.2-0.4-1.8-0.8
			c-1.6-1.2-2-3.4-0.9-5c1.8-2.4,5.8-1.7,8.1-3.8c-0.2,1.4-0.6,2.8-1.1,4.1c3-0.5,5-3.2,7.4-5c0.6-0.5,1.3-0.9,2.1-1
			c0.6,0,1.2,0,1.7,0.2c2.8,0.7,5.4,2,7.6,3.8c0.9,0.7,2.3,1.7,2.7,2.8C777.5,617.5,777.1,619.9,777.1,621.4z"/>
		<circle class="st9" cx="836.9" cy="316.8" r="17.9"/>
		<path class="st10" d="M872.2,422.7c-0.1,3.4-0.6,6.8-1.5,10.2c-0.8,4.1-1.9,8.2-3.3,12.2c-1,2.9-2.3,5.8-2.3,8.9
			c0,1.3,0.2,2.7-0.6,3.7c-0.7,0.7-1.6,1.2-2.5,1.5c-1,0.3-1.8,1-2.1,1.9c-0.8-1.2-1.4-2.6-1.8-4c-1.6-4.8-3-9.6-4.3-14.4
			c-0.2-0.6-0.2-1.2,0.1-1.7c0.2-0.2,0.5-0.3,0.8-0.4c0.9-0.4,1.7-0.9,2.4-1.5c0.3-0.3,0.6-0.6,0.8-1c0.3-0.6,0.4-1.3,0.3-2
			c0-2.3,0-4.6-0.1-6.9c0-2.1,0-4.3,0.2-6.4c0-0.4,0.1-1.1,0.1-1.8c0.1-1.4,0.4-2.9,1.1-3.5c1.1-0.7,4.4,0.3,5.7,0.4
			c2.2,0.3,4.3,0.6,6.4,1.1C872.1,420.1,872.2,421.4,872.2,422.7z"/>
		<path class="st10" d="M799.7,336.9c-0.7,1.4-2.4,2.1-3.6,2.9l-4.4,3c-0.6,0.5-1.4,0.8-2.2,0.7c-0.7-0.3-1.3-0.8-1.6-1.5
			c0,0,0,0,0-0.1l-0.9-1.5l-4.3-7.3c-0.5-0.7-0.8-1.4-0.8-2.2c0-0.4,0.1-0.7,0.2-1.1c0-1-0.3-2.1-0.9-3c-0.3-0.7-1-1.2-1-1.9
			c0-1,0.1-1.9,0.5-2.8c0.5-0.8,1.1-1.5,1.9-2c0.4-0.3,0.8-0.6,1.3-0.9c0.2-0.2,0.5-0.3,0.8-0.3c0.7-0.1,1.4,0.5,2.2,0.5
			c3.1,2.1,4.3,6.1,6.8,8.9c1.4,1.6,1.5,2.9,3.1,4.3c0.3,0.2,0.5,0.5,0.7,0.7c0.3,0.3,0.6,0.7,0.8,1.1
			C798.4,335.3,800.1,336.2,799.7,336.9z"/>
		<path class="st9" d="M830.6,334.7c1.3,2.7,2.3,5.7,1.9,8.7c-0.1,0.8-0.3,1.6-0.8,2.3c-1.3,1.9-3.9,2.3-6.2,2.4
			c-1-0.1-1.9,0.2-2.7,0.9c-0.6,0.9-0.6,2.1,0.2,3c0.7,0.8,1.6,1.4,2.7,1.7c3.6,1.6,7.5,2.9,11.4,2.5c1.8-0.2,3.6-0.7,5.4-1
			c2-0.2,4-0.3,6-0.3c2.4-0.1,4.7-0.3,7.1-0.6l6.2-0.6c0.3,0,0.7-0.1,0.9-0.3c0.5-0.5-0.1-1.3-0.7-1.7c-3.3-2.4-7.5-4.1-9.4-7.8
			c-0.9-1.7-1.1-3.8-1.8-5.7c-0.6-1.9-1.7-3.6-2.1-5.5c-0.2-1.7-0.3-3.4-0.3-5.1c0-1.7-0.6-3.4-1.7-4.6c-1.2-1.2-3-1.5-4.7-1.5
			c-4.2-0.2-8.6,0.8-11.5,3.7c-0.8,0.8-1.5,1.7-2.3,2.4c-0.8,0.7-1.9,0.9-1.4,1.9c0.5,0.9,1.6,1.5,2.2,2.3
			C829.6,332.8,830.1,333.8,830.6,334.7z"/>
		<path class="st10" d="M865.9,360c-1.1,6.7-2.9,13.2-5.3,19.6c-1.2,2.9-2.3,5.8-3.1,8.8c-0.7,2.7-0.5,5.6-1.2,8.3
			c-0.8,3.4-1.5,6.7-2.1,10.1c-1,5.2-1.4,10.5-1.2,15.7c0,0.8,0.2,1.7,0.5,2.4c0.3,0.6,0.7,1.2,1,1.8c0.4,1.1,0.3,2.4-0.2,3.5
			c-0.4,1-1.1,1.9-1.8,2.7c-8.1,2.4-16.8,1.6-25.2,2.1c-7.8,0.5-15.6,2.1-23.3,0.7c-0.9-3.5,0.6-7.1,1.8-10.5
			c3.6-9.8,7.6-20.1,6.9-30.4c-0.1-1.2-0.2-2.4-0.4-3.6c-1.3-7.3,0.1-14.9,2.3-22c1.4-4.4,1.3-9.1,1-13.7c-0.2-1.5-0.2-3-0.1-4.5
			c0.1-1.5,0.7-3,1.6-4.2c0-0.1,0.1-0.1,0.1-0.2c0-0.1,0.4-0.1,0.7,0l0,0c0.1,0.1,0.3,0.1,0.4,0l0.1-0.1c0.1-0.1,0.2-0.1,0.3,0
			c0.2,0.1,0.3,0.5,0.7,0.6c0.6,0.1,1.3,0.2,1.9,0.2c0.8,0,1.6,0.1,2.3,0.3h0.1c1.1,0.2,2.3,0.1,3.4-0.3c0.7-0.2,1.4-0.4,2.1-0.8
			c0.2-0.2,1.4-0.4,1.6-0.5c0.8-0.5,0.6-2.7,0.8-3.6c0.1-0.9,0.3-1.8,0.7-2.7c0.8-1.3,2.2-2.1,3.7-2.2c1.5,0,3,0.1,4.5,0.4
			c3.2,0.5,6.6,0.4,9.7,1.1c1.6,0.4,3.3,0.9,4.8,0.2c0.4,0.1,0.5,0.4,0.5,0.9c0,0.4-0.1,0.8-0.2,1.2c-0.6,2.4,1.3,4.6,3.1,6.3
			c0.7,0.8,1.6,1.5,2.6,2c0.9,0.4,1.7,0.6,2.6,1c0.7,0.4,1.3,0.9,1.7,1.6c0.5,0.8,0.8,1.6,1,2.5C866.4,356.7,866.3,358.4,865.9,360z
			"/>
		<path class="st11" d="M865.9,360c-1.1,6.7-2.9,13.2-5.3,19.6c-1.2,2.9-2.3,5.8-3.1,8.8c-0.7,2.7-0.5,5.6-1.2,8.3
			c-0.8,3.4-1.5,6.7-2.1,10.1c-0.2,0.1-0.4,0.2-0.6,0.3c-1.1,0.5-2.2,0.9-3.4,1.1c-2.1,0.3-4.3,0.2-6.4-0.2l-12.4-1.7
			c-5-0.7-10.2-1.5-13.9-4.8c-2-1.8-3.4-4.3-4.8-6.6c-0.1-1.2-0.2-2.4-0.4-3.6c-1.3-7.3,0.1-14.9,2.3-22c1.4-4.4,1.3-9.1,1-13.7
			c-0.2-1.5-0.2-3-0.1-4.5c0.1-1.5,0.7-3,1.6-4.2c0.3-0.1,0.5-0.1,0.8-0.2l0,0c0.2,0,0.4-0.1,0.5-0.1h0.3c0.3,0,0.6,0,0.9,0.1
			c0.6,0.2,1.2,0.4,1.7,0.7h0.1c0.7,0.2,1.5,0.4,2.3,0.3c1.1,0,2.3-0.2,3.5-0.3c1.4-0.2,2.9,0,4.1,0.7c0.8,0.6,1.6,1.3,2.3,2.1
			c0.9,0.7,1.8,1.2,2.9,1.6c7.5,2.9,15.8,2.7,23.1-0.5c0.7-0.4,1.5-0.6,2.3-0.6c0.6,0.1,1.2,0.4,1.7,0.7c0.5,0.3,1,0.6,1.6,0.9
			c0.5,0.8,0.8,1.6,1,2.5C866.4,356.6,866.3,358.3,865.9,360z"/>
		<path class="st12" d="M873.5,354.3c-3.5-1.1-6.8-2.5-9.9-4.3c-0.5-0.3-1.1-0.6-1.7-0.7c-0.8,0-1.6,0.2-2.3,0.6
			c-7.3,3.2-15.6,3.3-23.1,0.5c-1-0.4-2-0.9-2.9-1.6c-0.7-0.7-1.5-1.4-2.3-2.1c-2.9-1.9-6.8,0.3-10-0.9c-0.6-0.3-1.1-0.5-1.7-0.7
			c-2.5-0.6-5.1,1.9-7.6,1.1c-0.9,2.5-1.6,5.1-2,7.7c-0.4,3-0.5,6.1-0.6,9.1c0,1.8-0.1,3.7,0,5.5c0.6,0.1,1.2,0.5,1.5,1
			c0.2,0.6,0.2,1.3-0.1,1.9c-1.8,4.7-3.7,9.4-6.4,13.6c1.9,1.2,3.7,2.5,5.4,4.1c3,3.2,4.5,7.7,7.8,10.7c3.7,3.3,9,4.2,13.9,4.8
			l12.4,1.7c2.1,0.4,4.2,0.5,6.4,0.2c1.2-0.2,2.3-0.6,3.4-1.1c0.7-0.3,1.3-0.7,1.9-1.3c0.5-0.5,0.8-1.1,1.1-1.7c1-2,1.9-4,2.7-6
			c0.3-0.7,0.7-1.6,1.5-1.6c4.6-4.2,8.9-8.4,13.6-12.6c1.9-1.5,3.5-3.3,4.9-5.2c2.3-3.4,0.2-8.2,0-12.2c0-1-0.2-2.1-0.4-3.1
			C878.1,358.7,876.4,355.1,873.5,354.3z"/>
		<path class="st11" d="M799.7,336.9c-0.7,1.4-2.4,2.1-3.6,2.9l-4.4,3c-0.6,0.5-1.4,0.8-2.2,0.7c-0.7-0.3-1.3-0.8-1.6-1.5
			c0-0.2,0-0.4,0-0.6c0-0.7,0.1-1.4,0.3-2.1c0.4-1,1.1-1.8,1.9-2.5c1.6-1.5,3.6-2.7,5.7-3.5c0.3-0.1,0.7-0.2,1-0.1
			c0.1,0,0.3,0.1,0.4,0.2c0.3,0.3,0.6,0.7,0.8,1.1C798.4,335.3,800.1,336.2,799.7,336.9z"/>
		<path class="st12" d="M810.1,346c-1.5-0.1-2.7-1.1-3.8-2.2l-3.3-3.1c-0.2-0.2-0.4-0.4-0.6-0.6c-0.2-0.3-0.3-0.7-0.4-1.1
			c-0.7-1.8-1.8-3.3-3.2-4.6c-0.2-0.3-0.6-0.5-0.9-0.7c-0.4-0.1-0.7,0-1.1,0.1c-2.1,0.7-4.1,1.9-5.7,3.5c-0.8,0.7-1.5,1.5-1.9,2.5
			c-0.2,0.7-0.3,1.4-0.3,2.1c0,2.3,0.5,4.6,1.5,6.6c0.1,0.3,0.3,0.6,0.5,1c1.2,1.9,2.5,3.7,4.1,5.3l2.1,2.3c2,2.3,4.1,4.6,6.3,6.6
			c0.8,0.8,1.7,1.5,2.8,2c1.1,0.4,2.3,0.2,3.2-0.5c0.4-0.5,0.7-1,0.9-1.7c1.3-3.5,2.6-7.1,2.7-10.8c0-1.5,0-3-0.2-4.5
			C812.7,346.7,811.6,346.1,810.1,346z"/>
		<path class="st13" d="M862.8,467.6c-0.1,8.7-0.7,17.5-1.9,26.1c-0.2,1.4-0.4,2.8-0.5,4.2c-0.3,4.1,0.2,8.1-0.2,12.2
			c-0.2,2.2-0.7,4.3-1,6.5c-1.7,9.5-2.2,19.2-1.5,28.8c1.2,16-2.5,32-0.8,48c0.2,3.1,0,6.2-0.5,9.3c-0.3,1.9-0.8,3.8-1.3,5.6
			c-1.3,4.3-2.5,8.7-3.8,13c-0.2,0.7-0.4,1.3-0.9,1.8c-0.9,0.8-2.1,1.1-3.3,1c-5-0.2-9.7-2.3-14.3-4.4c-0.5-0.2-1-0.5-1.4-0.9
			c-0.9-1-0.9-2.5-1.3-3.8s-1.5-2.5-2.2-3.8c-0.5-1.3-0.8-2.6-0.9-4c-0.6-4.4-1-8.9-1.2-13.4c-0.3-6.3,3.8-12.1,5.2-18.2
			c2.6-12.1,0.4-25,5-36.4c1.5-3.6-0.7-8-0.9-11.9c-0.1-2.5-0.4-5-1-7.5c-0.9-3.3-2.7-6.3-2.8-9.7c-0.1-2.4,0.7-4.8,1.1-7.3
			c0.5-3.6,0.5-7.2-0.1-10.7c-0.5-2.9-1.2-5.8-1.9-8.7l-0.2,0.3c-2.1,4.1-3.9,8.4-5.4,12.8c-0.7,2.1-1.3,4.3-2.2,6.4
			c-0.7,1.7-1.6,3.3-2.4,5c-3.1,5.8-5.8,11.7-8,17.9c-1.1,3-2,6.1-3,9.1l-6.4,20.8c-1.7,5.5-3.6,10.8-5.3,16.3
			c-2.4,7.8-4.8,15.6-7.6,23.2c-2.6,7.3-5.7,14.8-4.8,22.4c-2.4,1.1-5,1.7-7.7,1.6c-4.5-0.4-8.9-1.5-13-3.2
			c-1.7-0.6-3.4-1.3-4.5-2.7c-1.9-2.4-1.5-5.8-0.9-8.8c0.2-1.4,0.6-2.7,1-4c0.7-1.6,1.7-3,2.4-4.6c1.4-3,1.5-6.5,2-9.8
			c0.5-3.3,1.7-6.8,4.6-8.6c0.5-5.8,2.9-11.5,4.2-17.1c1-4.3,1.3-8.7,2.1-13c0.8-4.3,2-8.7,4.7-12.2c-0.2-3.6,0.6-7.2,2.4-10.4
			c0.4-0.7,0.8-1.4,1-2.2c0.2-0.8,0.3-1.5,0.3-2.3c0.3-3,1.6-5.9,3.7-8.1c-0.9-3.2,0.3-6.5,1.4-9.6c1.4-3.9,2-8.1,1.8-12.2
			c-0.1-1.2-0.1-2.3,0.2-3.5c0.2-0.9,0.7-1.6,1-2.4c0.2-1,0.4-2.1,0.4-3.1c0.3-4.7,2.2-9.1,4.3-13.3c1.3-2.4,0.2-5.8,0.5-8.5
			c0.5-4.5,0.9-9.2,3.2-13.2c0.4-0.7,0.9-1.5,1.2-2.2c0.5-1.1,0.7-2.3,0.7-3.5c0.1-2,0.4-3.6-0.4-5.5c4.6-3.9,11-5,17-5.2
			c6-0.3,12.2,0.3,18.1-1c1.7-0.4,3.5-0.9,5.3-1.2c4.2-0.6,8.4,0.3,12.5,1.3c-0.3,2.6,0.7,5.1,1.7,7.5
			C860.5,446.4,862.7,457,862.8,467.6z"/>
		<path class="st11" d="M842.3,469.6l-10,22.4c-0.5-2.9-1.2-5.8-1.9-8.7l-0.2,0.3v-0.5l5.4-12L842.3,469.6z"/>
		<path class="st11" d="M872.2,422.7c-0.6,0.4-1.3,0.7-2,0.7c-1.1,0-2.2-0.1-3.2-0.4l-7.8-2c-0.2-0.1-0.5-0.1-0.7-0.3
			c0.1-1.4,0.4-2.9,1.1-3.5c1.1-0.7,4.4,0.3,5.7,0.4c2.2,0.3,4.3,0.6,6.4,1.1C872,420.1,872.2,421.4,872.2,422.7z"/>
		<path class="st12" d="M878.8,371.1c0.2,0.7,0.4,1.4,0.5,2.2c0.2,1.8,0.2,3.6-0.2,5.4l-0.7,5l-0.7,5l-2.8,19.2l-0.7,4.8l-1,6.6
			c0,0.6-0.2,1.1-0.4,1.6c-0.6,1-1.6,1.6-2.7,1.6c-1.1,0-2.2-0.1-3.2-0.4l-7.8-2c-0.3-0.1-0.7-0.2-1-0.4c-0.5-0.5-0.7-1.2-0.5-1.8
			c0.1-0.7,0.4-1.3,0.5-1.9c0.2-1.3-0.3-2.6-0.2-3.9c0.2-0.8,0.5-1.6,0.9-2.3c2.6-5.8,1.1-12.5,2-18.7c0.8-4.9,2.9-9.5,6-13.4
			c1.9-2.4,4.2-4.6,6.7-6.5c1-0.8,2.5-2.3,3.7-2.6C878.9,368,878.6,370,878.8,371.1z"/>
		<path class="st13" d="M819.7,296.2c-0.6,1.8,0.3,3.8-0.1,5.7c-0.4,2.1-2.4,3.5-2.9,5.5c-0.9,3.1,1.8,6,3.7,8.6
			c7.2,9.7,6.3,23.1,3.8,34.9c-2,9.5-4.7,18.8-8.2,27.8c-1.1,2.8-2.3,5.7-4.4,7.8c4-1.1,8.2-2.3,12.2-1.2c5.1,1.4,9.5,6.3,14.6,5.2
			c3.1-0.7,5.3-3.4,8-5c5.2-2.8,11.5-1,17.3-0.1c1.3,0.3,2.6,0.2,3.8-0.2c0.9-0.5,1.7-1.2,2.3-2.1c2.6-3.3,4.1-7.3,4.5-11.6
			c0.3-4.2-1.3-8.4-4.3-11.4c-1.2-1.2-2.7-2.1-3.7-3.5c-0.9-1.6-1.4-3.4-1.4-5.3c-0.7-9.6,1.6-19.3-0.8-28.6
			c-0.9-3.3-2.3-6.4-2.7-9.8c-0.5-4.2,0.7-8.7-1-12.5c-1.3-3-4.2-5.2-7.3-6.3c-3.1-1.1-6.5-1.4-9.8-1.7
			C838.6,292.1,821.6,290,819.7,296.2z"/>
		<g class="st14">
			<path d="M824.2,350.9c-2,9.4-4.7,18.7-8.2,27.7c0.6-1.2,1.1-2.4,1.6-3.7c3.5-9,6.2-18.3,8.2-27.8c2.5-11.8,3.4-25.2-3.8-34.9
				c-1.7-2.3-4-4.8-3.9-7.5c-0.6,0.8-1.1,1.7-1.5,2.7c-0.9,3.1,1.8,6,3.7,8.6C827.6,325.7,826.7,339.1,824.2,350.9z"/>
			<path d="M819.7,301c0.7-0.9,1.2-1.9,1.5-2.9c0.1-1.3,0.1-2.6-0.1-3.9c-0.7,0.5-1.2,1.2-1.4,2C819.1,297.8,819.7,299.4,819.7,301z
				"/>
			<path d="M871.5,379.3c-0.6,0.9-1.4,1.6-2.3,2.1c-1.2,0.4-2.5,0.5-3.8,0.2c-5.8-0.9-12.2-2.7-17.3,0.1c-2.8,1.5-5,4.3-8.1,5
				c-5.1,1.1-9.5-3.8-14.6-5.2c-3.6-1-7.4-0.2-11,0.9c-0.7,1.5-1.7,2.9-2.9,4.2c4-1.1,8.2-2.3,12.2-1.2c5.1,1.4,9.5,6.3,14.6,5.2
				c3.1-0.7,5.3-3.4,8-5c5.2-2.8,11.5-1,17.3-0.1c1.3,0.3,2.6,0.2,3.8-0.2c0.9-0.5,1.7-1.2,2.3-2.1c1.6-2.1,2.8-4.4,3.6-6.9
				C872.8,377.3,872.2,378.3,871.5,379.3z"/>
		</g>
	</g>
</g>
</svg>
