<?xml version="1.0" encoding="utf-8"?>
<!-- Generator: Adobe Illustrator 24.0.1, SVG Export Plug-In . SVG Version: 6.00 Build 0)  -->
<svg version="1.1" id="Calque_1" xmlns="http://www.w3.org/2000/svg" xmlns:xlink="http://www.w3.org/1999/xlink" x="0px" y="0px"
	 viewBox="0 0 2219.3 1285.8" style="enable-background:new 0 0 2219.3 1285.8;" xml:space="preserve">
<style type="text/css">
	.st0{fill:#EB6584;}
	.st1{opacity:0.1;fill:#575EA7;enable-background:new    ;}
	.st2{fill:#423D56;}
	.st3{fill:#303042;}
	.st4{fill:#FFFFFF;}
	.st5{fill:#6AC0BC;}
	.st6{fill:#3E559A;}
	.st7{opacity:0.1;}
	.st8{fill:#CDCBCB;}
</style>
<g>
	<g>
		<circle class="st0" cx="269.5" cy="662" r="57"/>
		<circle class="st0" cx="1738.3" cy="913.4" r="31.6"/>
		<path class="st1" d="M546.6,875.7c0,134.4-79.9,181.3-178.5,181.3s-178.5-46.9-178.5-181.3s178.5-305.4,178.5-305.4
			S546.6,741.3,546.6,875.7z"/>
		<polygon class="st2" points="361.7,1036.5 363.5,924 439.6,784.8 363.8,906.3 364.6,855.8 417,755.1 364.8,842.4 364.8,842.4 
			366.3,751.4 422.4,671.3 366.5,737.1 367.5,570.3 361.7,791.1 362.1,782 305.1,694.7 361.2,799.5 355.9,901.1 355.7,898.4 
			289.9,806.5 355.5,907.9 354.9,920.6 354.8,920.8 354.8,921.9 341.3,1179.6 359.3,1179.6 361.5,1046.5 426.9,945.3 		"/>
		<path class="st2" d="M631.3,1143c348.6,0,1578.9,14.3,1578.9,31.9c0,17.6-1230.3,31.9-1578.9,31.9S0,1192.5,0,1174.9
			C0,1157.3,282.6,1143,631.3,1143z"/>
		<ellipse class="st2" cx="1963.5" cy="1227.6" rx="108.1" ry="5.5"/>
		<ellipse class="st2" cx="624.6" cy="1280.4" rx="108.1" ry="5.5"/>
		<ellipse class="st2" cx="327.7" cy="1236.2" rx="247" ry="12.5"/>
		<path class="st2" d="M1097.8,1236.2c94.6,0,575.3,5.6,575.3,12.5s-480.7,12.5-575.3,12.5s-171.3-5.6-171.3-12.5
			S1003.2,1236.2,1097.8,1236.2z"/>
		<circle class="st3" cx="110.5" cy="1044.9" r="89.9"/>
		
			<rect x="57.6" y="1126" transform="matrix(1.178227e-02 -0.9999 0.9999 1.178227e-02 -1058.4529 1208.2689)" class="st3" width="48.9" height="27.3"/>
		
			<rect x="112.2" y="1126.6" transform="matrix(1.178227e-02 -0.9999 0.9999 1.178227e-02 -1005.1088 1263.5328)" class="st3" width="48.9" height="27.3"/>
		
			<ellipse transform="matrix(1.178222e-02 -0.9999 0.9999 1.178222e-02 -1074.8915 1241.9291)" class="st3" cx="90.9" cy="1164.8" rx="8.5" ry="22.8"/>
		
			<ellipse transform="matrix(1.178222e-02 -0.9999 0.9999 1.178222e-02 -1020.396 1296.0815)" class="st3" cx="145.5" cy="1164.3" rx="8.5" ry="22.8"/>
		<circle class="st4" cx="113" cy="1022.2" r="30.7"/>
		<circle class="st2" cx="113" cy="1022.2" r="10.2"/>
		<path class="st5" d="M24.3,960.3C17.4,927.7,41,895.1,77,887.5c36-7.6,70.7,12.7,77.6,45.3c6.9,32.6-17,44.3-53,51.9
			S31.1,992.9,24.3,960.3z"/>
		<path class="st6" d="M247.7,1095.1c0,62.7-37.3,84.6-83.2,84.6c-1.1,0-2.1,0-3.2,0c-2.1,0-4.2-0.1-6.3-0.3
			c-41.5-2.9-73.7-26-73.7-84.3c0-60.3,77.1-136.5,82.9-142.1l0,0c0.2-0.2,0.3-0.3,0.3-0.3S247.7,1032.4,247.7,1095.1z"/>
		<path class="st2" d="M161.4,1170.1l30.4-42.5l-30.5,47.2l-0.1,4.9c-2.1,0-4.2-0.1-6.3-0.3l3.3-62.7l0-0.5l0.1-0.1l0.3-5.9
			l-30.6-47.3l30.7,42.9l0.1,1.3l2.5-47.4l-26.2-48.9l26.5,40.6l2.6-98.2l0-0.3v0.3l-0.4,77.5l26.1-30.7l-26.2,37.4l-0.7,42.4
			l24.3-40.7l-24.4,47l-0.4,23.6l35.3-56.7l-35.5,64.9L161.4,1170.1z"/>
		<path class="st6" d="M650.6,1083.6c0,57.5-34.2,77.6-76.4,77.6c-1,0-2,0-2.9,0c-2,0-3.9-0.1-5.8-0.3
			c-38.1-2.7-67.7-23.8-67.7-77.3c0-55.4,70.8-125.3,76.1-130.4l0,0c0.2-0.2,0.3-0.3,0.3-0.3S650.6,1026.1,650.6,1083.6z"/>
		<path class="st2" d="M571.4,1152.4l27.9-39l-28,43.3l-0.1,4.5c-2,0-3.9-0.1-5.8-0.3l3-57.6l0-0.4l0.1-0.1l0.3-5.4l-28.1-43.4
			l28.2,39.4l0.1,1.2l2.3-43.5l-24-44.9l24.3,37.3l2.4-90.2l0-0.3v0.3l-0.4,71.1l23.9-28.2l-24,34.3l-0.6,38.9l22.4-37.4l-22.4,43.1
			l-0.4,21.7l32.4-52l-32.6,59.6L571.4,1152.4z"/>
		
			<ellipse transform="matrix(0.372 -0.9282 0.9282 0.372 -943.7618 750.6118)" class="st3" cx="82.9" cy="1072.8" rx="14.1" ry="45"/>
	</g>
	<g>
		<g>
			<g>
				<path class="st6" d="M1166.3,527.2h27.1v38.3h-27.1v51.7h-47.5v-51.7h-98l-2.1-29.9l99.7-157.5h48V527.2z M1065.9,527.2h52.9
					v-84.4l-3.1,5.4L1065.9,527.2z"/>
				<path class="st6" d="M1379.8,518.3c0,33.1-6.8,58.4-20.5,75.9c-13.7,17.5-33.7,26.3-60.1,26.3c-26.1,0-46-8.6-59.8-25.8
					c-13.8-17.2-20.9-41.8-21.2-73.9v-44c0-33.4,6.9-58.7,20.8-76c13.8-17.3,33.8-25.9,59.9-25.9c26.1,0,46,8.6,59.8,25.7
					c13.8,17.1,20.9,41.7,21.2,73.8V518.3z M1332.3,469.9c0-19.8-2.7-34.3-8.1-43.3c-5.4-9-13.9-13.6-25.4-13.6
					c-11.2,0-19.4,4.3-24.7,12.9c-5.3,8.6-8.1,22.1-8.5,40.4v58.2c0,19.5,2.7,34,8,43.5c5.3,9.5,13.8,14.2,25.5,14.2
					c11.6,0,20-4.5,25.1-13.6c5.1-9.1,7.8-23,8-41.8V469.9z"/>
				<path class="st6" d="M1552.2,527.2h27.1v38.3h-27.1v51.7h-47.5v-51.7h-98l-2.1-29.9l99.7-157.5h48V527.2z M1451.9,527.2h52.9
					v-84.4l-3.1,5.4L1451.9,527.2z"/>
			</g>
			<g>
				<path class="st2" d="M1098,708.7h-50.6V743h59.4v21.2H1021v-128h85.6v21.4h-59.2v30.5h50.6V708.7z"/>
				<path class="st2" d="M1169.7,717.4h-21v46.9h-26.4v-128h47.6c15.1,0,26.8,3.4,35,10.1c8.2,6.7,12.3,16.3,12.3,28.6
					c0,8.7-1.9,16-5.7,21.8c-3.8,5.8-9.5,10.5-17.2,13.9L1222,763v1.2h-28.3L1169.7,717.4z M1148.7,696h21.3
					c6.6,0,11.7-1.7,15.4-5.1c3.6-3.4,5.5-8,5.5-13.9c0-6-1.7-10.8-5.1-14.2c-3.4-3.5-8.7-5.2-15.8-5.2h-21.2V696z"/>
				<path class="st2" d="M1284.6,717.4h-21v46.9h-26.4v-128h47.6c15.1,0,26.8,3.4,35,10.1c8.2,6.7,12.3,16.3,12.3,28.6
					c0,8.7-1.9,16-5.7,21.8c-3.8,5.8-9.5,10.5-17.2,13.9l27.7,52.3v1.2h-28.3L1284.6,717.4z M1263.6,696h21.3
					c6.6,0,11.7-1.7,15.4-5.1c3.6-3.4,5.5-8,5.5-13.9c0-6-1.7-10.8-5.1-14.2c-3.4-3.5-8.7-5.2-15.8-5.2h-21.2V696z"/>
				<path class="st2" d="M1457.2,703.1c0,12.6-2.2,23.6-6.7,33.1c-4.5,9.5-10.8,16.8-19.1,22c-8.3,5.2-17.8,7.7-28.5,7.7
					c-10.6,0-20.1-2.5-28.4-7.6c-8.3-5.1-14.8-12.4-19.3-21.8c-4.6-9.5-6.9-20.3-6.9-32.7v-6.3c0-12.6,2.3-23.7,6.8-33.3
					c4.5-9.6,11-16.9,19.3-22.1c8.3-5.1,17.8-7.7,28.4-7.7s20.1,2.6,28.4,7.7c8.3,5.1,14.7,12.5,19.3,22.1
					c4.5,9.6,6.8,20.6,6.8,33.2V703.1z M1430.5,697.3c0-13.4-2.4-23.6-7.2-30.6c-4.8-7-11.7-10.5-20.6-10.5
					c-8.8,0-15.7,3.4-20.5,10.3c-4.8,6.9-7.2,17-7.3,30.3v6.2c0,13.1,2.4,23.2,7.2,30.4c4.8,7.2,11.7,10.8,20.7,10.8
					c8.8,0,15.6-3.5,20.4-10.4c4.7-6.9,7.1-17.1,7.2-30.4V697.3z"/>
				<path class="st2" d="M1523.8,717.4h-21v46.9h-26.4v-128h47.6c15.1,0,26.8,3.4,35,10.1c8.2,6.7,12.3,16.3,12.3,28.6
					c0,8.7-1.9,16-5.7,21.8c-3.8,5.8-9.5,10.5-17.2,13.9l27.7,52.3v1.2h-28.3L1523.8,717.4z M1502.8,696h21.3
					c6.6,0,11.7-1.7,15.4-5.1c3.6-3.4,5.5-8,5.5-13.9c0-6-1.7-10.8-5.1-14.2c-3.4-3.5-8.7-5.2-15.8-5.2h-21.2V696z"/>
			</g>
		</g>
		<g>
			<path class="st6" d="M1024.5,811.4h-5.4V785h5.4V811.4z"/>
			<path class="st6" d="M1035,807h11.5v4.4h-17V785h5.4V807z"/>
			<path class="st6" d="M1072.6,804.5c0-1-0.4-1.8-1.1-2.4c-0.7-0.5-2-1.1-3.9-1.7c-1.9-0.6-3.4-1.2-4.5-1.8c-3-1.6-4.5-3.8-4.5-6.5
				c0-1.4,0.4-2.7,1.2-3.8c0.8-1.1,2-2,3.5-2.6c1.5-0.6,3.2-0.9,5.1-0.9c1.9,0,3.6,0.3,5,1c1.5,0.7,2.6,1.6,3.4,2.9s1.2,2.7,1.2,4.2
				h-5.4c0-1.2-0.4-2.1-1.1-2.8c-0.8-0.7-1.8-1-3.2-1c-1.3,0-2.4,0.3-3.1,0.8c-0.7,0.6-1.1,1.3-1.1,2.2c0,0.9,0.4,1.6,1.3,2.2
				s2.1,1.1,3.8,1.6c3.1,0.9,5.3,2.1,6.8,3.5c1.4,1.4,2.1,3.1,2.1,5.1c0,2.3-0.9,4.1-2.6,5.4s-4.1,1.9-7,1.9c-2,0-3.9-0.4-5.5-1.1
				s-2.9-1.8-3.8-3.1c-0.9-1.3-1.3-2.8-1.3-4.5h5.5c0,2.9,1.7,4.4,5.2,4.4c1.3,0,2.3-0.3,3-0.8
				C1072.2,806.2,1072.6,805.4,1072.6,804.5z"/>
			<path class="st6" d="M1097.6,800h-10.4v7.1h12.3v4.4h-17.7V785h17.7v4.4h-12.2v6.3h10.4V800z"/>
			<path class="st6" d="M1109.7,785l6.8,19.1l6.7-19.1h7.1v26.4h-5.5v-7.2l0.5-12.5l-7.1,19.7h-3.7l-7.1-19.6l0.5,12.4v7.2h-5.4V785
				H1109.7z"/>
			<path class="st6" d="M1135.1,811.4V785h9.2c3.2,0,5.6,0.6,7.3,1.8c1.7,1.2,2.5,3,2.5,5.4c0,1.3-0.3,2.4-1,3.4
				c-0.7,1-1.6,1.7-2.8,2.2c1.4,0.3,2.4,1,3.2,2c0.8,1,1.2,2.3,1.2,3.8c0,2.5-0.8,4.5-2.4,5.8c-1.6,1.3-3.9,2-6.9,2H1135.1z
				 M1140.6,796.1h4c2.7,0,4.1-1.1,4.1-3.3c0-1.2-0.3-2.1-1-2.6c-0.7-0.5-1.8-0.8-3.3-0.8h-3.8V796.1z M1140.6,799.9v7.1h4.7
				c1.3,0,2.3-0.3,3-0.9s1.1-1.5,1.1-2.5c0-2.4-1.3-3.6-3.8-3.7H1140.6z"/>
			<path class="st6" d="M1164.2,807h11.5v4.4h-17V785h5.4V807z"/>
			<path class="st6" d="M1194.8,800h-10.4v7.1h12.3v4.4h-17.7V785h17.7v4.4h-12.2v6.3h10.4V800z"/>
			<path class="st6" d="M1209.6,801.7h-4.3v9.7h-5.4V785h9.8c3.1,0,5.5,0.7,7.2,2.1c1.7,1.4,2.5,3.4,2.5,5.9c0,1.8-0.4,3.3-1.2,4.5
				c-0.8,1.2-2,2.2-3.5,2.9l5.7,10.8v0.3h-5.8L1209.6,801.7z M1205.2,797.3h4.4c1.4,0,2.4-0.3,3.2-1c0.8-0.7,1.1-1.7,1.1-2.9
				c0-1.2-0.4-2.2-1.1-2.9s-1.8-1.1-3.3-1.1h-4.4V797.3z"/>
			<path class="st6" d="M1238.4,806h-9.5l-1.8,5.4h-5.8l9.8-26.4h5l9.9,26.4h-5.8L1238.4,806z M1230.3,801.6h6.6l-3.3-9.9
				L1230.3,801.6z"/>
			<path class="st6" d="M1254.2,811.4h-5.4V785h5.4V811.4z"/>
			<path class="st6" d="M1278.6,789.4h-8.1v22h-5.4v-22h-8V785h21.5V789.4z"/>
			<path class="st6" d="M1311.5,798.8c0,2.5-0.4,4.6-1.2,6.4c-0.8,1.8-1.9,3.3-3.3,4.4l4.4,3.4l-3.5,3.1l-5.6-4.5
				c-0.6,0.1-1.3,0.2-2,0.2c-2.2,0-4.1-0.5-5.9-1.6c-1.7-1.1-3-2.6-4-4.5c-0.9-2-1.4-4.2-1.4-6.7v-1.3c0-2.6,0.5-4.9,1.4-6.9
				c0.9-2,2.3-3.5,4-4.5c1.7-1.1,3.7-1.6,5.9-1.6s4.2,0.5,5.9,1.6s3,2.6,4,4.5c0.9,2,1.4,4.3,1.4,6.8V798.8z M1306,797.6
				c0-2.8-0.5-4.9-1.5-6.3c-1-1.4-2.4-2.2-4.2-2.2c-1.8,0-3.2,0.7-4.2,2.1c-1,1.4-1.5,3.5-1.5,6.2v1.3c0,2.7,0.5,4.8,1.5,6.3
				s2.4,2.2,4.3,2.2c1.8,0,3.2-0.7,4.2-2.1c1-1.4,1.5-3.5,1.5-6.3V797.6z"/>
			<path class="st6" d="M1335.5,785v17.4c0,2.9-0.9,5.2-2.7,6.9c-1.8,1.7-4.3,2.5-7.4,2.5c-3.1,0-5.5-0.8-7.3-2.4
				c-1.8-1.6-2.7-3.9-2.8-6.7V785h5.4v17.4c0,1.7,0.4,3,1.2,3.8c0.8,0.8,2,1.2,3.4,1.2c3.1,0,4.6-1.6,4.7-4.8V785H1335.5z"/>
			<path class="st6" d="M1355.8,800h-10.4v7.1h12.3v4.4h-17.7V785h17.7v4.4h-12.2v6.3h10.4V800z"/>
			<path class="st6" d="M1390.8,802.6c-0.2,2.8-1.3,5.1-3.1,6.7c-1.9,1.6-4.4,2.4-7.5,2.4c-3.4,0-6-1.1-8-3.4s-2.9-5.4-2.9-9.4v-1.6
				c0-2.5,0.4-4.8,1.3-6.7c0.9-1.9,2.2-3.4,3.8-4.4s3.6-1.5,5.8-1.5c3,0,5.5,0.8,7.4,2.4c1.9,1.6,2.9,3.9,3.2,6.9h-5.4
				c-0.1-1.7-0.6-2.9-1.4-3.7c-0.8-0.8-2.1-1.2-3.7-1.2c-1.8,0-3.2,0.6-4.1,1.9s-1.4,3.3-1.4,6v2c0,2.9,0.4,4.9,1.3,6.3
				c0.9,1.3,2.2,2,4.1,2c1.7,0,2.9-0.4,3.8-1.2c0.8-0.8,1.3-2,1.4-3.6H1390.8z"/>
			<path class="st6" d="M1410.2,800h-10.4v7.1h12.3v4.4h-17.7V785h17.7v4.4h-12.2v6.3h10.4V800z"/>
			<path class="st6" d="M1435.4,789.4h-8.1v22h-5.4v-22h-8V785h21.5V789.4z"/>
			<path class="st6" d="M1458.7,789.4h-8.1v22h-5.4v-22h-8V785h21.5V789.4z"/>
			<path class="st6" d="M1477.7,800h-10.4v7.1h12.3v4.4h-17.7V785h17.7v4.4h-12.2v6.3h10.4V800z"/>
			<path class="st6" d="M1497.4,802.1v9.3h-5.4V785h10.3c2,0,3.7,0.4,5.2,1.1c1.5,0.7,2.7,1.8,3.5,3.1s1.2,2.9,1.2,4.6
				c0,2.6-0.9,4.6-2.7,6.1s-4.2,2.2-7.3,2.2H1497.4z M1497.4,797.7h4.9c1.4,0,2.5-0.3,3.3-1c0.8-0.7,1.1-1.6,1.1-2.9
				c0-1.3-0.4-2.3-1.1-3.1c-0.8-0.8-1.8-1.2-3.2-1.2h-5V797.7z"/>
			<path class="st6" d="M1527.5,806h-9.5l-1.8,5.4h-5.8l9.8-26.4h5l9.9,26.4h-5.8L1527.5,806z M1519.5,801.6h6.6l-3.3-9.9
				L1519.5,801.6z"/>
			<path class="st6" d="M1558.1,808.1c-1,1.2-2.4,2.1-4.2,2.7c-1.8,0.6-3.8,1-5.9,1c-2.3,0-4.3-0.5-6-1.5c-1.7-1-3.1-2.4-4-4.3
				c-0.9-1.9-1.4-4.1-1.4-6.7v-1.8c0-2.6,0.4-4.9,1.3-6.8c0.9-1.9,2.2-3.4,3.8-4.4c1.7-1,3.6-1.5,5.9-1.5c3.1,0,5.6,0.7,7.3,2.2
				s2.8,3.7,3.1,6.5h-5.3c-0.2-1.5-0.8-2.6-1.6-3.3s-2-1.1-3.4-1.1c-1.8,0-3.3,0.7-4.2,2.1s-1.5,3.5-1.5,6.2v1.7
				c0,2.8,0.5,4.9,1.6,6.3c1.1,1.4,2.6,2.1,4.6,2.1c2,0,3.5-0.4,4.4-1.3v-4.5h-4.9v-4h10.4V808.1z"/>
			<path class="st6" d="M1578.4,800H1568v7.1h12.3v4.4h-17.7V785h17.7v4.4H1568v6.3h10.4V800z"/>
			<path class="st6" d="M1032.4,849c0-1-0.4-1.8-1.1-2.4c-0.7-0.5-2-1.1-3.9-1.7c-1.9-0.6-3.4-1.2-4.5-1.8c-3-1.6-4.5-3.8-4.5-6.5
				c0-1.4,0.4-2.7,1.2-3.8c0.8-1.1,2-2,3.5-2.6c1.5-0.6,3.2-0.9,5.1-0.9c1.9,0,3.6,0.3,5,1c1.5,0.7,2.6,1.6,3.4,2.9s1.2,2.7,1.2,4.2
				h-5.4c0-1.2-0.4-2.1-1.1-2.8c-0.8-0.7-1.8-1-3.2-1c-1.3,0-2.4,0.3-3.1,0.8c-0.7,0.6-1.1,1.3-1.1,2.2c0,0.9,0.4,1.6,1.3,2.2
				s2.1,1.1,3.8,1.6c3.1,0.9,5.3,2.1,6.8,3.5c1.4,1.4,2.1,3.1,2.1,5.1c0,2.3-0.9,4.1-2.6,5.4s-4.1,1.9-7,1.9c-2,0-3.9-0.4-5.5-1.1
				c-1.7-0.7-2.9-1.8-3.8-3.1c-0.9-1.3-1.3-2.8-1.3-4.5h5.5c0,2.9,1.7,4.4,5.2,4.4c1.3,0,2.3-0.3,3-0.8
				C1032.1,850.7,1032.4,850,1032.4,849z"/>
			<path class="st6" d="M1057.4,844.5H1047v7.1h12.3v4.4h-17.7v-26.4h17.7v4.4H1047v6.3h10.4V844.5z"/>
			<path class="st6" d="M1085.4,849c0-1-0.4-1.8-1.1-2.4c-0.7-0.5-2-1.1-3.9-1.7c-1.9-0.6-3.4-1.2-4.5-1.8c-3-1.6-4.5-3.8-4.5-6.5
				c0-1.4,0.4-2.7,1.2-3.8c0.8-1.1,2-2,3.5-2.6c1.5-0.6,3.2-0.9,5.1-0.9c1.9,0,3.6,0.3,5,1c1.5,0.7,2.6,1.6,3.4,2.9s1.2,2.7,1.2,4.2
				h-5.4c0-1.2-0.4-2.1-1.1-2.8c-0.8-0.7-1.8-1-3.2-1c-1.3,0-2.4,0.3-3.1,0.8c-0.7,0.6-1.1,1.3-1.1,2.2c0,0.9,0.4,1.6,1.3,2.2
				s2.1,1.1,3.8,1.6c3.1,0.9,5.3,2.1,6.8,3.5c1.4,1.4,2.1,3.1,2.1,5.1c0,2.3-0.9,4.1-2.6,5.4s-4.1,1.9-7,1.9c-2,0-3.9-0.4-5.5-1.1
				s-2.9-1.8-3.8-3.1c-0.9-1.3-1.3-2.8-1.3-4.5h5.5c0,2.9,1.7,4.4,5.2,4.4c1.3,0,2.3-0.3,3-0.8C1085,850.7,1085.4,850,1085.4,849z"
				/>
			<path class="st6" d="M1116.2,843.4c0,2.6-0.5,4.9-1.4,6.8c-0.9,2-2.2,3.5-3.9,4.5c-1.7,1.1-3.7,1.6-5.9,1.6
				c-2.2,0-4.1-0.5-5.9-1.6c-1.7-1.1-3-2.6-4-4.5c-0.9-2-1.4-4.2-1.4-6.7v-1.3c0-2.6,0.5-4.9,1.4-6.9c0.9-2,2.3-3.5,4-4.5
				s3.7-1.6,5.9-1.6s4.2,0.5,5.9,1.6s3,2.6,4,4.5s1.4,4.3,1.4,6.8V843.4z M1110.7,842.2c0-2.8-0.5-4.9-1.5-6.3
				c-1-1.4-2.4-2.2-4.2-2.2c-1.8,0-3.2,0.7-4.2,2.1c-1,1.4-1.5,3.5-1.5,6.2v1.3c0,2.7,0.5,4.8,1.5,6.3s2.4,2.2,4.3,2.2
				c1.8,0,3.2-0.7,4.2-2.1c1-1.4,1.5-3.5,1.5-6.3V842.2z"/>
			<path class="st6" d="M1125.9,856h-5.4v-26.4h5.4V856z"/>
			<path class="st6" d="M1150.3,834h-8.1v22h-5.4v-22h-8v-4.4h21.5V834z"/>
			<path class="st6" d="M1177.4,845.2H1167V856h-5.4v-26.4h17.2v4.4H1167v6.8h10.4V845.2z"/>
			<path class="st6" d="M1193.3,850.5h-9.5l-1.8,5.4h-5.8l9.8-26.4h5l9.9,26.4h-5.8L1193.3,850.5z M1185.2,846.1h6.6l-3.3-9.9
				L1185.2,846.1z"/>
			<path class="st6" d="M1209.2,856h-5.4v-26.4h5.4V856z"/>
			<path class="st6" d="M1233.5,834h-8.1v22h-5.4v-22h-8v-4.4h21.5V834z"/>
			<path class="st6" d="M1260.7,844.5h-10.4v7.1h12.3v4.4h-17.7v-26.4h17.7v4.4h-12.2v6.3h10.4V844.5z"/>
			<path class="st6" d="M1287.1,856h-5.4l-10.6-17.4V856h-5.4v-26.4h5.4l10.6,17.4v-17.4h5.4V856z"/>
			<path class="st6" d="M1297.3,851.6h11.5v4.4h-17v-26.4h5.4V851.6z"/>
			<path class="st6" d="M1327.9,844.5h-10.4v7.1h12.3v4.4H1312v-26.4h17.7v4.4h-12.2v6.3h10.4V844.5z"/>
			<path class="st6" d="M1342.6,849.4l6-19.8h6.1l-9.2,26.4h-5.7l-9.2-26.4h6L1342.6,849.4z"/>
			<path class="st6" d="M1373,844.5h-10.4v7.1h12.3v4.4h-17.7v-26.4h17.7v4.4h-12.2v6.3h10.4V844.5z"/>
			<path class="st6" d="M1387.8,846.3h-4.3v9.7h-5.4v-26.4h9.8c3.1,0,5.5,0.7,7.2,2.1c1.7,1.4,2.5,3.4,2.5,5.9
				c0,1.8-0.4,3.3-1.2,4.5c-0.8,1.2-2,2.2-3.5,2.9l5.7,10.8v0.3h-5.8L1387.8,846.3z M1383.4,841.9h4.4c1.4,0,2.4-0.3,3.2-1
				c0.7-0.7,1.1-1.7,1.1-2.9c0-1.2-0.4-2.2-1.1-2.9s-1.8-1.1-3.3-1.1h-4.4V841.9z"/>
			<path class="st6" d="M1402.7,862.6l-2.7-1.4l0.7-1.2c0.8-1.5,1.2-2.9,1.3-4.4v-4.1h4.4l0,3.6c0,1.3-0.4,2.7-1,4.1
				C1404.6,860.5,1403.8,861.7,1402.7,862.6z"/>
			<path class="st6" d="M1441.7,843.4c0,2.6-0.5,4.9-1.4,6.8s-2.2,3.5-3.9,4.5c-1.7,1.1-3.7,1.6-5.9,1.6c-2.2,0-4.1-0.5-5.9-1.6
				c-1.7-1.1-3-2.6-4-4.5c-0.9-2-1.4-4.2-1.4-6.7v-1.3c0-2.6,0.5-4.9,1.4-6.9s2.3-3.5,4-4.5c1.7-1.1,3.7-1.6,5.9-1.6
				s4.2,0.5,5.9,1.6c1.7,1.1,3,2.6,4,4.5s1.4,4.3,1.4,6.8V843.4z M1436.2,842.2c0-2.8-0.5-4.9-1.5-6.3c-1-1.4-2.4-2.2-4.2-2.2
				c-1.8,0-3.2,0.7-4.2,2.1c-1,1.4-1.5,3.5-1.5,6.2v1.3c0,2.7,0.5,4.8,1.5,6.3c1,1.5,2.4,2.2,4.3,2.2c1.8,0,3.2-0.7,4.2-2.1
				c1-1.4,1.5-3.5,1.5-6.3V842.2z"/>
			<path class="st6" d="M1465.6,829.6v17.4c0,2.9-0.9,5.2-2.7,6.9c-1.8,1.7-4.3,2.5-7.4,2.5c-3.1,0-5.5-0.8-7.3-2.4
				c-1.8-1.6-2.7-3.9-2.8-6.7v-17.6h5.4V847c0,1.7,0.4,3,1.2,3.8c0.8,0.8,2,1.2,3.4,1.2c3.1,0,4.6-1.6,4.7-4.8v-17.6H1465.6z"/>
			<path class="st6" d="M1475.5,846.7v9.3h-5.4v-26.4h10.3c2,0,3.7,0.4,5.2,1.1c1.5,0.7,2.7,1.8,3.5,3.1c0.8,1.3,1.2,2.9,1.2,4.6
				c0,2.6-0.9,4.6-2.7,6.1c-1.8,1.5-4.2,2.2-7.3,2.2H1475.5z M1475.5,842.2h4.9c1.4,0,2.5-0.3,3.3-1s1.1-1.6,1.1-2.9
				c0-1.3-0.4-2.3-1.1-3.1c-0.8-0.8-1.8-1.2-3.2-1.2h-5V842.2z"/>
			<path class="st6" d="M1507.7,849c0-1-0.4-1.8-1.1-2.4c-0.7-0.5-2-1.1-3.9-1.7c-1.9-0.6-3.4-1.2-4.5-1.8c-3-1.6-4.5-3.8-4.5-6.5
				c0-1.4,0.4-2.7,1.2-3.8c0.8-1.1,2-2,3.5-2.6c1.5-0.6,3.2-0.9,5.1-0.9c1.9,0,3.6,0.3,5,1c1.5,0.7,2.6,1.6,3.4,2.9
				c0.8,1.2,1.2,2.7,1.2,4.2h-5.4c0-1.2-0.4-2.1-1.1-2.8c-0.8-0.7-1.8-1-3.2-1c-1.3,0-2.4,0.3-3.1,0.8c-0.7,0.6-1.1,1.3-1.1,2.2
				c0,0.9,0.4,1.6,1.3,2.2s2.1,1.1,3.8,1.6c3.1,0.9,5.3,2.1,6.8,3.5c1.4,1.4,2.1,3.1,2.1,5.1c0,2.3-0.9,4.1-2.6,5.4s-4.1,1.9-7,1.9
				c-2,0-3.9-0.4-5.5-1.1c-1.7-0.7-2.9-1.8-3.8-3.1c-0.9-1.3-1.3-2.8-1.3-4.5h5.5c0,2.9,1.7,4.4,5.2,4.4c1.3,0,2.3-0.3,3-0.8
				C1507.3,850.7,1507.7,850,1507.7,849z"/>
			<path class="st6" d="M1516.8,853.4c0-0.8,0.3-1.5,0.8-2c0.6-0.5,1.3-0.8,2.1-0.8c0.9,0,1.6,0.3,2.1,0.8c0.6,0.5,0.8,1.2,0.8,2
				c0,0.8-0.3,1.5-0.8,2c-0.6,0.5-1.3,0.8-2.1,0.8c-0.9,0-1.6-0.3-2.1-0.8C1517,854.9,1516.8,854.2,1516.8,853.4z"/>
			<path class="st6" d="M1527.5,853.4c0-0.8,0.3-1.5,0.8-2c0.6-0.5,1.3-0.8,2.1-0.8c0.9,0,1.6,0.3,2.1,0.8c0.6,0.5,0.8,1.2,0.8,2
				c0,0.8-0.3,1.5-0.8,2c-0.6,0.5-1.3,0.8-2.1,0.8c-0.9,0-1.6-0.3-2.1-0.8C1527.8,854.9,1527.5,854.2,1527.5,853.4z"/>
			<path class="st6" d="M1538.3,853.4c0-0.8,0.3-1.5,0.8-2c0.6-0.5,1.3-0.8,2.1-0.8c0.9,0,1.6,0.3,2.1,0.8c0.6,0.5,0.8,1.2,0.8,2
				c0,0.8-0.3,1.5-0.8,2c-0.6,0.5-1.3,0.8-2.1,0.8c-0.9,0-1.6-0.3-2.1-0.8C1538.6,854.9,1538.3,854.2,1538.3,853.4z"/>
		</g>
	</g>
	<g>
		<path class="st1" d="M2219.3,715.4c0,205.2-122,276.9-272.5,276.9s-272.5-71.7-272.5-276.9s272.5-466.3,272.5-466.3
			S2219.3,510.2,2219.3,715.4z"/>
		<polygon class="st2" points="1936.9,960.9 1939.7,789.2 2055.9,576.7 1940.1,762.2 1941.4,685 2021.4,531.3 1941.7,664.6 
			1941.7,664.6 1944,525.7 2029.7,403.3 1944.3,503.8 1945.8,249.1 1936.9,586.3 1937.6,572.4 1850.5,439 1936.2,599.1 
			1928.1,754.2 1927.9,750.1 1827.4,609.7 1927.6,764.6 1926.5,784 1926.4,784.3 1926.4,785.9 1905.8,1179.5 1933.4,1179.5 
			1936.7,976.2 2036.6,821.6 		"/>
	</g>
	<g>
		<path class="st6" d="M882.3,197.8c-61.6-9.8-131.7-15.1-204.7-15.1c-66.8,0-131.2,4.4-188.8,12.6c0-0.9,0-1.8,0.1-2.7
			C492.1,84.1,582.8-1.3,691.4,2c105,3.1,189,88.2,190.9,193.2C882.3,196.1,882.3,196.9,882.3,197.8z"/>
		<g class="st7">
			<path class="st4" d="M711.4,1.8C603.6-12.8,504.5,62.8,490,170.5c-0.9,6.8-1.5,13.6-1.7,20.4c0,0.9-0.1,1.8-0.1,2.7
				c17.1-2.5,34.8-4.6,53-6.3C545.9,92.5,617.4,14.5,711.4,1.8z"/>
		</g>
		<path class="st2" d="M968.3,213.4c-28.3-7.7-57.1-13.8-86.1-18.3c-47.6-7.4-95.5-12-143.6-13.8c-20-0.8-40.4-1.2-61.1-1.2
			c-16.3,0-32.6,0.3-48.6,0.8c-46.9,1.4-93.7,5.3-140.2,11.8c-34.4,4.7-68.5,11.6-102,20.7C308.7,235,265.7,264,265.7,295
			s43.1,59.9,121.2,81.6c55,15.2,122.8,25.6,196.6,30.3c30.5,2,62,3,94.1,3c32.2,0,63.8-1,94.4-3c67.2-4.3,129.4-13.3,181.5-26.4
			c0.3-0.1,0.5-0.1,0.8-0.2c3.5-0.9,7-1.8,10.4-2.7c1.2-0.3,2.4-0.7,3.7-1c0.1,0,0.1-0.1,0.2-0.1c1.2-0.3,2.3-0.6,3.5-1
			c2.3-0.7,4.6-1.3,6.8-2c0.1,0,0.2-0.1,0.3-0.1c1.9-0.6,3.8-1.2,5.7-1.7c1.5-0.5,3.1-1,4.6-1.5c1.1-0.4,2.2-0.7,3.3-1.1
			c0.8-0.3,1.6-0.5,2.3-0.8c1-0.3,2.1-0.7,3.1-1.1c0.4-0.1,0.9-0.3,1.3-0.4c1-0.3,2-0.7,2.9-1c1-0.4,2.1-0.8,3.1-1.1
			c0.9-0.3,1.7-0.6,2.6-0.9c0.7-0.3,1.4-0.5,2.1-0.8c1.9-0.7,3.8-1.5,5.7-2.2c0.9-0.4,1.9-0.8,2.8-1.1c0.9-0.4,1.8-0.8,2.7-1.1
			c1.5-0.6,2.9-1.2,4.4-1.9c0.7-0.3,1.4-0.6,2.1-0.9c0.5-0.2,1-0.5,1.5-0.7c0.4-0.2,0.7-0.3,1.1-0.5c1.3-0.6,2.7-1.2,3.9-1.8
			c5-2.4,9.6-4.8,13.9-7.3c27-15.5,41.2-32.6,41.2-50.4C1089.6,264,1046.5,235,968.3,213.4z M967.6,374
			c-55,15.2-123,25.6-197.1,30.3c-30.1,1.9-61.3,2.9-92.9,2.9c-31.6,0-62.6-1-92.6-2.9c-74.2-4.7-142.3-15.1-197.4-30.3
			c-76.9-21.3-119.3-49.3-119.3-79c0-2.6,0.3-5.2,1-7.8c6.7-26.8,48.2-51.8,118.3-71.2c33.3-9,67.1-15.8,101.2-20.6
			c46.8-6.5,93.8-10.5,141-11.9c15.7-0.5,31.7-0.8,47.8-0.8c20.3,0,40.5,0.4,60.2,1.2c48.4,1.8,96.6,6.4,144.4,13.9
			c28.8,4.5,57.3,10.5,85.4,18.1c70.2,19.4,111.6,44.5,118.3,71.2c0.7,2.5,1,5.2,1,7.8C1086.9,324.7,1044.6,352.7,967.6,374
			L967.6,374z"/>
		<path class="st2" d="M1088.8,296.2c0,17.6-14.5,34.3-40.5,49.2c-4.3,2.5-9,4.9-13.9,7.3c-1.3,0.6-2.6,1.2-3.9,1.8
			c-0.4,0.2-0.7,0.3-1.1,0.5c-0.5,0.2-1,0.5-1.5,0.7c-0.7,0.3-1.4,0.6-2.1,0.9c-1.4,0.6-2.9,1.2-4.4,1.9c-0.9,0.4-1.8,0.8-2.7,1.1
			c-0.9,0.4-1.9,0.8-2.8,1.1c-1.9,0.7-3.8,1.5-5.7,2.2c-0.7,0.3-1.4,0.5-2.1,0.8c-0.8,0.3-1.7,0.6-2.6,0.9c-1,0.4-2.1,0.8-3.1,1.1
			c-1,0.3-1.9,0.7-2.9,1c-0.4,0.2-0.9,0.3-1.3,0.4c-1,0.4-2.1,0.7-3.1,1.1c-0.8,0.3-1.5,0.5-2.3,0.8c-1.1,0.4-2.2,0.7-3.3,1.1
			c-1.5,0.5-3.1,1-4.6,1.5c-1.9,0.6-3.8,1.2-5.7,1.7c-0.1,0-0.2,0.1-0.3,0.1c-2.2,0.7-4.5,1.3-6.8,2c-1.1,0.3-2.3,0.6-3.5,1
			c-0.1,0-0.1,0-0.2,0.1c-1.2,0.3-2.4,0.7-3.7,1c-3.4,0.9-6.9,1.8-10.4,2.7c-0.3,0.1-0.5,0.1-0.8,0.2
			c-50.6,12.6-112.8,21.9-181.5,26.3c-30.1,1.9-61.5,3-93.8,3c-32.5,0-64.2-1-94.6-3c-181.2-11.8-316.1-56.8-316.1-110.5
			c0-3.3,0.5-6.5,1.5-9.6c0.1,0.2,0.2,0.4,0.3,0.7c18.8,49.5,152.6,89.5,326.1,99.2c26.6,1.5,54.1,2.3,82.3,2.3
			c28.3,0,55.9-0.8,82.6-2.3c173.4-9.8,306.9-49.8,325.7-99.3c0.3-0.8,0.6-1.6,0.8-2.4C1088.1,288.5,1088.8,292.3,1088.8,296.2z"/>
		<path class="st2" d="M386.7,282c-22,0-45.3-4.7-45.3-13.5c0-8.8,23.4-13.5,45.3-13.5c22,0,45.3,4.7,45.3,13.5
			C432,277.3,408.7,282,386.7,282z M386.7,257.6c-25.2,0-42.7,5.7-42.7,10.8s17.5,10.8,42.7,10.8s42.7-5.7,42.7-10.8
			S411.9,257.6,386.7,257.6z"/>
		<path class="st2" d="M480.4,344c-22,0-45.3-4.7-45.3-13.5s23.4-13.5,45.3-13.5c22,0,45.3,4.7,45.3,13.5S502.4,344,480.4,344z
			 M480.4,319.7c-25.2,0-42.7,5.7-42.7,10.8s17.5,10.8,42.7,10.8c25.2,0,42.7-5.7,42.7-10.8S505.6,319.7,480.4,319.7z"/>
		<path class="st2" d="M967.7,282c-22,0-45.3-4.7-45.3-13.5c0-8.8,23.4-13.5,45.3-13.5c22,0,45.3,4.7,45.3,13.5
			C1013,277.3,989.6,282,967.7,282z M967.7,257.6c-25.2,0-42.7,5.7-42.7,10.8s17.5,10.8,42.7,10.8s42.7-5.7,42.7-10.8
			S992.8,257.6,967.7,257.6z"/>
		<path class="st2" d="M873.9,344c-22,0-45.3-4.7-45.3-13.5s23.4-13.5,45.3-13.5c22,0,45.3,4.7,45.3,13.5S895.9,344,873.9,344z
			 M873.9,319.7c-25.2,0-42.7,5.7-42.7,10.8s17.5,10.8,42.7,10.8s42.7-5.7,42.7-10.8S899.1,319.7,873.9,319.7z"/>
		<path class="st2" d="M677.2,373.1c-22,0-45.3-4.7-45.3-13.5c0-8.8,23.4-13.5,45.3-13.5c22,0,45.3,4.7,45.3,13.5
			C722.5,368.4,699.2,373.1,677.2,373.1z M677.2,348.7c-25.2,0-42.7,5.7-42.7,10.8c0,5.1,17.5,10.8,42.7,10.8s42.7-5.7,42.7-10.8
			C719.9,354.5,702.3,348.7,677.2,348.7z"/>
		<circle class="st3" cx="703.6" cy="595.1" r="55.5"/>
		
			<rect x="657.7" y="637.4" transform="matrix(0.8941 -0.4478 0.4478 0.8941 -217.9879 369.6218)" class="st3" width="30.2" height="16.9"/>
		
			<ellipse transform="matrix(0.5505 -0.8349 0.8349 0.5505 -249.0167 839.3467)" class="st3" cx="654.9" cy="650.9" rx="5.3" ry="14"/>
		
			<rect x="726" y="630.8" transform="matrix(0.4478 -0.8941 0.8941 0.4478 -171.9362 1013.3465)" class="st3" width="16.9" height="30.2"/>
		
			<ellipse transform="matrix(0.8349 -0.5505 0.5505 0.8349 -234.0616 521.611)" class="st3" cx="752.3" cy="650.9" rx="14" ry="5.3"/>
		<circle class="st4" cx="699.7" cy="581.6" r="19"/>
		
			<ellipse transform="matrix(0.7071 -0.7071 0.7071 0.7071 -200.5058 662.8253)" class="st2" cx="699.8" cy="573.4" rx="6.3" ry="6.3"/>
		<path class="st5" d="M747.4,534.8c0.8-20.5-16.9-37.9-39.5-38.9s-41.7,15-42.6,35.5c-0.8,20.5,14.9,25.2,37.6,26.1
			C725.5,558.5,746.5,555.3,747.4,534.8z"/>
		
			<ellipse transform="matrix(0.7588 -0.6514 0.6514 0.7588 -209.2132 641.3715)" class="st3" cx="761.3" cy="603.1" rx="8.7" ry="27.7"/>
		
			<ellipse transform="matrix(0.6514 -0.7588 0.7588 0.6514 -232.3875 700.4921)" class="st3" cx="646.1" cy="603.1" rx="27.7" ry="8.7"/>
		<path class="st4" d="M718.8,617c1.3,6.9-3.3,13.4-10.2,14.7s-13.4-3.3-14.7-10.2l0,0l0,0c-1.2-6.9,4.1-9.3,10.9-10.5
			C711.8,609.7,717.6,610.1,718.8,617z"/>
		<path class="st8" d="M609.9,654.1c-1.5,0-2.6-1.2-2.6-2.6V495.7c0-1.5,1.2-2.6,2.6-2.6c1.5,0,2.6,1.2,2.6,2.6v155.8
			C612.5,653,611.3,654.1,609.9,654.1z"/>
		<path class="st8" d="M570.3,794.1c-1.5,0-2.6-1.2-2.6-2.6V677.9c0-1.5,1.2-2.6,2.6-2.6c1.5,0,2.6,1.2,2.6,2.6v113.6
			C572.9,792.9,571.7,794.1,570.3,794.1z"/>
		<path class="st8" d="M671.9,700.4c-1.5,0-2.6-1.2-2.6-2.6V541.9c0-1.5,1.2-2.6,2.6-2.6s2.6,1.2,2.6,2.6v155.8
			C674.6,699.2,673.4,700.4,671.9,700.4z"/>
		<path class="st8" d="M633.6,812.6c-1.5,0-2.6-1.2-2.6-2.6v-63.4c0-1.5,1.2-2.6,2.6-2.6s2.6,1.2,2.6,2.6v63.4
			C636.3,811.4,635.1,812.6,633.6,812.6z"/>
		<path class="st8" d="M687.8,487.8c-1.5,0-2.6-1.2-2.6-2.6v-63.4c0-1.5,1.2-2.6,2.6-2.6s2.6,1.2,2.6,2.6v63.4
			C690.4,486.6,689.2,487.8,687.8,487.8z"/>
		<path class="st8" d="M555.7,515.5c-1.5,0-2.6-1.2-2.6-2.6v-63.4c0-1.5,1.2-2.6,2.6-2.6s2.6,1.2,2.6,2.6v63.4
			C558.4,514.3,557.2,515.5,555.7,515.5z"/>
		<path class="st8" d="M785.5,522.1c-1.5,0-2.6-1.2-2.6-2.6v-63.4c0-1.5,1.2-2.6,2.6-2.6s2.6,1.2,2.6,2.6v63.4
			C788.1,520.9,787,522.1,785.5,522.1z"/>
		<path class="st8" d="M780.2,720.2c-1.5,0-2.6-1.2-2.6-2.6v-76.6c0-1.5,1.2-2.6,2.6-2.6c1.5,0,2.6,1.2,2.6,2.6v76.6
			C782.9,719,781.7,720.2,780.2,720.2z"/>
		<path class="st8" d="M727.4,787.5c-1.5,0-2.6-1.2-2.6-2.6V671.3c0-1.5,1.2-2.6,2.6-2.6s2.6,1.2,2.6,2.6v113.6
			C730,786.3,728.9,787.5,727.4,787.5z"/>
		<path class="st8" d="M738,593.4c-1.5,0-2.6-1.2-2.6-2.6V435c0-1.5,1.2-2.6,2.6-2.6s2.6,1.2,2.6,2.6v155.8
			C740.6,592.2,739.4,593.4,738,593.4z"/>
	</g>
	<g>
		
			<ellipse transform="matrix(0.7667 -0.642 0.642 0.7667 -387.939 1133.1426)" class="st3" cx="1365.3" cy="1100.4" rx="8.9" ry="28.4"/>
		<circle class="st3" cx="1304.8" cy="1090.5" r="56.9"/>
		<rect x="1311.6" y="1135.1" class="st3" width="17.3" height="31"/>
		<rect x="1277" y="1135.1" class="st3" width="17.3" height="31"/>
		<ellipse class="st3" cx="1314.5" cy="1166.5" rx="14.4" ry="5.4"/>
		<ellipse class="st3" cx="1279.9" cy="1165.7" rx="14.4" ry="5.4"/>
		<path class="st5" d="M1286.9,1019c5.1-20.4,27.5-32.5,50.1-26.9c22.6,5.6,36.8,26.7,31.7,47.2c-5.1,20.4-21.9,20.5-44.5,14.9
			C1301.6,1048.6,1281.9,1039.5,1286.9,1019z"/>
		
			<ellipse transform="matrix(0.4285 -0.9035 0.9035 0.4285 -252.4212 1729.1702)" class="st3" cx="1240.7" cy="1064.1" rx="8.9" ry="28.4"/>
		<circle class="st4" cx="1296.3" cy="1078.5" r="19"/>
		<circle class="st2" cx="1288.5" cy="1071.7" r="6.3"/>
		<circle class="st4" cx="1296.1" cy="1118.1" r="7.9"/>
	</g>
	<g>
		<circle class="st3" cx="1593.5" cy="1031.1" r="89.9"/>
		
			<rect x="1581.6" y="1105.5" transform="matrix(0.9559 -0.2938 0.2938 0.9559 -261.5457 518.4915)" class="st3" width="27.3" height="48.9"/>
		
			<rect x="1633.8" y="1089.4" transform="matrix(0.9559 -0.2938 0.2938 0.9559 -254.5255 533.116)" class="st3" width="27.3" height="48.9"/>
		
			<ellipse transform="matrix(0.9559 -0.2938 0.2938 0.9559 -267.0829 524.1475)" class="st3" cx="1611.3" cy="1151.2" rx="22.8" ry="8.5"/>
		
			<ellipse transform="matrix(0.9559 -0.2938 0.2938 0.9559 -259.7589 538.6348)" class="st3" cx="1663.2" cy="1134.1" rx="22.8" ry="8.5"/>
		<circle class="st4" cx="1589" cy="1008.6" r="30.7"/>
		<circle class="st2" cx="1589" cy="1008.6" r="10.2"/>
		<path class="st5" d="M1485.5,976.7c-16.5-28.9-4-67.2,28-85.4s71.2-9.5,87.7,19.5s-2.7,47.4-34.7,65.6S1502,1005.7,1485.5,976.7z"
			/>
		<path class="st6" d="M1733.6,1094.7c0,62.7-37.3,84.6-83.2,84.6c-1.1,0-2.1,0-3.2,0c-2.1,0-4.2-0.1-6.3-0.3
			c-41.5-2.9-73.7-26-73.7-84.3c0-60.3,77.1-136.5,82.9-142.1l0,0c0.2-0.2,0.3-0.3,0.3-0.3S1733.6,1032,1733.6,1094.7z"/>
		<path class="st2" d="M1647.3,1169.7l30.4-42.5l-30.5,47.2l-0.1,4.9c-2.1,0-4.2-0.1-6.3-0.3l3.3-62.7l0-0.5l0.1-0.1l0.3-5.9
			l-30.6-47.3l30.7,42.9l0.1,1.3l2.5-47.4l-26.2-48.9l26.5,40.6l2.6-98.2l0-0.3v0.3l-0.4,77.5l26.1-30.7l-26.2,37.4l-0.7,42.4
			l24.3-40.7l-24.4,47l-0.4,23.6l35.3-56.7l-35.5,64.9L1647.3,1169.7z"/>
		
			<ellipse transform="matrix(0.4285 -0.9035 0.9035 0.4285 -72.1426 2017.1732)" class="st3" cx="1558.6" cy="1065.6" rx="14.1" ry="45"/>
	</g>
</g>
</svg>
