<?xml version="1.0" encoding="utf-8"?>
<!-- Generator: Adobe Illustrator 24.0.1, SVG Export Plug-In . SVG Version: 6.00 Build 0)  -->
<svg version="1.1" id="Calque_1" xmlns="http://www.w3.org/2000/svg" xmlns:xlink="http://www.w3.org/1999/xlink" x="0px" y="0px"
	 viewBox="0 0 1680.4 1842.3" style="enable-background:new 0 0 1680.4 1842.3;" xml:space="preserve">
<style type="text/css">
	.st0{fill:#EB6584;}
	.st1{opacity:0.1;fill:#575EA7;enable-background:new    ;}
	.st2{fill:#423D56;}
	.st3{fill:#303042;}
	.st4{fill:#FFFFFF;}
	.st5{fill:#6AC0BC;}
	.st6{fill:#3E559A;}
	.st7{opacity:0.1;}
	.st8{fill:#CDCBCB;}
</style>
<g>
	<circle class="st0" cx="269.5" cy="1218.4" r="57"/>
	<circle class="st0" cx="1199.4" cy="1469.9" r="31.6"/>
	<path class="st1" d="M546.6,1432.1c0,134.4-79.9,181.3-178.5,181.3s-178.5-46.9-178.5-181.3s178.5-305.4,178.5-305.4
		S546.6,1297.7,546.6,1432.1z"/>
	<polygon class="st2" points="361.7,1592.9 363.5,1480.4 439.6,1341.3 363.8,1462.8 364.6,1412.2 417,1311.5 364.8,1398.8 
		364.8,1398.8 366.3,1307.9 422.4,1227.7 366.5,1293.6 367.5,1126.8 361.7,1347.6 362.1,1338.5 305.1,1251.1 361.2,1355.9 
		355.9,1457.5 355.7,1454.8 289.9,1362.9 355.5,1464.4 354.9,1477.1 354.8,1477.3 354.8,1478.3 341.3,1736 359.3,1736 361.5,1602.9 
		426.9,1501.7 	"/>
	<path class="st2" d="M631.3,1699.4c348.6,0,1040,14.3,1040,31.9s-691.3,31.9-1040,31.9S0,1749,0,1731.3S282.6,1699.4,631.3,1699.4z
		"/>
	<ellipse class="st2" cx="1424.5" cy="1784.1" rx="108.1" ry="5.5"/>
	<ellipse class="st2" cx="624.6" cy="1836.8" rx="108.1" ry="5.5"/>
	<ellipse class="st2" cx="327.7" cy="1792.6" rx="247" ry="12.5"/>
	<path class="st2" d="M1097.8,1792.6c94.6,0,36.3,5.6,36.3,12.5c0,6.9,58.3,12.5-36.3,12.5s-171.3-5.6-171.3-12.5
		C926.5,1798.2,1003.2,1792.6,1097.8,1792.6z"/>
	<circle class="st3" cx="110.5" cy="1601.4" r="89.9"/>
	
		<rect x="57.6" y="1682.4" transform="matrix(1.178227e-02 -0.9999 0.9999 1.178227e-02 -1614.8469 1758.1456)" class="st3" width="48.9" height="27.3"/>
	
		<rect x="112.2" y="1683.1" transform="matrix(1.178227e-02 -0.9999 0.9999 1.178227e-02 -1561.5028 1813.4094)" class="st3" width="48.9" height="27.3"/>
	
		<ellipse transform="matrix(1.178222e-02 -0.9999 0.9999 1.178222e-02 -1631.2855 1791.8058)" class="st3" cx="90.9" cy="1721.2" rx="8.5" ry="22.8"/>
	
		<ellipse transform="matrix(1.178222e-02 -0.9999 0.9999 1.178222e-02 -1576.79 1845.9583)" class="st3" cx="145.5" cy="1720.7" rx="8.5" ry="22.8"/>
	<circle class="st4" cx="113" cy="1578.6" r="30.7"/>
	<circle class="st2" cx="113" cy="1578.6" r="10.2"/>
	<path class="st5" d="M24.3,1516.7c-6.9-32.6,16.7-65.2,52.7-72.8s70.7,12.7,77.6,45.3c6.9,32.6-17,44.3-53,51.9
		C65.6,1548.7,31.1,1549.3,24.3,1516.7z"/>
	<path class="st6" d="M247.7,1651.5c0,62.7-37.3,84.6-83.2,84.6c-1.1,0-2.1,0-3.2,0c-2.1,0-4.2-0.1-6.3-0.3
		c-41.5-2.9-73.7-26-73.7-84.3c0-60.3,77.1-136.5,82.9-142.1l0,0c0.2-0.2,0.3-0.3,0.3-0.3S247.7,1588.8,247.7,1651.5z"/>
	<path class="st2" d="M161.4,1726.5l30.4-42.5l-30.5,47.2l-0.1,4.9c-2.1,0-4.2-0.1-6.3-0.3l3.3-62.7l0-0.5l0.1-0.1l0.3-5.9
		l-30.6-47.3l30.7,42.9l0.1,1.3l2.5-47.4l-26.2-48.9l26.5,40.6l2.6-98.2l0-0.3v0.3l-0.4,77.5l26.1-30.7l-26.2,37.4l-0.7,42.4
		l24.3-40.7l-24.4,47l-0.4,23.6l35.3-56.7l-35.5,64.9L161.4,1726.5z"/>
	<path class="st6" d="M650.6,1640c0,57.5-34.2,77.6-76.4,77.6c-1,0-2,0-2.9,0c-2,0-3.9-0.1-5.8-0.3c-38.1-2.7-67.7-23.8-67.7-77.3
		c0-55.4,70.8-125.3,76.1-130.4l0,0c0.2-0.2,0.3-0.3,0.3-0.3S650.6,1582.5,650.6,1640z"/>
	<path class="st2" d="M571.4,1708.9l27.9-39l-28,43.3l-0.1,4.5c-2,0-3.9-0.1-5.8-0.3l3-57.6l0-0.4l0.1-0.1l0.3-5.4l-28.1-43.4
		l28.2,39.4l0.1,1.2l2.3-43.5l-24-44.9l24.3,37.3l2.4-90.2l0-0.3v0.3l-0.4,71.1l23.9-28.2l-24,34.3l-0.6,38.9l22.4-37.4l-22.4,43.1
		l-0.4,21.7l32.4-52l-32.6,59.6L571.4,1708.9z"/>
	
		<ellipse transform="matrix(0.372 -0.9282 0.9282 0.372 -1460.2511 1100.0272)" class="st3" cx="82.9" cy="1629.3" rx="14.1" ry="45"/>
</g>
<g>
	<g>
		<g>
			<path class="st6" d="M696.9,1012.8H724v38.3h-27.1v51.7h-47.5V1051h-98l-2.1-29.9L649,863.7h48V1012.8z M596.6,1012.8h52.9v-84.4
				l-3.1,5.4L596.6,1012.8z"/>
			<path class="st6" d="M910.4,1003.9c0,33.1-6.8,58.4-20.5,75.9c-13.7,17.5-33.7,26.3-60.1,26.3c-26.1,0-46-8.6-59.8-25.8
				c-13.8-17.2-20.9-41.8-21.2-73.9v-44c0-33.4,6.9-58.7,20.8-76c13.8-17.3,33.8-25.9,59.9-25.9c26.1,0,46,8.6,59.8,25.7
				c13.8,17.1,20.9,41.7,21.2,73.8V1003.9z M863,955.5c0-19.8-2.7-34.3-8.1-43.3c-5.4-9-13.9-13.6-25.4-13.6
				c-11.2,0-19.4,4.3-24.7,12.9c-5.3,8.6-8.1,22.1-8.5,40.4v58.2c0,19.5,2.7,34,8,43.5c5.3,9.5,13.8,14.2,25.5,14.2
				c11.6,0,20-4.5,25.1-13.6c5.1-9.1,7.8-23,8-41.8V955.5z"/>
			<path class="st6" d="M1082.8,1012.8h27.1v38.3h-27.1v51.7h-47.5V1051h-98l-2.1-29.9l99.7-157.5h48V1012.8z M982.5,1012.8h52.9
				v-84.4l-3.1,5.4L982.5,1012.8z"/>
		</g>
		<g>
			<path class="st2" d="M628.7,1194.3H578v34.3h59.4v21.2h-85.8v-128h85.6v21.4H578v30.5h50.6V1194.3z"/>
			<path class="st2" d="M700.3,1202.9h-21v46.9h-26.4v-128h47.6c15.1,0,26.8,3.4,35,10.1c8.2,6.7,12.3,16.3,12.3,28.6
				c0,8.7-1.9,16-5.7,21.8c-3.8,5.8-9.5,10.5-17.2,13.9l27.7,52.3v1.2h-28.3L700.3,1202.9z M679.3,1181.6h21.3
				c6.6,0,11.7-1.7,15.4-5.1c3.6-3.4,5.5-8,5.5-13.9c0-6-1.7-10.8-5.1-14.2c-3.4-3.5-8.7-5.2-15.8-5.2h-21.2V1181.6z"/>
			<path class="st2" d="M815.2,1202.9h-21v46.9h-26.4v-128h47.6c15.1,0,26.8,3.4,35,10.1c8.2,6.7,12.3,16.3,12.3,28.6
				c0,8.7-1.9,16-5.7,21.8c-3.8,5.8-9.5,10.5-17.2,13.9l27.7,52.3v1.2h-28.3L815.2,1202.9z M794.2,1181.6h21.3
				c6.6,0,11.7-1.7,15.4-5.1c3.6-3.4,5.5-8,5.5-13.9c0-6-1.7-10.8-5.1-14.2c-3.4-3.5-8.7-5.2-15.8-5.2h-21.2V1181.6z"/>
			<path class="st2" d="M987.9,1188.7c0,12.6-2.2,23.6-6.7,33.1c-4.5,9.5-10.8,16.8-19.1,22c-8.3,5.2-17.8,7.7-28.5,7.7
				c-10.6,0-20.1-2.5-28.4-7.6c-8.3-5.1-14.8-12.4-19.3-21.8c-4.6-9.5-6.9-20.3-6.9-32.7v-6.3c0-12.6,2.3-23.7,6.8-33.3
				c4.5-9.6,11-16.9,19.3-22.1c8.3-5.1,17.8-7.7,28.4-7.7s20.1,2.6,28.4,7.7c8.3,5.1,14.7,12.5,19.3,22.1c4.5,9.6,6.8,20.6,6.8,33.2
				V1188.7z M961.1,1182.9c0-13.4-2.4-23.6-7.2-30.6c-4.8-7-11.7-10.5-20.6-10.5c-8.8,0-15.7,3.4-20.5,10.3
				c-4.8,6.9-7.2,17-7.3,30.3v6.2c0,13.1,2.4,23.2,7.2,30.4c4.8,7.2,11.7,10.8,20.7,10.8c8.8,0,15.6-3.5,20.4-10.4
				c4.7-6.9,7.1-17.1,7.2-30.4V1182.9z"/>
			<path class="st2" d="M1054.4,1202.9h-21v46.9H1007v-128h47.6c15.1,0,26.8,3.4,35,10.1c8.2,6.7,12.3,16.3,12.3,28.6
				c0,8.7-1.9,16-5.7,21.8c-3.8,5.8-9.5,10.5-17.2,13.9l27.7,52.3v1.2h-28.3L1054.4,1202.9z M1033.4,1181.6h21.3
				c6.6,0,11.7-1.7,15.4-5.1c3.6-3.4,5.5-8,5.5-13.9c0-6-1.7-10.8-5.1-14.2c-3.4-3.5-8.7-5.2-15.8-5.2h-21.2V1181.6z"/>
		</g>
	</g>
	<g>
		<path class="st6" d="M555.2,1297h-5.4v-26.4h5.4V1297z"/>
		<path class="st6" d="M565.6,1292.6h11.5v4.4h-17v-26.4h5.4V1292.6z"/>
		<path class="st6" d="M603.2,1290.1c0-1-0.4-1.8-1.1-2.4c-0.7-0.5-2-1.1-3.9-1.7c-1.9-0.6-3.4-1.2-4.5-1.8c-3-1.6-4.5-3.8-4.5-6.5
			c0-1.4,0.4-2.7,1.2-3.8c0.8-1.1,2-2,3.5-2.6c1.5-0.6,3.2-0.9,5.1-0.9c1.9,0,3.6,0.3,5,1c1.5,0.7,2.6,1.6,3.4,2.9s1.2,2.7,1.2,4.2
			h-5.4c0-1.2-0.4-2.1-1.1-2.8c-0.8-0.7-1.8-1-3.2-1c-1.3,0-2.4,0.3-3.1,0.8c-0.7,0.6-1.1,1.3-1.1,2.2c0,0.9,0.4,1.6,1.3,2.2
			s2.1,1.1,3.8,1.6c3.1,0.9,5.3,2.1,6.8,3.5c1.4,1.4,2.1,3.1,2.1,5.1c0,2.3-0.9,4.1-2.6,5.4s-4.1,1.9-7,1.9c-2,0-3.9-0.4-5.5-1.1
			s-2.9-1.8-3.8-3.1c-0.9-1.3-1.3-2.8-1.3-4.5h5.5c0,2.9,1.7,4.4,5.2,4.4c1.3,0,2.3-0.3,3-0.8C602.9,1291.7,603.2,1291,603.2,1290.1
			z"/>
		<path class="st6" d="M628.2,1285.6h-10.4v7.1h12.3v4.4h-17.7v-26.4H630v4.4h-12.2v6.3h10.4V1285.6z"/>
		<path class="st6" d="M640.3,1270.6l6.8,19.1l6.7-19.1h7.1v26.4h-5.5v-7.2l0.5-12.5L649,1297h-3.7l-7.1-19.6l0.5,12.4v7.2h-5.4
			v-26.4H640.3z"/>
		<path class="st6" d="M665.8,1297v-26.4h9.2c3.2,0,5.6,0.6,7.3,1.8c1.7,1.2,2.5,3,2.5,5.4c0,1.3-0.3,2.4-1,3.4
			c-0.7,1-1.6,1.7-2.8,2.2c1.4,0.3,2.4,1,3.2,2c0.8,1,1.2,2.3,1.2,3.8c0,2.5-0.8,4.5-2.4,5.8c-1.6,1.3-3.9,2-6.9,2H665.8z
			 M671.2,1281.7h4c2.7,0,4.1-1.1,4.1-3.3c0-1.2-0.3-2.1-1-2.6c-0.7-0.5-1.8-0.8-3.3-0.8h-3.8V1281.7z M671.2,1285.5v7.1h4.7
			c1.3,0,2.3-0.3,3-0.9s1.1-1.5,1.1-2.5c0-2.4-1.3-3.6-3.8-3.7H671.2z"/>
		<path class="st6" d="M694.9,1292.6h11.5v4.4h-17v-26.4h5.4V1292.6z"/>
		<path class="st6" d="M725.4,1285.6H715v7.1h12.3v4.4h-17.7v-26.4h17.7v4.4H715v6.3h10.4V1285.6z"/>
		<path class="st6" d="M740.2,1287.3h-4.3v9.7h-5.4v-26.4h9.8c3.1,0,5.5,0.7,7.2,2.1c1.7,1.4,2.5,3.4,2.5,5.9c0,1.8-0.4,3.3-1.2,4.5
			c-0.8,1.2-2,2.2-3.5,2.9l5.7,10.8v0.3h-5.8L740.2,1287.3z M735.9,1282.9h4.4c1.4,0,2.4-0.3,3.2-1c0.8-0.7,1.1-1.7,1.1-2.9
			c0-1.2-0.4-2.2-1.1-2.9s-1.8-1.1-3.3-1.1h-4.4V1282.9z"/>
		<path class="st6" d="M769,1291.6h-9.5l-1.8,5.4h-5.8l9.8-26.4h5l9.9,26.4h-5.8L769,1291.6z M760.9,1287.2h6.6l-3.3-9.9
			L760.9,1287.2z"/>
		<path class="st6" d="M784.9,1297h-5.4v-26.4h5.4V1297z"/>
		<path class="st6" d="M809.2,1275h-8.1v22h-5.4v-22h-8v-4.4h21.5V1275z"/>
		<path class="st6" d="M842.1,1284.4c0,2.5-0.4,4.6-1.2,6.4c-0.8,1.8-1.9,3.3-3.3,4.4l4.4,3.4l-3.5,3.1l-5.6-4.5
			c-0.6,0.1-1.3,0.2-2,0.2c-2.2,0-4.1-0.5-5.9-1.6c-1.7-1.1-3-2.6-4-4.5c-0.9-2-1.4-4.2-1.4-6.7v-1.3c0-2.6,0.5-4.9,1.4-6.9
			c0.9-2,2.3-3.5,4-4.5c1.7-1.1,3.7-1.6,5.9-1.6s4.2,0.5,5.9,1.6s3,2.6,4,4.5c0.9,2,1.4,4.3,1.4,6.8V1284.4z M836.6,1283.2
			c0-2.8-0.5-4.9-1.5-6.3c-1-1.4-2.4-2.2-4.2-2.2c-1.8,0-3.2,0.7-4.2,2.1c-1,1.4-1.5,3.5-1.5,6.2v1.3c0,2.7,0.5,4.8,1.5,6.3
			s2.4,2.2,4.3,2.2c1.8,0,3.2-0.7,4.2-2.1c1-1.4,1.5-3.5,1.5-6.3V1283.2z"/>
		<path class="st6" d="M866.1,1270.6v17.4c0,2.9-0.9,5.2-2.7,6.9c-1.8,1.7-4.3,2.5-7.4,2.5c-3.1,0-5.5-0.8-7.3-2.4
			c-1.8-1.6-2.7-3.9-2.8-6.7v-17.6h5.4v17.4c0,1.7,0.4,3,1.2,3.8c0.8,0.8,2,1.2,3.4,1.2c3.1,0,4.6-1.6,4.7-4.8v-17.6H866.1z"/>
		<path class="st6" d="M886.4,1285.6H876v7.1h12.3v4.4h-17.7v-26.4h17.7v4.4H876v6.3h10.4V1285.6z"/>
		<path class="st6" d="M921.4,1288.2c-0.2,2.8-1.3,5.1-3.1,6.7c-1.9,1.6-4.4,2.4-7.5,2.4c-3.4,0-6-1.1-8-3.4s-2.9-5.4-2.9-9.4v-1.6
			c0-2.5,0.4-4.8,1.3-6.7c0.9-1.9,2.2-3.4,3.8-4.4s3.6-1.5,5.8-1.5c3,0,5.5,0.8,7.4,2.4c1.9,1.6,2.9,3.9,3.2,6.9H916
			c-0.1-1.7-0.6-2.9-1.4-3.7c-0.8-0.8-2.1-1.2-3.7-1.2c-1.8,0-3.2,0.6-4.1,1.9s-1.4,3.3-1.4,6v2c0,2.9,0.4,4.9,1.3,6.3
			c0.9,1.3,2.2,2,4.1,2c1.7,0,2.9-0.4,3.8-1.2c0.8-0.8,1.3-2,1.4-3.6H921.4z"/>
		<path class="st6" d="M940.9,1285.6h-10.4v7.1h12.3v4.4H925v-26.4h17.7v4.4h-12.2v6.3h10.4V1285.6z"/>
		<path class="st6" d="M966.1,1275H958v22h-5.4v-22h-8v-4.4h21.5V1275z"/>
		<path class="st6" d="M989.3,1275h-8.1v22h-5.4v-22h-8v-4.4h21.5V1275z"/>
		<path class="st6" d="M1008.3,1285.6h-10.4v7.1h12.3v4.4h-17.7v-26.4h17.7v4.4h-12.2v6.3h10.4V1285.6z"/>
		<path class="st6" d="M1028,1287.7v9.3h-5.4v-26.4h10.3c2,0,3.7,0.4,5.2,1.1c1.5,0.7,2.7,1.8,3.5,3.1s1.2,2.9,1.2,4.6
			c0,2.6-0.9,4.6-2.7,6.1s-4.2,2.2-7.3,2.2H1028z M1028,1283.3h4.9c1.4,0,2.5-0.3,3.3-1c0.8-0.7,1.1-1.6,1.1-2.9
			c0-1.3-0.4-2.3-1.1-3.1c-0.8-0.8-1.8-1.2-3.2-1.2h-5V1283.3z"/>
		<path class="st6" d="M1058.2,1291.6h-9.5l-1.8,5.4h-5.8l9.8-26.4h5l9.9,26.4h-5.8L1058.2,1291.6z M1050.1,1287.2h6.6l-3.3-9.9
			L1050.1,1287.2z"/>
		<path class="st6" d="M1088.8,1293.7c-1,1.2-2.4,2.1-4.2,2.7c-1.8,0.6-3.8,1-5.9,1c-2.3,0-4.3-0.5-6-1.5c-1.7-1-3.1-2.4-4-4.3
			c-0.9-1.9-1.4-4.1-1.4-6.7v-1.8c0-2.6,0.4-4.9,1.3-6.8c0.9-1.9,2.2-3.4,3.8-4.4c1.7-1,3.6-1.5,5.9-1.5c3.1,0,5.6,0.7,7.3,2.2
			s2.8,3.7,3.1,6.5h-5.3c-0.2-1.5-0.8-2.6-1.6-3.3s-2-1.1-3.4-1.1c-1.8,0-3.3,0.7-4.2,2.1s-1.5,3.5-1.5,6.2v1.7
			c0,2.8,0.5,4.9,1.6,6.3c1.1,1.4,2.6,2.1,4.6,2.1c2,0,3.5-0.4,4.4-1.3v-4.5h-4.9v-4h10.4V1293.7z"/>
		<path class="st6" d="M1109,1285.6h-10.4v7.1h12.3v4.4h-17.7v-26.4h17.7v4.4h-12.2v6.3h10.4V1285.6z"/>
		<path class="st6" d="M563.1,1334.6c0-1-0.4-1.8-1.1-2.4c-0.7-0.5-2-1.1-3.9-1.7c-1.9-0.6-3.4-1.2-4.5-1.8c-3-1.6-4.5-3.8-4.5-6.5
			c0-1.4,0.4-2.7,1.2-3.8c0.8-1.1,2-2,3.5-2.6c1.5-0.6,3.2-0.9,5.1-0.9c1.9,0,3.6,0.3,5,1c1.5,0.7,2.6,1.6,3.4,2.9s1.2,2.7,1.2,4.2
			h-5.4c0-1.2-0.4-2.1-1.1-2.8c-0.8-0.7-1.8-1-3.2-1c-1.3,0-2.4,0.3-3.1,0.8c-0.7,0.6-1.1,1.3-1.1,2.2c0,0.9,0.4,1.6,1.3,2.2
			s2.1,1.1,3.8,1.6c3.1,0.9,5.3,2.1,6.8,3.5c1.4,1.4,2.1,3.1,2.1,5.1c0,2.3-0.9,4.1-2.6,5.4s-4.1,1.9-7,1.9c-2,0-3.9-0.4-5.5-1.1
			s-2.9-1.8-3.8-3.1c-0.9-1.3-1.3-2.8-1.3-4.5h5.5c0,2.9,1.7,4.4,5.2,4.4c1.3,0,2.3-0.3,3-0.8
			C562.7,1336.3,563.1,1335.6,563.1,1334.6z"/>
		<path class="st6" d="M588.1,1330.1h-10.4v7.1h12.3v4.4h-17.7v-26.4h17.7v4.4h-12.2v6.3h10.4V1330.1z"/>
		<path class="st6" d="M616,1334.6c0-1-0.4-1.8-1.1-2.4c-0.7-0.5-2-1.1-3.9-1.7c-1.9-0.6-3.4-1.2-4.5-1.8c-3-1.6-4.5-3.8-4.5-6.5
			c0-1.4,0.4-2.7,1.2-3.8c0.8-1.1,2-2,3.5-2.6c1.5-0.6,3.2-0.9,5.1-0.9c1.9,0,3.6,0.3,5,1c1.5,0.7,2.6,1.6,3.4,2.9s1.2,2.7,1.2,4.2
			H616c0-1.2-0.4-2.1-1.1-2.8c-0.8-0.7-1.8-1-3.2-1c-1.3,0-2.4,0.3-3.1,0.8c-0.7,0.6-1.1,1.3-1.1,2.2c0,0.9,0.4,1.6,1.3,2.2
			s2.1,1.1,3.8,1.6c3.1,0.9,5.3,2.1,6.8,3.5c1.4,1.4,2.1,3.1,2.1,5.1c0,2.3-0.9,4.1-2.6,5.4s-4.1,1.9-7,1.9c-2,0-3.9-0.4-5.5-1.1
			s-2.9-1.8-3.8-3.1c-0.9-1.3-1.3-2.8-1.3-4.5h5.5c0,2.9,1.7,4.4,5.2,4.4c1.3,0,2.3-0.3,3-0.8C615.6,1336.3,616,1335.6,616,1334.6z"
			/>
		<path class="st6" d="M646.8,1328.9c0,2.6-0.5,4.9-1.4,6.8c-0.9,2-2.2,3.5-3.9,4.5c-1.7,1.1-3.7,1.6-5.9,1.6
			c-2.2,0-4.1-0.5-5.9-1.6c-1.7-1.1-3-2.6-4-4.5c-0.9-2-1.4-4.2-1.4-6.7v-1.3c0-2.6,0.5-4.9,1.4-6.9c0.9-2,2.3-3.5,4-4.5
			s3.7-1.6,5.9-1.6s4.2,0.5,5.9,1.6s3,2.6,4,4.5s1.4,4.3,1.4,6.8V1328.9z M641.3,1327.7c0-2.8-0.5-4.9-1.5-6.3
			c-1-1.4-2.4-2.2-4.2-2.2c-1.8,0-3.2,0.7-4.2,2.1c-1,1.4-1.5,3.5-1.5,6.2v1.3c0,2.7,0.5,4.8,1.5,6.3s2.4,2.2,4.3,2.2
			c1.8,0,3.2-0.7,4.2-2.1c1-1.4,1.5-3.5,1.5-6.3V1327.7z"/>
		<path class="st6" d="M656.5,1341.5h-5.4v-26.4h5.4V1341.5z"/>
		<path class="st6" d="M680.9,1319.6h-8.1v22h-5.4v-22h-8v-4.4h21.5V1319.6z"/>
		<path class="st6" d="M708.1,1330.8h-10.4v10.8h-5.4v-26.4h17.2v4.4h-11.7v6.8h10.4V1330.8z"/>
		<path class="st6" d="M723.9,1336.1h-9.5l-1.8,5.4h-5.8l9.8-26.4h5l9.9,26.4h-5.8L723.9,1336.1z M715.9,1331.7h6.6l-3.3-9.9
			L715.9,1331.7z"/>
		<path class="st6" d="M739.8,1341.5h-5.4v-26.4h5.4V1341.5z"/>
		<path class="st6" d="M764.2,1319.6h-8.1v22h-5.4v-22h-8v-4.4h21.5V1319.6z"/>
		<path class="st6" d="M791.3,1330.1h-10.4v7.1h12.3v4.4h-17.7v-26.4h17.7v4.4h-12.2v6.3h10.4V1330.1z"/>
		<path class="st6" d="M817.8,1341.5h-5.4l-10.6-17.4v17.4h-5.4v-26.4h5.4l10.6,17.4v-17.4h5.4V1341.5z"/>
		<path class="st6" d="M828,1337.2h11.5v4.4h-17v-26.4h5.4V1337.2z"/>
		<path class="st6" d="M858.5,1330.1h-10.4v7.1h12.3v4.4h-17.7v-26.4h17.7v4.4h-12.2v6.3h10.4V1330.1z"/>
		<path class="st6" d="M873.2,1335l6-19.8h6.1l-9.2,26.4h-5.7l-9.2-26.4h6L873.2,1335z"/>
		<path class="st6" d="M903.6,1330.1h-10.4v7.1h12.3v4.4h-17.7v-26.4h17.7v4.4h-12.2v6.3h10.4V1330.1z"/>
		<path class="st6" d="M918.4,1331.9h-4.3v9.7h-5.4v-26.4h9.8c3.1,0,5.5,0.7,7.2,2.1c1.7,1.4,2.5,3.4,2.5,5.9c0,1.8-0.4,3.3-1.2,4.5
			c-0.8,1.2-2,2.2-3.5,2.9l5.7,10.8v0.3h-5.8L918.4,1331.9z M914.1,1327.5h4.4c1.4,0,2.4-0.3,3.2-1c0.7-0.7,1.1-1.7,1.1-2.9
			c0-1.2-0.4-2.2-1.1-2.9s-1.8-1.1-3.3-1.1h-4.4V1327.5z"/>
		<path class="st6" d="M933.3,1348.2l-2.7-1.4l0.7-1.2c0.8-1.5,1.2-2.9,1.3-4.4v-4.1h4.4l0,3.6c0,1.3-0.4,2.7-1,4.1
			C935.2,1346.1,934.4,1347.3,933.3,1348.2z"/>
		<path class="st6" d="M972.3,1328.9c0,2.6-0.5,4.9-1.4,6.8s-2.2,3.5-3.9,4.5c-1.7,1.1-3.7,1.6-5.9,1.6c-2.2,0-4.1-0.5-5.9-1.6
			c-1.7-1.1-3-2.6-4-4.5c-0.9-2-1.4-4.2-1.4-6.7v-1.3c0-2.6,0.5-4.9,1.4-6.9s2.3-3.5,4-4.5c1.7-1.1,3.7-1.6,5.9-1.6s4.2,0.5,5.9,1.6
			c1.7,1.1,3,2.6,4,4.5s1.4,4.3,1.4,6.8V1328.9z M966.8,1327.7c0-2.8-0.5-4.9-1.5-6.3c-1-1.4-2.4-2.2-4.2-2.2
			c-1.8,0-3.2,0.7-4.2,2.1c-1,1.4-1.5,3.5-1.5,6.2v1.3c0,2.7,0.5,4.8,1.5,6.3c1,1.5,2.4,2.2,4.3,2.2c1.8,0,3.2-0.7,4.2-2.1
			c1-1.4,1.5-3.5,1.5-6.3V1327.7z"/>
		<path class="st6" d="M996.2,1315.1v17.4c0,2.9-0.9,5.2-2.7,6.9c-1.8,1.7-4.3,2.5-7.4,2.5c-3.1,0-5.5-0.8-7.3-2.4
			c-1.8-1.6-2.7-3.9-2.8-6.7v-17.6h5.4v17.4c0,1.7,0.4,3,1.2,3.8c0.8,0.8,2,1.2,3.4,1.2c3.1,0,4.6-1.6,4.7-4.8v-17.6H996.2z"/>
		<path class="st6" d="M1006.1,1332.2v9.3h-5.4v-26.4h10.3c2,0,3.7,0.4,5.2,1.1c1.5,0.7,2.7,1.8,3.5,3.1c0.8,1.3,1.2,2.9,1.2,4.6
			c0,2.6-0.9,4.6-2.7,6.1c-1.8,1.5-4.2,2.2-7.3,2.2H1006.1z M1006.1,1327.8h4.9c1.4,0,2.5-0.3,3.3-1s1.1-1.6,1.1-2.9
			c0-1.3-0.4-2.3-1.1-3.1c-0.8-0.8-1.8-1.2-3.2-1.2h-5V1327.8z"/>
		<path class="st6" d="M1038.3,1334.6c0-1-0.4-1.8-1.1-2.4c-0.7-0.5-2-1.1-3.9-1.7c-1.9-0.6-3.4-1.2-4.5-1.8c-3-1.6-4.5-3.8-4.5-6.5
			c0-1.4,0.4-2.7,1.2-3.8c0.8-1.1,2-2,3.5-2.6c1.5-0.6,3.2-0.9,5.1-0.9c1.9,0,3.6,0.3,5,1c1.5,0.7,2.6,1.6,3.4,2.9
			c0.8,1.2,1.2,2.7,1.2,4.2h-5.4c0-1.2-0.4-2.1-1.1-2.8c-0.8-0.7-1.8-1-3.2-1c-1.3,0-2.4,0.3-3.1,0.8c-0.7,0.6-1.1,1.3-1.1,2.2
			c0,0.9,0.4,1.6,1.3,2.2s2.1,1.1,3.8,1.6c3.1,0.9,5.3,2.1,6.8,3.5c1.4,1.4,2.1,3.1,2.1,5.1c0,2.3-0.9,4.1-2.6,5.4s-4.1,1.9-7,1.9
			c-2,0-3.9-0.4-5.5-1.1c-1.7-0.7-2.9-1.8-3.8-3.1c-0.9-1.3-1.3-2.8-1.3-4.5h5.5c0,2.9,1.7,4.4,5.2,4.4c1.3,0,2.3-0.3,3-0.8
			C1038,1336.3,1038.3,1335.6,1038.3,1334.6z"/>
		<path class="st6" d="M1047.4,1339c0-0.8,0.3-1.5,0.8-2c0.6-0.5,1.3-0.8,2.1-0.8c0.9,0,1.6,0.3,2.1,0.8c0.6,0.5,0.8,1.2,0.8,2
			c0,0.8-0.3,1.5-0.8,2c-0.6,0.5-1.3,0.8-2.1,0.8c-0.9,0-1.6-0.3-2.1-0.8C1047.7,1340.5,1047.4,1339.8,1047.4,1339z"/>
		<path class="st6" d="M1058.2,1339c0-0.8,0.3-1.5,0.8-2c0.6-0.5,1.3-0.8,2.1-0.8c0.9,0,1.6,0.3,2.1,0.8c0.6,0.5,0.8,1.2,0.8,2
			c0,0.8-0.3,1.5-0.8,2c-0.6,0.5-1.3,0.8-2.1,0.8c-0.9,0-1.6-0.3-2.1-0.8C1058.5,1340.5,1058.2,1339.8,1058.2,1339z"/>
		<path class="st6" d="M1069,1339c0-0.8,0.3-1.5,0.8-2c0.6-0.5,1.3-0.8,2.1-0.8c0.9,0,1.6,0.3,2.1,0.8c0.6,0.5,0.8,1.2,0.8,2
			c0,0.8-0.3,1.5-0.8,2c-0.6,0.5-1.3,0.8-2.1,0.8c-0.9,0-1.6-0.3-2.1-0.8C1069.2,1340.5,1069,1339.8,1069,1339z"/>
	</g>
</g>
<g>
	<path class="st1" d="M1680.4,1271.9c0,205.2-122,276.9-272.5,276.9s-272.5-71.7-272.5-276.9s272.5-466.3,272.5-466.3
		S1680.4,1066.6,1680.4,1271.9z"/>
	<polygon class="st2" points="1397.9,1517.3 1400.7,1345.6 1516.9,1133.1 1401.2,1318.6 1402.4,1241.4 1482.5,1087.7 1402.8,1221 
		1402.8,1221 1405,1082.1 1490.7,959.7 1405.4,1060.2 1406.8,805.6 1397.9,1142.7 1398.7,1128.8 1311.5,995.4 1397.3,1155.5 
		1389.1,1310.6 1388.9,1306.5 1288.4,1166.1 1388.6,1321.1 1387.6,1340.5 1387.4,1340.8 1387.5,1342.3 1366.9,1735.9 1394.4,1735.9 
		1397.7,1532.6 1497.6,1378.1 	"/>
</g>
<g>
	<path class="st6" d="M992.8,197.8c-61.6-9.8-131.7-15.1-204.7-15.1c-66.8,0-131.2,4.4-188.8,12.6c0-0.9,0-1.8,0.1-2.7
		C602.6,84.1,693.3-1.3,801.9,2c105,3.1,189,88.2,190.9,193.2C992.8,196.1,992.8,196.9,992.8,197.8z"/>
	<g class="st7">
		<path class="st4" d="M821.9,1.8C714.2-12.8,615,62.8,600.5,170.5c-0.9,6.8-1.5,13.6-1.7,20.4c0,0.9-0.1,1.8-0.1,2.7
			c17.1-2.5,34.8-4.6,53-6.3C656.4,92.5,727.9,14.5,821.9,1.8z"/>
	</g>
	<path class="st2" d="M1078.9,213.4c-28.3-7.7-57.1-13.8-86.1-18.3c-47.6-7.4-95.5-12-143.6-13.8c-20-0.8-40.4-1.2-61.1-1.2
		c-16.3,0-32.6,0.3-48.6,0.8c-46.9,1.4-93.7,5.3-140.2,11.8c-34.4,4.7-68.5,11.6-102,20.7C419.2,235,376.2,264,376.2,295
		s43.1,59.9,121.2,81.6c55,15.2,122.8,25.6,196.6,30.3c30.5,2,62,3,94.1,3c32.2,0,63.8-1,94.4-3c67.2-4.3,129.4-13.3,181.5-26.4
		c0.3-0.1,0.5-0.1,0.8-0.2c3.5-0.9,7-1.8,10.4-2.7c1.2-0.3,2.4-0.7,3.7-1c0.1,0,0.1-0.1,0.2-0.1c1.2-0.3,2.3-0.6,3.5-1
		c2.3-0.7,4.6-1.3,6.8-2c0.1,0,0.2-0.1,0.3-0.1c1.9-0.6,3.8-1.2,5.7-1.7c1.5-0.5,3.1-1,4.6-1.5c1.1-0.4,2.2-0.7,3.3-1.1
		c0.8-0.3,1.6-0.5,2.3-0.8c1-0.3,2.1-0.7,3.1-1.1c0.4-0.1,0.9-0.3,1.3-0.4c1-0.3,2-0.7,2.9-1c1-0.4,2.1-0.8,3.1-1.1
		c0.9-0.3,1.7-0.6,2.6-0.9c0.7-0.3,1.4-0.5,2.1-0.8c1.9-0.7,3.8-1.5,5.7-2.2c0.9-0.4,1.9-0.8,2.8-1.1c0.9-0.4,1.8-0.8,2.7-1.1
		c1.5-0.6,2.9-1.2,4.4-1.9c0.7-0.3,1.4-0.6,2.1-0.9c0.5-0.2,1-0.5,1.5-0.7c0.4-0.2,0.7-0.3,1.1-0.5c1.3-0.6,2.7-1.2,3.9-1.8
		c5-2.4,9.6-4.8,13.9-7.3c27-15.5,41.2-32.6,41.2-50.4C1200.1,264,1157,235,1078.9,213.4z M1078.1,374c-55,15.2-123,25.6-197.1,30.3
		c-30.1,1.9-61.3,2.9-92.9,2.9c-31.6,0-62.6-1-92.6-2.9c-74.2-4.7-142.3-15.1-197.4-30.3c-76.9-21.3-119.3-49.3-119.3-79
		c0-2.6,0.3-5.2,1-7.8c6.7-26.8,48.2-51.8,118.3-71.2c33.3-9,67.1-15.8,101.2-20.6c46.8-6.5,93.8-10.5,141-11.9
		c15.7-0.5,31.7-0.8,47.8-0.8c20.3,0,40.5,0.4,60.2,1.2c48.4,1.8,96.6,6.4,144.4,13.9c28.8,4.5,57.3,10.5,85.4,18.1
		c70.2,19.4,111.6,44.5,118.3,71.2c0.7,2.5,1,5.2,1,7.8C1197.5,324.7,1155.1,352.7,1078.1,374L1078.1,374z"/>
	<path class="st2" d="M1199.3,296.2c0,17.6-14.5,34.3-40.5,49.2c-4.3,2.5-9,4.9-13.9,7.3c-1.3,0.6-2.6,1.2-3.9,1.8
		c-0.4,0.2-0.7,0.3-1.1,0.5c-0.5,0.2-1,0.5-1.5,0.7c-0.7,0.3-1.4,0.6-2.1,0.9c-1.4,0.6-2.9,1.2-4.4,1.9c-0.9,0.4-1.8,0.8-2.7,1.1
		c-0.9,0.4-1.9,0.8-2.8,1.1c-1.9,0.7-3.8,1.5-5.7,2.2c-0.7,0.3-1.4,0.5-2.1,0.8c-0.8,0.3-1.7,0.6-2.6,0.9c-1,0.4-2.1,0.8-3.1,1.1
		c-1,0.3-1.9,0.7-2.9,1c-0.4,0.2-0.9,0.3-1.3,0.4c-1,0.4-2.1,0.7-3.1,1.1c-0.8,0.3-1.5,0.5-2.3,0.8c-1.1,0.4-2.2,0.7-3.3,1.1
		c-1.5,0.5-3.1,1-4.6,1.5c-1.9,0.6-3.8,1.2-5.7,1.7c-0.1,0-0.2,0.1-0.3,0.1c-2.2,0.7-4.5,1.3-6.8,2c-1.1,0.3-2.3,0.6-3.5,1
		c-0.1,0-0.1,0-0.2,0.1c-1.2,0.3-2.4,0.7-3.7,1c-3.4,0.9-6.9,1.8-10.4,2.7c-0.3,0.1-0.5,0.1-0.8,0.2
		c-50.6,12.6-112.8,21.9-181.5,26.3c-30.1,1.9-61.5,3-93.8,3c-32.5,0-64.2-1-94.6-3c-181.2-11.8-316.1-56.8-316.1-110.5
		c0-3.3,0.5-6.5,1.5-9.6c0.1,0.2,0.2,0.4,0.3,0.7c18.8,49.5,152.6,89.5,326.1,99.2c26.6,1.5,54.1,2.3,82.3,2.3
		c28.3,0,55.9-0.8,82.6-2.3c173.4-9.8,306.9-49.8,325.7-99.3c0.3-0.8,0.6-1.6,0.8-2.4C1198.6,288.5,1199.3,292.3,1199.3,296.2z"/>
	<path class="st2" d="M497.2,282c-22,0-45.3-4.7-45.3-13.5c0-8.8,23.4-13.5,45.3-13.5s45.3,4.7,45.3,13.5
		C542.5,277.3,519.2,282,497.2,282z M497.2,257.6c-25.2,0-42.7,5.7-42.7,10.8s17.5,10.8,42.7,10.8c25.2,0,42.7-5.7,42.7-10.8
		S522.4,257.6,497.2,257.6z"/>
	<path class="st2" d="M591,344c-22,0-45.3-4.7-45.3-13.5s23.4-13.5,45.3-13.5c22,0,45.3,4.7,45.3,13.5S612.9,344,591,344z
		 M591,319.7c-25.2,0-42.7,5.7-42.7,10.8s17.5,10.8,42.7,10.8s42.7-5.7,42.7-10.8S616.1,319.7,591,319.7z"/>
	<path class="st2" d="M1078.2,282c-22,0-45.3-4.7-45.3-13.5c0-8.8,23.4-13.5,45.3-13.5c22,0,45.3,4.7,45.3,13.5
		C1123.5,277.3,1100.2,282,1078.2,282z M1078.2,257.6c-25.2,0-42.7,5.7-42.7,10.8s17.5,10.8,42.7,10.8c25.2,0,42.7-5.7,42.7-10.8
		S1103.3,257.6,1078.2,257.6z"/>
	<path class="st2" d="M984.4,344c-22,0-45.3-4.7-45.3-13.5s23.4-13.5,45.3-13.5c22,0,45.3,4.7,45.3,13.5S1006.4,344,984.4,344z
		 M984.4,319.7c-25.2,0-42.7,5.7-42.7,10.8s17.5,10.8,42.7,10.8s42.7-5.7,42.7-10.8S1009.6,319.7,984.4,319.7z"/>
	<path class="st2" d="M787.7,373.1c-22,0-45.3-4.7-45.3-13.5c0-8.8,23.4-13.5,45.3-13.5c22,0,45.3,4.7,45.3,13.5
		C833,368.4,809.7,373.1,787.7,373.1z M787.7,348.7c-25.2,0-42.7,5.7-42.7,10.8c0,5.1,17.5,10.8,42.7,10.8s42.7-5.7,42.7-10.8
		C830.4,354.5,812.9,348.7,787.7,348.7z"/>
	<circle class="st3" cx="814.1" cy="595.1" r="55.5"/>
	
		<rect x="768.2" y="637.4" transform="matrix(0.8941 -0.4478 0.4478 0.8941 -206.2896 419.1075)" class="st3" width="30.2" height="16.9"/>
	
		<ellipse transform="matrix(0.5505 -0.8349 0.8349 0.5505 -199.3362 931.6111)" class="st3" cx="765.4" cy="650.9" rx="5.3" ry="14"/>
	
		<rect x="836.5" y="630.8" transform="matrix(0.4478 -0.8941 0.8941 0.4478 -110.907 1112.163)" class="st3" width="16.9" height="30.2"/>
	
		<ellipse transform="matrix(0.8349 -0.5505 0.5505 0.8349 -215.8111 582.4453)" class="st3" cx="862.8" cy="650.9" rx="14" ry="5.3"/>
	<circle class="st4" cx="810.2" cy="581.6" r="19"/>
	
		<ellipse transform="matrix(0.7071 -0.7071 0.7071 0.7071 -168.1367 740.9711)" class="st2" cx="810.4" cy="573.4" rx="6.3" ry="6.3"/>
	<path class="st5" d="M857.9,534.8c0.8-20.5-16.9-37.9-39.5-38.9s-41.7,15-42.6,35.5c-0.8,20.5,14.9,25.2,37.6,26.1
		C836,558.5,857,555.3,857.9,534.8z"/>
	
		<ellipse transform="matrix(0.7588 -0.6514 0.6514 0.7588 -182.5523 713.3578)" class="st3" cx="871.8" cy="603.1" rx="8.7" ry="27.7"/>
	
		<ellipse transform="matrix(0.6514 -0.7588 0.7588 0.6514 -193.859 784.3462)" class="st3" cx="756.6" cy="603.1" rx="27.7" ry="8.7"/>
	<path class="st4" d="M829.4,617c1.3,6.9-3.3,13.4-10.2,14.7s-13.4-3.3-14.7-10.2l0,0l0,0c-1.2-6.9,4.1-9.3,10.9-10.5
		C822.3,609.7,828.1,610.1,829.4,617z"/>
	<path class="st8" d="M720.4,654.1c-1.5,0-2.6-1.2-2.6-2.6V495.7c0-1.5,1.2-2.6,2.6-2.6c1.5,0,2.6,1.2,2.6,2.6v155.8
		C723,653,721.9,654.1,720.4,654.1z"/>
	<path class="st8" d="M680.8,794.1c-1.5,0-2.6-1.2-2.6-2.6V677.9c0-1.5,1.2-2.6,2.6-2.6s2.6,1.2,2.6,2.6v113.6
		C683.4,792.9,682.2,794.1,680.8,794.1z"/>
	<path class="st8" d="M782.5,700.4c-1.5,0-2.6-1.2-2.6-2.6V541.9c0-1.5,1.2-2.6,2.6-2.6s2.6,1.2,2.6,2.6v155.8
		C785.1,699.2,783.9,700.4,782.5,700.4z"/>
	<path class="st8" d="M744.2,812.6c-1.5,0-2.6-1.2-2.6-2.6v-63.4c0-1.5,1.2-2.6,2.6-2.6s2.6,1.2,2.6,2.6v63.4
		C746.8,811.4,745.6,812.6,744.2,812.6z"/>
	<path class="st8" d="M798.3,487.8c-1.5,0-2.6-1.2-2.6-2.6v-63.4c0-1.5,1.2-2.6,2.6-2.6s2.6,1.2,2.6,2.6v63.4
		C800.9,486.6,799.8,487.8,798.3,487.8z"/>
	<path class="st8" d="M666.3,515.5c-1.5,0-2.6-1.2-2.6-2.6v-63.4c0-1.5,1.2-2.6,2.6-2.6s2.6,1.2,2.6,2.6v63.4
		C668.9,514.3,667.7,515.5,666.3,515.5z"/>
	<path class="st8" d="M896,522.1c-1.5,0-2.6-1.2-2.6-2.6v-63.4c0-1.5,1.2-2.6,2.6-2.6s2.6,1.2,2.6,2.6v63.4
		C898.7,520.9,897.5,522.1,896,522.1z"/>
	<path class="st8" d="M890.7,720.2c-1.5,0-2.6-1.2-2.6-2.6v-76.6c0-1.5,1.2-2.6,2.6-2.6c1.5,0,2.6,1.2,2.6,2.6v76.6
		C893.4,719,892.2,720.2,890.7,720.2z"/>
	<path class="st8" d="M837.9,787.5c-1.5,0-2.6-1.2-2.6-2.6V671.3c0-1.5,1.2-2.6,2.6-2.6s2.6,1.2,2.6,2.6v113.6
		C840.6,786.3,839.4,787.5,837.9,787.5z"/>
	<path class="st8" d="M848.5,593.4c-1.5,0-2.6-1.2-2.6-2.6V435c0-1.5,1.2-2.6,2.6-2.6s2.6,1.2,2.6,2.6v155.8
		C851.1,592.2,849.9,593.4,848.5,593.4z"/>
</g>
<g>
	
		<ellipse transform="matrix(0.7667 -0.642 0.642 0.7667 -847.1313 982.2731)" class="st3" cx="928.1" cy="1656.8" rx="8.9" ry="28.4"/>
	<circle class="st3" cx="867.6" cy="1647" r="56.9"/>
	<rect x="874.4" y="1691.6" class="st3" width="17.3" height="31"/>
	<rect x="839.8" y="1691.6" class="st3" width="17.3" height="31"/>
	<ellipse class="st3" cx="877.3" cy="1722.9" rx="14.4" ry="5.4"/>
	<ellipse class="st3" cx="842.7" cy="1722.2" rx="14.4" ry="5.4"/>
	<path class="st5" d="M849.7,1575.5c5.1-20.4,27.5-32.5,50.1-26.9c22.6,5.6,36.8,26.7,31.7,47.2c-5.1,20.4-21.9,20.5-44.5,14.9
		S844.7,1595.9,849.7,1575.5z"/>
	
		<ellipse transform="matrix(0.4285 -0.9035 0.9035 0.4285 -1005.02 1652.1339)" class="st3" cx="803.5" cy="1620.6" rx="8.9" ry="28.4"/>
	<circle class="st4" cx="859.1" cy="1635" r="19"/>
	<circle class="st2" cx="851.3" cy="1628.2" r="6.3"/>
	<circle class="st4" cx="858.9" cy="1674.5" r="7.9"/>
</g>
<g>
	<circle class="st3" cx="1106.1" cy="1587.5" r="89.9"/>
	
		<rect x="1094.3" y="1661.9" transform="matrix(0.9559 -0.2938 0.2938 0.9559 -446.5082 399.8788)" class="st3" width="27.3" height="48.9"/>
	
		<rect x="1146.5" y="1645.8" transform="matrix(0.9559 -0.2938 0.2938 0.9559 -439.4849 414.5048)" class="st3" width="27.3" height="48.9"/>
	
		<ellipse transform="matrix(0.9559 -0.2938 0.2938 0.9559 -452.0454 405.5349)" class="st3" cx="1124" cy="1707.6" rx="22.8" ry="8.5"/>
	
		<ellipse transform="matrix(0.9559 -0.2938 0.2938 0.9559 -444.7214 420.0222)" class="st3" cx="1175.9" cy="1690.5" rx="22.8" ry="8.5"/>
	<circle class="st4" cx="1101.6" cy="1565.1" r="30.7"/>
	<circle class="st2" cx="1101.6" cy="1565.1" r="10.2"/>
	<path class="st5" d="M998.2,1533.2c-16.5-28.9-4-67.2,28-85.4c32-18.2,71.2-9.5,87.7,19.5s-2.7,47.4-34.7,65.6
		C1047.3,1551.1,1014.7,1562.1,998.2,1533.2z"/>
	<path class="st6" d="M1246.3,1651.1c0,62.7-37.3,84.6-83.2,84.6c-1.1,0-2.1,0-3.2,0c-2.1,0-4.2-0.1-6.3-0.3
		c-41.5-2.9-73.7-26-73.7-84.3c0-60.3,77.1-136.5,82.9-142.1l0,0c0.2-0.2,0.3-0.3,0.3-0.3S1246.3,1588.5,1246.3,1651.1z"/>
	<path class="st2" d="M1160,1726.1l30.4-42.5l-30.5,47.2l-0.1,4.9c-2.1,0-4.2-0.1-6.3-0.3l3.3-62.7l0-0.5l0.1-0.1l0.3-5.9
		l-30.6-47.3l30.7,42.9l0.1,1.3l2.5-47.4l-26.2-48.9l26.5,40.6l2.6-98.2l0-0.3v0.3l-0.4,77.5l26.1-30.7l-26.2,37.4l-0.7,42.4
		l24.3-40.7l-24.4,47l-0.4,23.6l35.3-56.7l-35.5,64.9L1160,1726.1z"/>
	
		<ellipse transform="matrix(0.4285 -0.9035 0.9035 0.4285 -853.3967 1894.8312)" class="st3" cx="1071.2" cy="1622.1" rx="14.1" ry="45"/>
</g>
</svg>
