<?xml version="1.0" encoding="utf-8"?>
<!-- Generator: Adobe Illustrator 24.0.1, SVG Export Plug-In . SVG Version: 6.00 Build 0)  -->
<svg version="1.1" id="Calque_1" xmlns="http://www.w3.org/2000/svg" xmlns:xlink="http://www.w3.org/1999/xlink" x="0px" y="0px"
	 viewBox="0 0 636.3 623" style="enable-background:new 0 0 636.3 623;" xml:space="preserve">
<style type="text/css">
	.st0{fill:#3E559A;}
	.st1{opacity:0.2;fill:#020203;enable-background:new    ;}
	.st2{opacity:0.3;fill:#FFFFFF;enable-background:new    ;}
	.st3{opacity:0.5;}
	.st4{fill:#EB6047;}
	.st5{fill:none;stroke:#EB6047;stroke-miterlimit:10;}
	.st6{fill:#70C0A2;}
	.st7{opacity:0.5;fill:#5781C1;enable-background:new    ;}
	.st8{fill:url(#SVGID_1_);}
	.st9{fill:#965E7C;}
	.st10{fill:#585A88;}
	.st11{opacity:5.000000e-02;fill:#020203;enable-background:new    ;}
	.st12{fill:#F6C3A5;}
	.st13{opacity:0.1;fill:#020203;enable-background:new    ;}
	.st14{opacity:7.000000e-02;fill:#FFFFFF;enable-background:new    ;}
	.st15{fill:#EB6681;}
</style>
<g>
	<path class="st0" d="M622.8,519.5H13.5C6,519.5,0,523.3,0,527.9v86.7c0,4.6,6,8.4,13.5,8.4h609.3c7.5,0,13.5-3.8,13.5-8.4v-86.7
		C636.3,523.3,630.2,519.5,622.8,519.5z"/>
	<path class="st1" d="M622.8,519.5H13.5C6,519.5,0,523.3,0,527.9v86.7c0,4.6,6,8.4,13.5,8.4h609.3c7.5,0,13.5-3.8,13.5-8.4v-86.7
		C636.3,523.3,630.2,519.5,622.8,519.5z"/>
	<path class="st0" d="M11.5,519.5h613.2c6.4,0,11.5,5.2,11.5,11.5v74.4c0,6.4-5.2,11.5-11.5,11.5H11.5c-6.4,0-11.5-5.2-11.5-11.5
		v-74.4C0,524.7,5.2,519.5,11.5,519.5z"/>
	<rect x="0" y="533" class="st2" width="636.3" height="8.4"/>
	<rect x="0" y="552.6" class="st2" width="636.3" height="8.4"/>
	<rect x="0" y="572.2" class="st2" width="636.3" height="8.4"/>
	<rect x="0" y="591.8" class="st2" width="636.3" height="8.4"/>
	<g class="st3">
		<path class="st4" d="M539.9,171c-3.6-2.6-8.6-2.1-11.6,1.1c-3.3,3.6-3.2,9.3,0.4,12.7l11.1,11c0.7,0.7,1.9,0.7,2.6,0l11-11.1
			c3.5-3.5,3.6-9.1,0.3-12.7c-3.1-3.2-8-3.6-11.6-1C541.4,171.5,540.6,171.5,539.9,171z"/>
		<path class="st5" d="M541.1,195.4c-0.3,0.5-0.3,1.1,0,1.5c0.2,0.2,0.3,0.5,0.4,0.7c0.3,0.7-0.2,1.5-0.7,2.1
			c-0.3,0.4-0.7,0.9-0.5,1.3c0.1,0.2,0.2,0.3,0.4,0.4c1.1,1,1.1,2.8,0.1,3.9c-0.3,0.3-0.7,0.6-1.1,0.7"/>
	</g>
	<g class="st3">
		<path class="st4" d="M65.6,231.5c-3.6-2.6-8.6-2.1-11.6,1.1c-3.3,3.6-3.2,9.3,0.4,12.7l11.1,11c0.7,0.7,1.9,0.7,2.6,0l11-11.1
			c3.5-3.5,3.6-9.1,0.3-12.7c-3.1-3.2-8-3.6-11.6-1C67.1,232,66.2,232,65.6,231.5z"/>
		<path class="st5" d="M66.8,255.9c-0.3,0.5-0.3,1.1,0,1.5c0.2,0.2,0.3,0.5,0.4,0.7c0.3,0.7-0.2,1.5-0.7,2.1
			c-0.3,0.4-0.7,0.9-0.5,1.3c0.1,0.2,0.2,0.3,0.4,0.4c1.1,1,1.1,2.8,0.1,3.9c-0.3,0.3-0.7,0.6-1.1,0.7"/>
	</g>
	<g class="st3">
		<path class="st4" d="M376.3,1.7c-3.6-2.6-8.6-2.1-11.6,1.1c-3.3,3.6-3.2,9.3,0.4,12.7l11.1,11c0.7,0.7,1.9,0.7,2.6,0l11-11.1
			c3.5-3.5,3.6-9.1,0.3-12.7c-3.1-3.2-8-3.6-11.6-1C377.9,2.2,377,2.2,376.3,1.7z"/>
		<path class="st5" d="M377.6,26.1c-0.3,0.5-0.3,1.1,0,1.5c0.2,0.2,0.3,0.5,0.4,0.7c0.3,0.7-0.2,1.5-0.7,2.1
			c-0.3,0.4-0.7,0.8-0.5,1.3c0.1,0.2,0.2,0.3,0.4,0.4c1.1,1,1.1,2.8,0.1,3.9c-0.3,0.3-0.7,0.6-1.1,0.7"/>
	</g>
	<g class="st3">
		<rect x="451.5" y="115.5" class="st6" width="2.5" height="13.9"/>
		<rect x="445.7" y="121.2" class="st6" width="13.9" height="2.5"/>
	</g>
	<g class="st3">
		<rect x="168.5" y="328.9" class="st6" width="2.5" height="13.9"/>
		<rect x="162.8" y="334.6" class="st6" width="13.9" height="2.5"/>
	</g>
	<g class="st3">
		<rect x="104.7" y="98.3" class="st6" width="2.5" height="13.9"/>
		<rect x="99" y="104" class="st6" width="13.9" height="2.5"/>
	</g>
	<g class="st3">
		<rect x="540.6" y="313.4" class="st6" width="2.5" height="13.9"/>
		<rect x="534.9" y="319.1" class="st6" width="13.9" height="2.5"/>
	</g>
	<path class="st7" d="M448.3,214.1c-1.4-0.6-2.1-2.2-1.6-3.6c0-0.1,0.1-0.2,0.1-0.3l0,0c0.1-0.8-0.5-1.6-1.4-1.6
		c-0.5-0.1-1.1,0.2-1.4,0.6l0,0c-0.1,0.1-0.1,0.2-0.2,0.3c-0.6,1.4-2.2,2.1-3.6,1.6c-0.1,0-0.2-0.1-0.3-0.1l0,0
		c-0.8-0.1-1.5,0.6-1.6,1.4c0,0.5,0.2,1,0.6,1.3l0,0c0.1,0.1,0.2,0.1,0.3,0.2c1.4,0.6,2.1,2.2,1.6,3.6c0,0.1-0.1,0.2-0.1,0.3l0,0
		c-0.1,0.8,0.6,1.5,1.4,1.6c0.5,0,1-0.2,1.3-0.6l0,0c0.1-0.1,0.1-0.2,0.2-0.3c0.6-1.4,2.2-2.1,3.6-1.7c0.1,0,0.2,0.1,0.3,0.1l0,0
		c0.8,0.1,1.5-0.6,1.6-1.4c0-0.5-0.2-1-0.6-1.3l0,0C448.4,214.2,448.4,214.1,448.3,214.1z"/>
	<path class="st7" d="M149.8,183c-1.4-0.6-2.1-2.2-1.6-3.6c0-0.1,0.1-0.2,0.1-0.3l0,0c0.1-0.8-0.5-1.6-1.4-1.6
		c-0.5-0.1-1.1,0.2-1.4,0.6l0,0c-0.1,0.1-0.1,0.2-0.2,0.3c-0.6,1.4-2.2,2.1-3.6,1.6c-0.1,0-0.2-0.1-0.3-0.1l0,0
		c-0.8-0.1-1.5,0.6-1.6,1.4c0,0.5,0.2,1,0.6,1.3l0,0c0.1,0.1,0.2,0.1,0.3,0.2c1.4,0.6,2.1,2.2,1.7,3.6c0,0.1-0.1,0.2-0.1,0.3l0,0
		c-0.1,0.8,0.6,1.5,1.4,1.6c0.5,0,1-0.2,1.3-0.6l0,0c0.1-0.1,0.1-0.2,0.2-0.3c0.6-1.4,2.2-2.1,3.6-1.7c0.1,0,0.2,0.1,0.3,0.1l0,0
		c0.8,0.1,1.5-0.6,1.6-1.4c0-0.5-0.2-1-0.6-1.3l0,0C150,183.1,149.9,183,149.8,183z"/>
	<path class="st7" d="M267.5,23.5c-1.4-0.6-2.1-2.2-1.6-3.6c0-0.1,0.1-0.2,0.1-0.3l0,0c0.1-0.8-0.5-1.6-1.4-1.6
		c-0.5-0.1-1.1,0.2-1.4,0.6l0,0c-0.1,0.1-0.1,0.2-0.2,0.3c-0.6,1.4-2.2,2.1-3.6,1.7c-0.1,0-0.2-0.1-0.3-0.1l0,0
		c-0.8-0.1-1.5,0.6-1.6,1.4c0,0.5,0.2,1,0.6,1.3l0,0c0.1,0.1,0.2,0.1,0.3,0.2c1.4,0.6,2.1,2.2,1.7,3.6c0,0.1-0.1,0.2-0.1,0.3l0,0
		c-0.1,0.8,0.6,1.5,1.4,1.6c0.5,0,1-0.2,1.3-0.6l0,0c0.1-0.1,0.1-0.2,0.2-0.3c0.6-1.4,2.2-2.1,3.6-1.7c0.1,0,0.2,0.1,0.3,0.1l0,0
		c0.8,0.1,1.5-0.6,1.6-1.4c0-0.5-0.2-1-0.6-1.3l0,0C267.7,23.6,267.6,23.6,267.5,23.5z"/>
	
		<linearGradient id="SVGID_1_" gradientUnits="userSpaceOnUse" x1="520.3711" y1="-25.6799" x2="520.3711" y2="328.5276" gradientTransform="matrix(1 0 0 -1 -194.18 553.918)">
		<stop  offset="0" style="stop-color:#808181;stop-opacity:0.25"/>
		<stop  offset="0.54" style="stop-color:#808181;stop-opacity:0.12"/>
		<stop  offset="1" style="stop-color:#808181;stop-opacity:0.1"/>
	</linearGradient>
	<path class="st8" d="M462.5,501.2l-39.8-30.6c0,0-3.2-12.7-4.5-21.6c-1.3-8.9-3.2-47.1-3.2-47.1c0.9-3.3,1.5-6.7,1.8-10.1
		c0.4-0.1,0.8-0.2,1.2-0.3c6-1.5,11-5.8,13.4-11.6c4.1-10.2-1.2-22.2-7.9-30.3c-6.7-8.1-15.1-14.5-19.5-24.5
		c-5.4-12.3-3.6-27.2-6.3-40.7c-0.3-1.9-1-3.7-2-5.3c-1.7-2.1-4.4-2.6-6.8-3.4c-7.6-2.7-13.3-10.1-17.7-17.8
		c-7.2-12.5-14.6-31.4-29.4-32.5c-5.5-0.4-11.2,1.5-16.8,1.4c-8.6,0-17.2,0.1-25.7,1.3c-3.1,0.4-6.2,1-8.8,3
		c-8.8,6.9-4.8,25.2-13.2,32.7c-2.5,2.2-5.7,3-8.6,4.5c-10.7,5.7-15.4,21-14.8,34.7c0.3,6.4,1.6,13.1,5.4,17.8
		c3,3.8,7.3,5.9,10.1,9.9c4.5,6.4,3.9,14.9,3.4,23.5c-6.1,2.5-10.9,5.4-12.4,8.6c-5.2,10.5-4.5,46.5-4.5,46.5s1.9,58.9-12.8,66.2
		l-55.2,38.2c0,0-39.2-34.1-48.8-14c-6.6,13.7,17.5,21.5,33.3,25c-10,7.1-15.5,20.2-10.9,29.1c7.4,14,27.9,23.6,27.9,23.6
		s78.5,3.8,114.7-4.3h0.6c15.4,2.8,37.5,5.7,55.2,4c0.3,0.8,0.6,1.3,0.6,1.3s113.7,9.6,134.2-29.3c10.5-19.9-0.5-29.1-13.7-33.4
		c14.8-1.2,31.6-5.3,33.6-17.9C518,475.1,462.5,501.2,462.5,501.2z M451,513.3c-20.8,7.6-37.7,8-46.7,7.4
		c-4.4-9.6-22.8-51.4-23.3-79.3c0.1-6.2,1.2-11.7,3.7-15.8c5.3-8.8,6.9-15.7,6.8-21c0-0.4,0-0.8,0-1.1c0-1.6-0.1-3.2-0.5-4.8
		c0.9,2.2,1.1,4.5,0.8,6.8c-1.9,9.9,3.2,73.8,3.2,73.8s4.2,14.3,12.8,18.5L451,513.3z M247.3,508.8l20-12.7c0,0,9.3-4.5,10.3-15.3
		l6.6-51.7c0.4,2.2,1,4.4,1.8,6.5c1.2,3.4,1.6,8.4,1.7,14.3c-0.3,28.9-10.1,76.7-10.1,76.7h0.1c0,0.1,0,0.3-0.1,0.3l-0.7,0
		c-16.2-0.5-53.8-1.9-74.9-4.8L247.3,508.8z M212.5,538.9L212.5,538.9l-4.9,0.1L212.5,538.9z"/>
	<path class="st9" d="M369.5,263.2c4.3,7.5,9.8,14.7,17.2,17.3c2.3,0.8,4.9,1.3,6.5,3.4c1,1.5,1.7,3.3,2,5.1
		c2.7,13.1,0.9,27.7,6.1,39.7c4.3,9.7,12.4,16.1,18.9,23.9c6.5,7.8,11.5,19.6,7.6,29.5c-2.3,5.6-7.1,9.8-13,11.3
		c-5.4,1.5-11.1,0.9-16.6-0.1c-7.2-1.3-14.6-3.3-20.7-8.2c-10.4-8.5-14.9-23.7-20.3-37.3c-2.6-6.3-6-13-11.6-15.3
		c-6.5-2.6-13.7,1.7-17.9,8.1c-4.2,6.4-6.1,14.4-8.1,22.1c-2.3,8.7-5.2,17.7-11.2,23.4c-5.3,5.2-13.2,6.8-20.2,4
		c-6.7-2.8-12-9.9-13.6-18.1c-2.4-12.6,3.3-27.8-3.7-37.8c-2.7-3.9-6.9-6-9.8-9.6c-3.6-4.6-5-11.1-5.3-17.4
		c-0.6-13.4,4-28.3,14.3-33.9c2.8-1.5,5.8-2.3,8.3-4.4c8.2-7.3,4.3-25.1,12.8-31.9c2.5-2,5.5-2.5,8.5-2.9c8.3-1.1,16.5-1.3,24.9-1.3
		c5.4,0,10.9-1.8,16.3-1.4C355.4,232.5,362.6,251,369.5,263.2z"/>
	<polygon class="st10" points="216,533.9 219.1,571 438.2,569.7 434.1,529.2 360,520.6 230.1,528.4 	"/>
	<polygon class="st11" points="216,533.9 219.1,571 438.2,569.7 434.1,529.2 360,520.6 230.1,528.4 	"/>
	<path class="st12" d="M360.2,559.8l-72.9,6.8c0,0,50,12.7,79.1,6.5L360.2,559.8z"/>
	<path class="st13" d="M360.2,559.8l-72.9,6.8c0,0,50,12.7,79.1,6.5L360.2,559.8z"/>
	<path class="st12" d="M304.6,298.5c0,0,14.3,37.6-6.8,54.3c-21.1,16.8-3.7,63.6-3.7,63.6l81.3-3.7c0,0,8.1-52.8,3.7-63.9
		c0,0-19.2,5.6-23.6-6.2c-4.3-11.8-7.5-44.1-7.5-44.1L304.6,298.5z"/>
	<path class="st10" d="M286,525.7c0,0-68.6-1.6-88.8-6.5s-37.6,19-30.4,32.6s27,23,27,23s102.1,5,124.1-9c0,0,8.4-23.9,0-28.6H211.5
		l78.5-1.6L286,525.7z"/>
	<path class="st10" d="M394.9,518.6c0,0,23,5,54.6-7.5c0,0,59.3-1.9,39.4,36c-19.9,37.8-129.7,28.6-129.7,28.6s-6.5-14,0-17.7
		c6.5-3.7,63.3-27.6,81-26.4l-49.1,9.6L394.9,518.6z"/>
	<path class="st13" d="M350.9,316.6c-1.2-8.8-1.9-16-1.9-16h-43.5c2,5.7,3.4,11.6,4.2,17.6C322.2,326.9,339,326.3,350.9,316.6
		L350.9,316.6z"/>
	<circle class="st12" cx="328.4" cy="288.1" r="34.1"/>
	<path class="st12" d="M308.3,347.6c0,0-41,7.8-45.9,18c-5,10.2-4.3,45.3-4.3,45.3s1.9,57.4-12.4,64.6l-53.4,37.2
		c0,0-37.9-33.2-47.2-13.7c-9.3,19.5,44.7,26.7,44.7,26.7l60.2-18l19.2-12.4c0,0,9-4.3,9.9-14.9l8.1-63.9l32.3-9.3h52.1l7-19.9
		c0,0,12.9,10.3,11,19.9c-1.9,9.6,3.1,72,3.1,72s4,14,12.4,18l48.4,17.4c0,0,51.2,5,54.6-17.4c3.4-22.3-50.3,3.2-50.3,3.2
		l-38.5-29.8c0,0-3.1-12.4-4.3-21.1s-3.1-45.9-3.1-45.9s11.8-39.1-22.4-45.9l-44.1-13.7L308.3,347.6z"/>
	<path class="st13" d="M280.9,355.5l6.4,42.1c0,0-6.5,19.6,0,38.8s-8.1,91-8.1,91s76.7,24.5,123.5-3.7c0,0-34.4-72.6-19.9-96.8
		c14.6-24.2,0.2-33.7,0.2-33.7l2.2-44.5l-10.5-3.1l-6.2,44.1c0,0-42.8,29.8-74.5,3.7l-6.8-47.8L280.9,355.5z"/>
	<path class="st14" d="M325.2,405.4c-6.9-11-21-14.9-32.5-9.2C303,404.1,314.5,406.2,325.2,405.4z"/>
	<path class="st14" d="M342.7,400.8c6.9-11,20.9-14.9,32.5-9.2C364.9,399.4,353.4,401.5,342.7,400.8z"/>
	<path class="st13" d="M280.9,355.5l6.4,39.9c0,0-6.5,19.6,0,38.8s-8.1,90.9-8.1,90.9s76.7,24.5,123.5-3.7c0,0-34.4-72.6-19.9-96.8
		c14.6-24.2,0.2-33.7,0.2-33.7l2.2-44.5l-10.5-3.1l-6.2,44.1c0,0-42.8,29.8-74.5,3.7l-6.8-47.8L280.9,355.5z"/>
	<path class="st15" d="M280.6,355.2l6.7,40.8c0,0-6.5,19.6,0,38.8s-8.1,90.9-8.1,90.9s76.7,24.5,123.5-3.7c0,0-34.4-72.6-19.9-96.8
		c14.6-24.2,0.2-33.7,0.2-33.7l2.2-44.5l-10.5-3.1l-6.2,44.1c0,0-42.8,29.8-74.5,3.7l-6.8-47.8L280.6,355.2z"/>
	<path class="st12" d="M312.1,540.9l16.1-2.2c0,0,18.6-23.9,32-5.6c0,0,5.6,11.8,12.4,14c4.7,1.4,9.4,2.5,14.3,3.1l-27.6,7.8
		c0,0-12.1,7.1-24.8,5.3c-7.5-1.1-15.1-0.5-22.3,1.9L312.1,540.9z"/>
	<path class="st13" d="M294.2,439.6c0,0,29.2,4.3,34.1-3.4"/>
	<path class="st13" d="M349.5,434.6c0,0,5.6,5.6,27.9,1.6"/>
	<path class="st13" d="M292.7,348c0,0,21.4,3.1,25.5,1.2"/>
	<path class="st13" d="M339.8,348c0,0,21.4,3.1,25.5,1.2"/>
	<path class="st13" d="M314.4,538.6c0,0,5.9,27.8,0,28.8c-5.9,1-14.3-4.6-14.3-5.2c0-0.6,3.7-18.3,3.7-18.3L314.4,538.6z"/>
	<path class="st10" d="M313.8,538.6c0,0,5.9,27.8,0,28.8c-5.9,1-14.3-4.6-14.3-5.2c0-0.6,3.7-18.3,3.7-18.3L313.8,538.6z"/>
	<path class="st13" d="M285,343.9c-2.6,6-3.5,13.2-0.8,19.1c2.1,4.6,6.2,8.2,7,13.2c1,6.2-3.6,12.5-1.9,18.6
		c0.7,2.3,2.2,4.3,3.7,6.1c4.7,5.6,11,11,18.3,10.6c1.2-11.3-8.6-22.2-5.4-33.1c1.1-3.9,3.8-7.1,5.4-10.8c2.7-6.2,2.3-13.2,1.3-19.8
		c-1.4-9.7-5-21.5-14.6-26c-4.4-2.1-10.6-2.2-12.2,3.4c-0.9,3,1.1,5.8,1.4,8.8C287.8,337.8,286.4,340.6,285,343.9z"/>
	<path class="st9" d="M285,343c-2.6,6-3.5,13.2-0.8,19.1c2.1,4.5,6.2,8.2,7,13.2c1,6.2-3.6,12.5-1.9,18.6c0.7,2.3,2.2,4.3,3.7,6.1
		c4.7,5.6,11,11,18.3,10.6c1.2-11.3-8.6-22.2-5.4-33.1c1.1-3.9,3.8-7.1,5.4-10.8c2.7-6.2,2.3-13.2,1.3-19.8c-1.4-9.7-5-21.5-14.6-26
		c-4.4-2.1-10.6-2.2-12.2,3.4c-0.9,3,1.1,5.8,1.4,8.8C287.8,336.8,286.4,339.7,285,343z"/>
	<path class="st13" d="M287.4,271.4c0,0,45.3-6.2,46.6,3.1c1.2,9.3,41.3,24.5,41.3,24.5l-9.9-24.5L347,244.1c0,0-33.5-2.5-35.1,0
		c-1.5,2.5-19.3,10.5-19.3,10.5L287.4,271.4z"/>
	<path class="st9" d="M287.4,270.7c0,0,45.3-6.2,46.6,3.1c1.2,9.3,41.3,24.5,41.3,24.5l-9.9-24.5L347,243.4c0,0-33.5-2.5-35.1,0
		c-1.5,2.5-19.3,10.5-19.3,10.5L287.4,270.7z"/>
	<path class="st13" d="M366.3,337.1c2.2,2.6,3.8,5.8,4.5,9.1c0.8,3.2,0.8,6.5,1.5,9.7c1.5,6.8,6,12.6,10.8,17.7
		c1.5,1.9,3.4,3.4,5.5,4.6c2.2,1.1,4.9,1.3,6.9,0c-1.9-1.6-2.9-3.9-3.6-6.3c-1-3.3-1.4-6.7-1.3-10.1c0.2-5.7,1.9-11.8-0.5-17
		c-1.4-3-3.9-5.3-6.5-7.4c-1.8-1.5-3.8-2.8-5.8-3.8c-3.9-1.9-8.3-2.8-12.5-3.2C359.6,329.9,364.5,335,366.3,337.1z"/>
	<path class="st9" d="M366.3,336.1c2.2,2.6,3.8,5.7,4.5,9.1c0.8,3.2,0.8,6.5,1.5,9.7c1.5,6.8,6,12.6,10.8,17.7
		c1.5,1.9,3.4,3.4,5.5,4.6c2.2,1.1,4.9,1.3,6.9,0c-1.9-1.6-2.9-3.9-3.6-6.3c-1-3.3-1.4-6.7-1.3-10.1c0.2-5.7,1.9-11.8-0.5-17
		c-1.4-3-3.9-5.3-6.5-7.4c-1.8-1.5-3.8-2.8-5.8-3.8c-3.9-1.9-8.3-2.8-12.5-3.2C359.6,329,364.5,334,366.3,336.1z"/>
</g>
</svg>
