<?xml version="1.0" encoding="utf-8"?>
<!-- Generator: Adobe Illustrator 24.0.1, SVG Export Plug-In . SVG Version: 6.00 Build 0)  -->
<svg version="1.1" id="Calque_1" xmlns="http://www.w3.org/2000/svg" xmlns:xlink="http://www.w3.org/1999/xlink" x="0px" y="0px"
	 viewBox="0 0 722.3 483.5" style="enable-background:new 0 0 722.3 483.5;" xml:space="preserve">
<style type="text/css">
	.st0{opacity:0.1;fill:#575EA7;enable-background:new    ;}
	.st1{opacity:0.5;}
	.st2{fill:#575EA7;}
	.st3{opacity:0.2;fill:#FFFFFF;enable-background:new    ;}
	.st4{fill:url(#SVGID_1_);}
	.st5{opacity:6.000000e-02;fill:#020203;enable-background:new    ;}
	.st6{fill:#A2636B;}
	.st7{fill:#474454;}
	.st8{fill:#F6BDBE;}
	.st9{opacity:3.000000e-02;fill:#020203;enable-background:new    ;}
	.st10{opacity:6.000000e-02;}
	.st11{fill:#020203;}
</style>
<g>
	<path class="st0" d="M419.7,79.7c-46.3-1.6-90.4-16.6-132.5-32.9s-83.8-34.5-129-43.1c-29.1-5.6-62.4-6.4-85.8,9.2
		c-22.5,15-29.8,40.9-33.7,64.9c-2.9,18.1-4.7,37.1,3.4,54c5.6,11.7,15.6,21.6,22.4,32.9c24,39.1,7,87.4-18.9,125.7
		c-12.2,17.9-26.3,35-35.7,54.1s-13.7,41-5.5,60.4c8.2,19.3,27.6,33.8,48.6,44c42.7,20.7,93,26.6,142.1,30
		c108.6,7.4,217.8,4.2,326.8,1c40.3-1.2,80.8-2.4,120.4-8.6c22-3.5,44.8-9,60.7-22.2c20.3-16.8,25.3-45.3,11.7-66.5
		c-22.8-35.4-85.9-44.2-101.8-82.2c-8.8-20.9,0.2-44.2,13-63.6c27.4-41.6,73.2-78.1,75.6-125.7c1.7-32.7-20.4-65.4-54.5-80.9
		C611.3,14,561.8,16,535.4,42.9C508.3,70.5,460.6,81.1,419.7,79.7z"/>
	<g class="st1">
		<polygon class="st2" points="314,252.4 293,252.8 289.6,257.5 289.6,273.8 293.8,276.8 314,276.8 318.2,272.1 318.2,256.7 		"/>
		<path class="st3" d="M313.5,255c0,0-19.3,3-21,0l0.4-2.1l20.5-0.5V255z"/>
		<path class="st2" d="M315.7,299.5l3.4,3.4v16.3l-3.4,3.4c0,0-12.4,4.3-20.6,0.9l-3.9-3.8v-16.3l3.4-3.9L315.7,299.5z"/>
		<path class="st3" d="M314.8,303.4c0,0-15,3.4-20.1,0v-3.9h21L314.8,303.4z"/>
		<path class="st2" d="M307.5,276.7v23.2c-0.1,1.9-1.7,3.4-3.6,3.3l0,0c-1.9,0.1-3.5-1.4-3.6-3.3v-23.2c0-2,1.9-3.5,4.1-3.3l0,0
			C306.1,273.5,307.5,275,307.5,276.7z"/>
		<polygon class="st2" points="347.6,253.1 326.6,253.5 323.2,258.2 323.2,274.5 327.4,277.5 347.6,277.5 351.8,272.8 351.8,257.3 
					"/>
		<path class="st3" d="M347.1,255.6c0,0-19.3,3-21,0l0.4-2.1l20.6-0.4V255.6z"/>
		<path class="st2" d="M349.3,300.2l3.4,3.4v16.3l-3.4,3.4c0,0-12.4,4.3-20.6,0.9l-3.9-3.8V304l3.4-3.9L349.3,300.2z"/>
		<path class="st3" d="M348.4,304c0,0-15,3.4-20.1,0v-3.9h21L348.4,304z"/>
		<path class="st2" d="M341.1,277.4v23.2c-0.1,1.9-1.7,3.4-3.6,3.3l0,0c-1.9,0.1-3.5-1.4-3.6-3.3v-23.2c0-2,1.9-3.5,4.1-3.3l0,0
			C339.6,274.2,341,275.6,341.1,277.4z"/>
		<polygon class="st2" points="390.3,265.5 373.1,265.8 370.2,269.7 370.2,283.1 373.8,285.5 390.3,285.5 393.9,281.7 393.9,269 		
			"/>
		<path class="st3" d="M390,267.6c0,0-15.9,2.5-17.3,0l0.4-1.8l16.9-0.4L390,267.6z"/>
		<path class="st2" d="M391.7,304.2l2.8,2.8v13.4l-2.8,2.8c0,0-10.2,3.5-16.9,0.7l-3.2-3.2v-13.4l2.8-3.2H391.7z"/>
		<path class="st3" d="M391,307.4c0,0-12.3,2.8-16.6,0v-3.2h17.3L391,307.4z"/>
		<path class="st2" d="M385,285.5v19.1c-0.1,1.6-1.4,2.8-3,2.7l0,0c-1.6,0.1-2.9-1.1-3-2.7v-19.1c0.1-1.6,1.5-2.8,3.1-2.7
			c0.1,0,0.2,0,0.3,0l0,0C383.8,282.9,385,284,385,285.5z"/>
		<polygon class="st2" points="418,266 400.7,266.3 397.9,270.2 397.9,283.6 401.4,286.1 418,286.1 421.5,282.2 421.5,269.5 		"/>
		<path class="st3" d="M417.6,268.1c0,0-15.9,2.5-17.3,0l0.4-1.8l16.9-0.4L417.6,268.1z"/>
		<path class="st2" d="M419.4,304.8l2.8,2.8V321l-2.8,2.8c0,0-10.2,3.5-16.9,0.7l-3.2-3.2v-13.4l2.8-3.2H419.4z"/>
		<path class="st3" d="M418.7,307.9c0,0-12.3,2.8-16.6,0v-3.2h17.3L418.7,307.9z"/>
		<path class="st2" d="M412.7,286v19.1c-0.1,1.6-1.4,2.8-3,2.7l0,0c-1.6,0.1-2.9-1.1-3-2.7V286c0-1.6,1.6-2.9,3.3-2.7l0,0
			C411.5,283.4,412.6,284.6,412.7,286z"/>
	</g>
	
		<linearGradient id="SVGID_1_" gradientUnits="userSpaceOnUse" x1="371.943" y1="-24.7505" x2="371.943" y2="358.229" gradientTransform="matrix(1 0 0 -1 -23.94 420.3037)">
		<stop  offset="0" style="stop-color:#808181;stop-opacity:0.25"/>
		<stop  offset="0.54" style="stop-color:#808181;stop-opacity:0.12"/>
		<stop  offset="1" style="stop-color:#808181;stop-opacity:0.1"/>
	</linearGradient>
	<path class="st4" d="M657.7,335.2c-1.3-2.4-3.9-4-6.5-4.8c-2.7-0.6-5.5-0.8-8.2-0.5c-4.4,0.3-8.8,1-13.1,2.2
		c-2.7,0.7-5.4,1.6-7.2,3.8c-0.1,0.1-0.1,0.1-0.2,0.2c-2.8,0.7-5.5,1.8-8.2,2.7c-2.7,0.9-5.4,1.6-8.2,2.2c3.6-2.1,7.1-4.2,10.1-7.1
		c1.4-1.4,2.7-2.9,3.8-4.5c2,0.6,4.2,0.7,6.3,0.4c4.2-0.7,7.7-3.8,10.9-6.7l10.3-9.4c1.6-1.5,3.3-3,4.4-5c1.5-2.7,1.6-6,1.6-9.1
		c0.1-4.3,0-8.6-0.1-12.9l3.2,2.5c-0.5-5.3,0.5-10.6,2.8-15.4c1.1-2.3,2.6-4.5,2.6-7.1c0.1-3.9-3.3-7-6.8-8.8
		c-3.5-1.7-7.4-2.9-10.2-5.5c-4.2-4-5-10.3-7.1-15.8c-1.2-3-2.7-5.9-4.4-8.6l-4.1-7.1c-2-3.7-4.3-7.3-6.8-10.8
		c-4.2-5.6-9.5-10.2-14.8-14.7l-27.5-23.7c-6.7-5.8-13.4-11.5-20.6-16.6c-14.7-10.2-31.2-17.2-47.6-24.2c-4.1-1.8-8.4-3.5-12.9-3.3
		c-3.4,0.2-6.6,1.6-9.1,3.9c-2.4-0.7-4.7-1.6-6.9-2.6l-0.2-0.1c0.1-0.4,0.1-0.7,0.1-1.1c0.1-0.5,0.1-1,0.1-1.5
		c1.2-0.2,2.4-0.6,3.5-1.2c0.6-0.3,1.1-0.7,1.5-1.1c0.5-0.8,0.8-1.8,0.7-2.8c0.5-6.6,1-13.2,0.5-19.7c-0.5-6.5-2.2-13.1-5.6-18.7
		c-1.1-1.7-2.4-3.4-4.3-4.1c-2.5-1-5.4-0.1-8.1-0.5c-4.6-0.8-7.5-5.3-10.9-8.7c-8.5-8.5-23-9.7-32.8-2.9c-3.7,2.6-6.7,6.1-10,9.2
		c-3.3,3.1-7.2,5.9-11.7,6.5c-0.8,0-1.6,0.2-2.4,0.6c-0.9,0.6-1.3,1.7-1.7,2.7c-1.3,3.5-2.5,7.2-2.8,10.9c0-0.2-0.1-0.5-0.1-0.7
		c-0.2,1.4-0.2,2.8-0.1,4.1c0.1,1.8,0.6,3.5,1.5,5c0.7,1.5,1.9,2.6,3.4,3.3c1.1,0.4,2.2,0.6,3.3,0.5h0.5c-0.2,0.5-0.4,1-0.5,1.5
		c-1.4,4.1-2.1,8.5-2.1,12.9c0,21.9,17.5,39.7,39.1,39.7c2.6,0,5.2-0.3,7.7-0.8c0.8,0.3,1.7,0.5,2.5,0.8c1.7,0.6,3.3,1.2,4.9,1.9
		c0.7,0.3,3.4,1.9,6.7,4l0,0l-0.2,0.5c-6.6,6.1-9.3,15.4-7.2,24.1c2.4,9.3,10.3,17.3,9.5,26.9c-0.1,1.4-0.4,2.8-0.2,4.1
		c0.3,1.9,1.6,3.4,2.9,4.8c1.1,1.2,2.3,2.4,3.4,3.5c-0.1,6.1-0.6,12.2-1.2,18.4c-0.1,0.5-0.1,1.1-0.1,1.6c0,2.6,1,5.2,2.7,7.2
		c1.8,2.2,2.5,5.5,2.2,8.5c-0.5,4.2-2.6,8.1-4,12.1c-6.3,18.1,1.4,38.5-2.9,57.1c-1.1,4.6-2.9,9.1-3.1,13.8c-0.1,3,0.3,6.1-0.8,8.8
		c-1,2.4-3,4.1-5,5.7c-2.7,2.3-5.4,4.8-8,7.3c-3.9-2.1-8-4.1-12.1-5.7c-0.7-0.3-1.4-0.5-2.1-0.7c-4.9-4.6-11.1-7.5-16.9-10.9
		c-4.8-2.8-9.4-5.9-14-9.1c-4.4-3-8.9-6-12.6-9.9c-1.9-2-3.6-4.1-5.6-5.9c-1.8-1.5-3.7-2.8-5.6-4c-8.9-5.8-17.4-12.1-25.4-19.1
		c-6.1-5.3-11.1-12.1-17.6-16.9c-4-2.9-8.6-5.6-13.5-5c-1.6,0.2-3.1,0.6-4.5,1.4c-1.3-0.5-2.7-0.9-4.1-0.9c-4-0.1-7.6,2-11,4.1
		c-20.1,12.2-40.4,23.8-61.1,34.9c-4.2,2.2-8.4,4.5-12.4,7c-7.8,5-14.7,11.3-20.4,18.6c-1.1,1.3-2.4,2.9-4.1,2.7
		c-0.5-0.1-0.9-0.2-1.3-0.5c-2.6-1.4-4.2-4.1-5.6-6.7c-1.1-1.9-2.2-3.8-3.8-5.3l0,0c-0.3-0.9-0.8-1.7-1.3-2.5
		c2.2-5.5,4.1-11.1,5.9-16.8c0.9-3,1.8-6,3-8.8c2.9-7.1,7.6-13.6,9.2-21.1c0.4-1.8,0.6-3.7,0.9-5.5c18-3.5,31.6-19.6,31.6-39
		c0-21.9-17.5-39.7-39.1-39.7s-39.1,17.8-39.1,39.7c0,13.6,6.8,26.2,18.2,33.6c0,0.1,0,0.2,0,0.2c0,1.3-0.2,2.5-0.4,3.8
		c-0.7,4.2-2.5,8.2-4.3,12c-1.2,2.6-2.4,5.1-3.6,7.7c-0.6-0.1-1.2-0.3-1.7-0.6c-1.1-0.6-1.5-1.9-1.9-3c-1.8-5.2-3.9-10.3-6.5-15.2
		c-1-2.1-2.3-4-3.8-5.8c-2.6-2.9-6.3-4.6-9.8-6.4c-0.6-0.3-1.2-0.6-1.8-0.9c-0.5-0.4-1.1-0.7-1.6-1.1c-2.9-1.6-6.2-2.8-8.6-5.1
		c-1.8-1.7-3.1-4-4.8-5.8c-2.8-3.1-6.8-4.8-10.6-6.5c-2-0.9-4.1-1.7-6.2-1.6c-0.3,0-0.6,0-0.9,0.1c-0.5,0.1-1,0.2-1.5,0.4
		c-0.5-0.3-1-0.6-1.4-0.9c-2.3-1.8-3.2-4.9-4-7.7c-1.3-4.8-2.6-9.7-1.8-14.7c0.1-0.8,0.3-1.7,0.6-2.5c0.2-0.3,0.4-0.6,0.6-1
		c17.3-5.2,27.1-23.4,21.9-40.7c-1-3.5-2.7-6.8-4.8-9.7c-0.3-0.4-0.6-0.9-1-1.3l0.4-0.2c3.5-2.1,4.3-7.2,2.7-11
		c-1.6-3.8-5-6.4-8.5-8.5c-0.5-0.3-1-0.6-1.5-0.9l-0.4-0.2c-0.4-0.2-0.8-0.4-1.2-0.6l-0.5-0.2c-0.5-0.2-0.9-0.5-1.4-0.7l-0.2-0.1
		c-0.6-0.3-1.1-0.5-1.7-0.7l0,0c-0.6-0.2-1.1-0.4-1.7-0.6l-0.2-0.1c-0.5-0.2-1.1-0.4-1.6-0.6l-0.1,0c-3.9-1.3-8.1-2-12.2-2.1
		c-4.1,0-8.1,0.5-12.1,1.3c-3.9,0.7-7.6,1.8-11.3,3.2c-6,2.6-11.3,6.5-15.5,11.6c-0.9,0.1-1.7,0.2-2.6,0.4c-3.4,0.9-6.4,2.8-9.2,4.9
		c-2.3,1.7-4.4,3.8-6.1,6.1c-2,3-3.5,6.3-4.1,9.9c-2.4,11.1,0.5,22.6,2.7,33.7s3.4,23.3-1.9,33.4c-2,3.8-4.8,7-6.9,10.7
		c-2.1,3.7-3.5,8.2-2.3,12.2c1.5,5,6.3,8.1,8.8,12.6c2.9,5.3,2.1,12.3-1.7,16.9c-0.2,0.2-0.3,0.4-0.5,0.6c-0.2,0.2-0.4,0.5-0.7,0.7
		c4,1.4,8.4-0.1,11.9-2.3c2.8-1.7,5.2-4,7-6.8c4.5-7.4,2.5-16.9,4.1-25.4c2.1-11.1,10.5-21.1,9.3-32.4c-0.8-7.6-5.7-13.9-9.6-20.4
		c-2.6-4.4-4.7-9-6.5-13.7c-0.1-0.2-0.1-0.4-0.2-0.6l0,0c-1.1-3.2-2-6.7-1.4-10c0.2-1.1,0.5-2.2,1-3.2c0,0.1,0,0.2,0,0.4
		c0.1,3.3,0.8,6.5,2.1,9.5c3.9,8.2,13.3,11.9,19.3,18.5c0.3,0.3,0.5,0.6,0.7,0.8c0.1,0.1,0.1,0.2,0.2,0.2l0.5,0.6l0.2,0.3
		c0.2,0.2,0.3,0.4,0.5,0.7l0.2,0.3c0.2,0.3,0.4,0.6,0.6,1c1.5-1.7,3.1-3.5,3.7-5.6c0.1-0.2,0.1-0.4,0.1-0.6c0.1,0.1,0.1,0.1,0.1,0.2
		c0.1,0.7,0.2,1.3,0.3,2l0,0c0,1,0.1,1.9,0.3,2.9c0.5,6,0.1,12.2-0.3,18.2c-0.2,3.2,0.6,8-1.4,10.4l-0.1,0.1
		c-0.1,0.1-0.3,0.3-0.4,0.4l0,0c-0.4,0.4-0.7,0.7-1,1.1c-6.9,7.8-10,18.8-9.9,29.4c0.2,12,4,23.7,8.4,34.9c1.5,4.1,3.3,8.1,5.4,11.9
		c1.1,2.1,2.5,4,4.1,5.6c1.8,1.6,3.9,2.6,6,3.6c0.5,0.3,1.1,0.5,1.6,0.8l1.3,0.6l10.3,4.9c1.9,2.8,3.7,5.6,5.5,8.5
		c0.3,0.4,0.5,0.8,0.8,1.2c2,3.1,4,6.3,6.1,9.3l17.3,25.6c1.3,1.9,2.6,3.8,4.3,5.2c0.5,0.4,1,0.7,1.6,1c0.3,0.1,0.6,0.3,0.9,0.4
		c-0.4,0.6-0.5,1.3-0.5,1.9c0.2,0.7,0.7,1.2,1.3,1.6c3.9,3.2,8.3,6.6,9.5,11.6c0.9,3.5,0,7.3,0.8,10.9c1.4,6.4,7.8,10.3,13.8,12.8
		c13.5,5.5,28.4,7.7,42.7,5.1c14.3-2.6,27.9-10,37.1-21.3c2.8-3.5,5.3-7.3,8-10.9c1.9-2.5,3.9-5,6.1-7.3c2.3-1.1,4.5-2.3,6.7-3.7
		c4.5-3,8.4-6.9,12.5-10.4c3.1-2.7,6.3-5.2,9.1-8.2c2.5-2.8,4.9-5.7,7.1-8.8c5-6.6,10.2-13.2,15.5-19.5c2.9-3.4,5.9-6.9,9.9-8.8
		l0.2-0.1c0.5,2.8,2.7,5.2,4.3,7.6c6.5,10,13.2,20.4,23.2,26.8c5.5,3.5,11.6,5.6,17.8,7.6c15.7,5,31.6,8.8,47.5,12.7
		c0.5-1,1-1.9,1.6-2.8c0.2,0.3,0.5,0.5,0.7,0.8c0.1,0.1,0.1,0.2,0.2,0.3c-0.1,0-0.2,0.1-0.3,0.1c-1,0.5-1.8,1.3-2.3,2.4
		c-1.7,3.4-1.9,7.4-2,11.3c-0.1,3.8,0,7.5,0,11.3c-0.1,1.4,0.1,2.8,0.6,4.1c1.2,2.5,4.3,3.4,7.1,3.8c4.8,0.5,9.6,0.1,14.4-0.6
		c0.3,1.1,0.7,2.2,1.3,3.2c2.7,4.4,7.3,7.3,12.1,9c4.8,1.7,9.9,2.4,14.9,3.4c8.9,1.8,18,4.6,26.8,2.6c3.5-0.8,6.9-2.3,10.4-3
		c8.1-1.5,16.5,1.6,24.6,0.3c3.9-0.6,7.6-2.2,11.2-4c1.8-0.8,3.4-1.9,4.8-3.3c1.3-1.5,2.1-3.5,1.5-5.4c-0.3-1.1-1-2-1.5-3
		c-0.6-1.6-1-3.4-1.1-5.1c-0.7-6.7-1.8-13.3-3.4-19.8c0-0.2-0.1-0.4-0.1-0.6c6.2-2.4,11.7-6.3,17.1-10.1l11.7-8.2
		c3.8-2.7,7.6-5.3,11.8-7.2c6.5-2.8,13.7-3.7,20.7-3.7c2.9,0,5.8,0.1,8.7,0.4c-0.4,0.4-0.6,0.9-0.8,1.4c-0.6,1.8,0.3,3.8,1.7,5.1
		s3.1,2.1,4.7,3c4.4,2.5,8.1,6.1,10.7,10.5c1.6,2.8,2.8,6.1,1.8,9.1c-1.3,3.8-5.7,6.4-5.5,10.4c0.2,2.4,2.1,4.3,4.2,5.2
		c2.2,0.9,4.6,0.9,6.9,0.8c3.8-0.1,7.7-0.4,11.2-2.2c2.3-1.2,4.3-2.9,6.2-4.7c1.7-1.6,3.5-3.3,4.5-5.4c0.9-2,1.1-4.3,1.1-6.6
		c0.2-10.5-1.6-21.2,0.5-31.5c0.6-3.1,1.6-6.2,2.2-9.4c0.8-5,0.5-10.1,0.2-15.1C659.1,339.9,658.9,337.3,657.7,335.2z"/>
	<path class="st5" d="M525.3,189.9c-2.5,1.7-3.3,4.9-3.6,7.8c-1.3,12.6,3.9,25,3.5,37.7c-0.3,10.1-4,19.7-7.7,29
		c-6.3,16-9.6,33.3-10.9,50.4c-1.3,17.1-3.1,35-12.3,49.4c-2.1,3.3-4.5,6.3-6.6,9.6c-2.1,3.4-3.8,7.1-5.7,10.7
		c-5.6,10.6-12.8,20.3-21.3,28.6c-2.5,2.4-5.2,4.8-8.4,6.2c-4.2,1.8-8.9,1.9-13.1,0.1c-4.3-1.8-7.9-5.8-8.1-10.4
		c-0.2-4.2,2.3-7.9,4.8-11.2c8.4-11.3,18.1-21.5,28.8-30.6c1.9-1.6,4-3.3,5-5.7c1.1-2.7,0.7-5.8,0.8-8.7c0.2-4.7,2.1-9.1,3.1-13.7
		c4.4-18.5-3.4-38.7,2.9-56.6c1.4-4,3.5-7.8,4-12c0.4-2.9-0.4-6.2-2.2-8.4c-1.7-2-2.7-4.5-2.7-7.1c0-0.5,0-1.1,0.1-1.6
		c0.8-8.2,1.5-16.5,1.1-24.7c-0.4-8.2-2.1-16.5-5.8-23.8c-2-3.8-4.5-7.3-5.7-11.4c-2-6.6-0.2-13.8,2.8-20.1
		c2.3-4.9,5.3-9.6,9.5-12.9c7.9-6.2,19.7-7,28.3-1.8c6.4,3.8,10.7,10.2,14.2,16.7C522.7,180.4,525.3,184.4,525.3,189.9z"/>
	<path class="st6" d="M504.4,139.9c-1.2,3.2-2.4,6.5-3.6,9.7c-0.8,2.1-1.6,4.3-2.4,6.4c-3.8,9.8-8,19.5-14.6,27.6
		c1-1.2-8.3-7.3-15.1-11.5c-3.3-2.1-6.1-3.6-6.8-3.9c-1.6-0.7-3.3-1.4-4.9-1.9c-2.6-0.9-5.2-1.6-7.8-2.6c-6-2.2-1.8-5.4,0.8-9
		c8.4-11.5,10-27.2,19.6-37.8c3.5,6.7,9.1,12,15.8,15.3c0.1,0.1,0.3,0.1,0.4,0.2c5.7,2.7,12,3.8,17.8,6c0.3,0.1,0.7,0.3,0.8,0.6
		C504.5,139.4,504.5,139.7,504.4,139.9z"/>
	<path class="st6" d="M488,372.1c-5.5,7.9-6.6,18.1-2.9,27.1c0.5,1.2,1.2,2.3,2.1,3.3c1.2,0.9,2.6,1.6,4,1.9
		c12.5,3.5,25.7,2.8,38.5,0.6c4.3-0.7,8.6-1.7,12.7-3.2c6.3-2.4,12-6.3,17.5-10.1l11.8-8.1c3.8-2.6,7.7-5.3,11.9-7.1
		c6.5-2.8,13.7-3.6,20.8-3.6c6.1,0,12.2,0.6,18.2,1.7c4,0.8,8.8,1.6,11.6-1.3c1.6-1.6,2.1-4.1,2.4-6.3c1.2-8.9,1.2-17.8-0.1-26.7
		c0-0.7-0.3-1.5-0.8-2c-0.4-0.4-1-0.6-1.6-0.7c-5.5-1.3-11.1,1.3-16.5,3.1c-11.2,3.7-23.2,4.2-34.6,7.2c-12,3.2-23.2,9.3-35.6,10.5
		c-5.9,0.6-11.8,0.1-17.7,0.2c-5.5,0.1-10.6,2-16,2.2C503.5,361.2,494.5,363,488,372.1z"/>
	<path class="st5" d="M488,372.1c-5.5,7.9-6.6,18.1-2.9,27.1c0.5,1.2,1.2,2.3,2.1,3.3c1.2,0.9,2.6,1.6,4,1.9
		c12.5,3.5,25.7,2.8,38.5,0.6c4.3-0.7,8.6-1.7,12.7-3.2c6.3-2.4,12-6.3,17.5-10.1l11.8-8.1c3.8-2.6,7.7-5.3,11.9-7.1
		c6.5-2.8,13.7-3.6,20.8-3.6c6.1,0,12.2,0.6,18.2,1.7c4,0.8,8.8,1.6,11.6-1.3c1.6-1.6,2.1-4.1,2.4-6.3c1.2-8.9,1.2-17.8-0.1-26.7
		c0-0.7-0.3-1.5-0.8-2c-0.4-0.4-1-0.6-1.6-0.7c-5.5-1.3-11.1,1.3-16.5,3.1c-11.2,3.7-23.2,4.2-34.6,7.2c-12,3.2-23.2,9.3-35.6,10.5
		c-5.9,0.6-11.8,0.1-17.7,0.2c-5.5,0.1-10.6,2-16,2.2C503.5,361.2,494.5,363,488,372.1z"/>
	<path class="st7" d="M498.1,358.9c-0.3,1.4-0.6,2.9-0.1,4.2c0.5,1.3,1.4,2.5,2.5,3.4c10.7,9.5,25.9,11.5,40.1,13.1
		c3.9,0.4,7.8,0.8,11.6,0.1c3.5-0.6,6.7-2.2,9.9-3.7c6.9-3.3,13.8-6.6,19.7-11.4c5.8-4.7,10.5-10.7,16.5-15.2
		c6.8-5,15.2-7.9,21.3-13.8c4.4-4.3,7.3-9.8,8.4-15.8c0.7-4.1,0.5-8.3,0-12.5c-0.5-4.8-1.3-9.6-3.6-13.8c-2.6-4.9-7-8.6-11.7-11.6
		c-9.9-6.4-21.5-10.4-33.2-10.3c-16.3,0.1-31.3,9.6-43,20.3c-12.4,11.3-22.4,24.9-29.5,40.1C503,340.6,500,349.6,498.1,358.9z"/>
	<path class="st5" d="M498.1,358.9c-0.3,1.4-0.6,2.9-0.1,4.2c0.5,1.3,1.4,2.5,2.5,3.4c10.7,9.5,25.9,11.5,40.1,13.1
		c3.9,0.4,7.8,0.8,11.6,0.1c3.5-0.6,6.7-2.2,9.9-3.7c6.9-3.3,13.8-6.6,19.7-11.4c5.8-4.7,10.5-10.7,16.5-15.2
		c6.8-5,15.2-7.9,21.3-13.8c4.4-4.3,7.3-9.8,8.4-15.8c0.7-4.1,0.5-8.3,0-12.5c-0.5-4.8-1.3-9.6-3.6-13.8c-2.6-4.9-7-8.6-11.7-11.6
		c-9.9-6.4-21.5-10.4-33.2-10.3c-16.3,0.1-31.3,9.6-43,20.3c-12.4,11.3-22.4,24.9-29.5,40.1C503,340.6,500,349.6,498.1,358.9z"/>
	<path class="st6" d="M525.3,189.9c-2.5,1.7-3.3,4.9-3.6,7.8c-1.3,12.6,3.9,25,3.5,37.7c-0.3,10.1-4,19.7-7.7,29
		c-6.3,16-9.6,33.3-10.9,50.4c-1.3,17.1-3.1,35-12.3,49.4c-2.1,3.3-4.5,6.3-6.6,9.6c-2.1,3.4-3.8,7.1-5.7,10.7
		c-5.6,10.6-12.8,20.3-21.3,28.6c-2.5,2.4-5.2,4.8-8.4,6.2c-4.2,1.8-8.9,1.9-13.1,0.1c-4.3-1.8-7.9-5.8-8.1-10.4
		c-0.2-4.2,2.3-7.9,4.8-11.2c8.4-11.3,18.1-21.5,28.8-30.6c1.9-1.6,4-3.3,5-5.7c1.1-2.7,0.7-5.8,0.8-8.7c0.2-4.7,2.1-9.1,3.1-13.7
		c4.4-18.5-3.4-38.7,2.9-56.6c1.4-4,3.5-7.8,4-12c0.4-2.9-0.4-6.2-2.2-8.4c-1.7-2-2.7-4.5-2.7-7.1c0-0.5,0-1.1,0.1-1.6
		c0.8-8.2,1.5-16.5,1.1-24.7c-0.4-8.2-2.1-16.5-5.8-23.8c-2-3.8-4.5-7.3-5.7-11.4c-2-6.6-0.2-13.8,2.8-20.1
		c2.3-4.9,5.3-9.6,9.5-12.9c7.9-6.2,19.7-7,28.3-1.8c6.4,3.8,10.7,10.2,14.2,16.7C522.7,180.4,525.3,184.4,525.3,189.9z"/>
	<ellipse class="st6" cx="490.6" cy="194.7" rx="23.7" ry="37.2"/>
	<path class="st8" d="M430.1,389.3c1.4,2,1.9,4.5,1.3,6.9c2.2,1.6,5,2.4,7.7,2.2c2.7-0.1,5.4-0.8,7.9-1.8c2.2-0.8,4.3-1.9,6.2-3.2
		c3.3-2.4,5.6-5.9,7.5-9.5c1.1-2,2-4.5,0.6-6.3c-0.5-0.6-1.2-1.1-1.9-1.5c-4.8-2.8-9.9-5.1-15-7.2c-1.4-0.7-3-1-4.5-1
		c-1.9,0.1-3.7,1.2-5.2,2.3c-3.4,2.7-6.2,6.1-8.1,10c-0.6,1.3-2.4,4.2-1.5,5.5c0.4,0.6,1.9,0.8,2.5,1.2
		C428.6,387.6,429.4,388.4,430.1,389.3z"/>
	<path class="st9" d="M430.1,389.3c1.4,2,1.9,4.5,1.3,6.9c2.2,1.6,5,2.4,7.7,2.2c2.7-0.1,5.4-0.8,7.9-1.8c2.2-0.8,4.3-1.9,6.2-3.2
		c3.3-2.4,5.6-5.9,7.5-9.5c1.1-2,2-4.5,0.6-6.3c-0.5-0.6-1.2-1.1-1.9-1.5c-4.8-2.8-9.9-5.1-15-7.2c-1.4-0.7-3-1-4.5-1
		c-1.9,0.1-3.7,1.2-5.2,2.3c-3.4,2.7-6.2,6.1-8.1,10c-0.6,1.3-2.4,4.2-1.5,5.5c0.4,0.6,1.9,0.8,2.5,1.2
		C428.6,387.6,429.4,388.4,430.1,389.3z"/>
	<path class="st7" d="M456.1,374.8c10.6,2,20.4,7.1,30.8,9.9c4.2,1.1,8.6,1.9,12.6,3.5c4,1.6,7.8,4.5,9.6,8.5c0.7,1.9,1.2,3.9,1.4,6
		c0.5,2.9,0.8,6.1-0.9,8.5c-1.8,2.5-5.2,3.1-8.3,3.4c-11,1.3-22,2.6-33.1,3.6c-2.2,0.1-4.5,0.4-6.7,0.8c-1.8,0.4-3.6,0.9-5.4,1.3
		c-2.3,0.5-4.7,0.9-7.1,1.3c-6.1,0.9-12.2,1.7-18.3,1.1c-2.8-0.3-5.9-1.2-7.1-3.7c-0.5-1.3-0.7-2.7-0.6-4.1c0-3.7-0.1-7.4,0-11.2
		c0.1-3.8,0.2-7.8,2-11.2c0.4-1,1.2-1.9,2.3-2.4c0.6-0.2,1.3-0.2,1.9-0.2c3.3,0.1,6.6,0.3,9.5,1.7c2.3,1.1,4.2,3.1,6.6,4.1
		c4.5,2,9.8,0.6,14.4,2.4c1.1-3.2,0.8-6.5,0-9.9c-0.8-3.3-1.9-6.6-2.2-10c0-0.7-0.2-1.5-0.4-2.2
		C456.7,375.4,456.8,374.7,456.1,374.8z"/>
	<path class="st5" d="M456.1,374.8c10.6,2,20.4,7.1,30.8,9.9c4.2,1.1,8.6,1.9,12.6,3.5c4,1.6,7.8,4.5,9.6,8.5c0.7,1.9,1.2,3.9,1.4,6
		c0.5,2.9,0.8,6.1-0.9,8.5c-1.8,2.5-5.2,3.1-8.3,3.4c-11,1.3-22,2.6-33.1,3.6c-2.2,0.1-4.5,0.4-6.7,0.8c-1.8,0.4-3.6,0.9-5.4,1.3
		c-2.3,0.5-4.7,0.9-7.1,1.3c-6.1,0.9-12.2,1.7-18.3,1.1c-2.8-0.3-5.9-1.2-7.1-3.7c-0.5-1.3-0.7-2.7-0.6-4.1c0-3.7-0.1-7.4,0-11.2
		c0.1-3.8,0.2-7.8,2-11.2c0.4-1,1.2-1.9,2.3-2.4c0.6-0.2,1.3-0.2,1.9-0.2c3.3,0.1,6.6,0.3,9.5,1.7c2.3,1.1,4.2,3.1,6.6,4.1
		c4.5,2,9.8,0.6,14.4,2.4c1.1-3.2,0.8-6.5,0-9.9c-0.8-3.3-1.9-6.6-2.2-10c0-0.7-0.2-1.5-0.4-2.2
		C456.7,375.4,456.8,374.7,456.1,374.8z"/>
	<path class="st8" d="M101.7,267.9c-2.1-0.7-4.2,1.2-5.4,3.1c-5,7.8-4.6,18.3-0.6,26.6c0.9,2.1,2.3,4.1,3.9,5.7
		c2.2,2.1,4.9,3.5,7.5,5c7.2,4.2,13.3,10,18,16.9c3.1,4.5,5.5,9.5,9,13.7c8.6,10.4,22.6,15,30.9,25.6c2,2.5,3.7,5.4,6.3,7.2
		c4.9,3.4,11.6,2.1,14.9-2.8c1.1-1.6,1.8-3.6,1.9-5.6c3.2-4.7,5.9-10,8.4-15.2c3.7-7.9,6.9-16,9.4-24.4c0.9-2.9,1.8-5.9,3-8.8
		c2.9-7.1,7.6-13.5,9.3-20.9c0.7-3,0.8-6.1,1.8-9c0.9-2.6,2.3-5,4.3-6.9c6.5-6.3,10-15.6,15.2-23c2.1-3,4.3-6,5.7-9.4
		c1.4-3.4,1.9-7.3,0.6-10.8c-1.3-3.4-4.7-6.2-8.4-6c-1.6,0.2-3.2,0.7-4.7,1.4c-5.1,2.4-9.7,5.6-13.8,9.5c-1.8,1.7-3.4,3.5-5,5.4
		c-7.7,9.2-13.7,20.3-14.2,32.2c-0.2,4.1,0.2,8.6-2.4,11.8c-7.2,8.7-9.5,20.8-15.6,30.3c-2.8,4.4-6.1,8.9-10.9,10.9
		c-0.7,0.3-1.5,0.5-2.3,0.5c-1.9-0.2-3-2.3-3.9-4c-3.2-6.9-6.9-13.5-11-19.9c-1.6-2.5-3.5-5.1-6.1-6.6c-1.8-1-3.9-1.4-5.6-2.6
		c-2.4-1.6-3.6-4.4-4.8-7c-4-8.4-9-16.2-14.9-23.3c-2.7-3.2-6.3-6.6-10.5-6.1C107.9,262.1,105.5,266.3,101.7,267.9z"/>
	<path class="st9" d="M101.7,267.9c-2.1-0.7-4.2,1.2-5.4,3.1c-5,7.8-4.6,18.3-0.6,26.6c0.9,2.1,2.3,4.1,3.9,5.7
		c2.2,2.1,4.9,3.5,7.5,5c7.2,4.2,13.3,10,18,16.9c3.1,4.5,5.5,9.5,9,13.7c8.6,10.4,22.6,15,30.9,25.6c2,2.5,3.7,5.4,6.3,7.2
		c4.9,3.4,11.6,2.1,14.9-2.8c1.1-1.6,1.8-3.6,1.9-5.6c3.2-4.7,5.9-10,8.4-15.2c3.7-7.9,6.9-16,9.4-24.4c0.9-2.9,1.8-5.9,3-8.8
		c2.9-7.1,7.6-13.5,9.3-20.9c0.7-3,0.8-6.1,1.8-9c0.9-2.6,2.3-5,4.3-6.9c6.5-6.3,10-15.6,15.2-23c2.1-3,4.3-6,5.7-9.4
		c1.4-3.4,1.9-7.3,0.6-10.8c-1.3-3.4-4.7-6.2-8.4-6c-1.6,0.2-3.2,0.7-4.7,1.4c-5.1,2.4-9.7,5.6-13.8,9.5c-1.8,1.7-3.4,3.5-5,5.4
		c-7.7,9.2-13.7,20.3-14.2,32.2c-0.2,4.1,0.2,8.6-2.4,11.8c-7.2,8.7-9.5,20.8-15.6,30.3c-2.8,4.4-6.1,8.9-10.9,10.9
		c-0.7,0.3-1.5,0.5-2.3,0.5c-1.9-0.2-3-2.3-3.9-4c-3.2-6.9-6.9-13.5-11-19.9c-1.6-2.5-3.5-5.1-6.1-6.6c-1.8-1-3.9-1.4-5.6-2.6
		c-2.4-1.6-3.6-4.4-4.8-7c-4-8.4-9-16.2-14.9-23.3c-2.7-3.2-6.3-6.6-10.5-6.1C107.9,262.1,105.5,266.3,101.7,267.9z"/>
	<ellipse class="st8" cx="101.3" cy="223" rx="16.5" ry="14.9"/>
	<circle class="st8" cx="116.8" cy="220" r="5.9"/>
	<ellipse class="st8" cx="103.4" cy="216.9" rx="22.8" ry="6.1"/>
	<path class="st8" d="M83.1,215.6c0.6,1.8,1,3.5,1.3,5.4c-1.9-1.9-3.6-4.1-4.9-6.5c-0.4-0.4-0.7-0.9-0.9-1.4
		c-2-4.7-3.4-9.5-3.4-14.7c0-17.8,14.4-32.2,32.2-32.2c17.8,0,32.2,14.4,32.2,32.2c0,14.5-9.7,27.3-23.7,31.1c1-3.2,2.3-6.3,2.5-9.6
		c0.1-1.1-0.1-2.2-0.5-3.2c-0.6-1.1-1.4-2-2.4-2.7c-3.6-2.7-8.2-3.9-12.7-3.9c-4.5,0.2-9,1.3-13.1,3.1c-1.3,0.6-2.9,1.3-4.4,1.8
		C84.6,215.4,83.9,215.5,83.1,215.6z"/>
	<path class="st8" d="M164.8,286.1c-2.1,3.3-6.5,4.3-10.3,4c-7.2-0.5-13.8-4.4-19.4-9s-10.5-10-16.2-14.5
		c-10.6-8.3-22.6-11.7-36.1-11.9c2.6-2.2,1.7-7.4,1.9-10.8c0.5-6.9,0.9-14,0-20.8c-0.1-0.7-0.2-1.5-0.3-2.2c0.2,0.2,0.4,0.4,0.7,0.7
		c8.2,7.8,19.9,10.8,30.8,7.8c-0.3,1.1-0.6,2.2-0.8,3.3c-0.8,4.8,0.5,9.8,1.8,14.5c0.8,2.8,1.7,5.9,4,7.7c1.5,1.2,3.4,1.6,5.2,2.2
		c3.6,1.2,6.9,3.1,9.7,5.6c2,1.7,3.8,3.8,5.9,5.3c2,1.3,4.2,2.4,6.4,3.3c5.4,2.5,10.6,5.6,15.3,9.3c0.9,0.6,1.6,1.4,2,2.4
		C165.6,284.1,165.4,285.2,164.8,286.1z"/>
	<path class="st8" d="M201.8,346.8c-0.4,2.9-3.1,5.1-4.9,7.3c-5,6.1-10.1,12.2-15.7,17.7c-6,5.9-12.6,11.2-19.2,16.5l-8.6,6.9
		c-1.1,1-2.3,1.7-3.6,2.2c-1.6,0.4-3.2,0.2-4.7-0.6c-0.6-0.3-1.1-0.6-1.6-1c-1.8-1.4-3.1-3.3-4.4-5.1c-5.8-8.5-11.6-16.9-17.4-25.4
		c-2.1-3-4.1-6.1-6.1-9.2c-0.3-0.4-0.5-0.8-0.8-1.2c-1.8-2.8-3.7-5.6-5.6-8.4l-10.3-4.8l-1.4-0.6l-1.6-0.7c-2.1-1-4.3-2-6.1-3.6
		c-1.7-1.6-3.1-3.5-4.2-5.5c-2.1-3.8-3.9-7.8-5.4-11.8c-4.4-11.1-8.3-22.6-8.4-34.6c-0.1-10.5,3-21.4,9.9-29.1c1-1.1,2-2.1,3.1-3
		c1.3-1.1,2.7-1.8,4.5-1.5c1.7,0.2,3.4,0.5,5,0.8c4.6,0.8,9.1,1.7,13.6,2.9c4.1,1,8.2,2.2,12.3,1.4c0.7-0.1,1.3-0.3,2-0.5
		c0.5-0.1,1.1-0.3,1.6-0.4c0.3-0.1,0.6-0.1,0.9-0.1c2.2-0.1,4.3,0.8,6.3,1.6c3.8,1.6,7.8,3.4,10.7,6.4c1.7,1.8,3,4.1,4.8,5.8
		c2.4,2.3,5.7,3.5,8.6,5.1c0.6,0.3,1.1,0.7,1.6,1c1.2,0.9,2.2,1.9,3.1,3l0,0c3.8,4.5,6.1,10.5,10.3,15c3.4,3.6,6.3,7.5,8.7,11.8
		c0.4,0.7,0.8,1.4,1.2,2.2c0.6,1.2,1.2,2.4,1.7,3.7c0.1,0.3,0.3,0.6,0.4,1c0.8,1.9,1.5,3.8,2.1,5.7c1.4,4.7,2.4,9.8,5.5,13.6
		c2.2,2.6,5.3,4.4,7.8,6.7c1.7,1.4,3,3.2,3.8,5.2C201.8,344.3,202,345.6,201.8,346.8z"/>
	<path class="st5" d="M184.4,309.2c-0.7,0.9-1.5,1.8-2.2,2.7c-0.1,0.2-0.3,0.3-0.4,0.5c-6.6,7.7-14.2,14.6-22.5,20.4
		c-5.2,3.6-10.6,6.8-16,10l-10,5.9c-4.2,2.5-8.4,4.9-13.1,6.4c-1.5,0.4-3.1,0.8-4.6,1.2c-0.3-0.4-0.5-0.8-0.8-1.2
		c-1.8-2.8-3.7-5.6-5.6-8.4l-10.3-4.8c5.7-3.6,10.8-8.1,15-13.4c6.3-7.7,11.1-16.5,15.8-25.3c0.8-1.4,1.5-2.9,1.9-4.5
		c0.6-2.6,0.1-5.4-0.7-8c-2.8-9.3-8.8-17.3-16.8-22.7c-5.6-3.8-12.1-6.1-18.4-8.3c-4.5-1.5-9.3-3-13.9-2.4c1-1.1,2-2,3.1-3
		c1.3-1.1,2.7-1.8,4.5-1.5s3.4,0.5,5,0.8c3.4,1,6.7,2.3,9.9,3.5c2.2,0.8,4.3,1.7,6.3,2.8c2,1.2,3.9,2.6,5.8,4
		c5.4,4.1,11.2,7.9,17.1,11.2c6.9,3.8,14.1,6.9,21.4,10c0.8,0.4,1.6,0.6,2.5,0.6c0.9,0,1.7-0.6,1.9-1.5c0-0.5-0.1-0.9-0.3-1.3
		c-1.3-2.6-4.1-3.9-6.7-5.1c-10.7-5.2-20.1-12.6-29.4-20c-0.2-0.2-0.4-0.4-0.6-0.6l1.6-0.4c10.4,7.5,21.4,14.1,32.9,19.8
		c0.6,0.3,1.2,0.6,1.8,0.9c0.4,0.2,0.9,0.4,1.3,0.6l0,0c3.1,1.5,6.2,3.1,8.5,5.6c1.5,1.7,2.8,3.7,3.8,5.7c2.6,4.8,4.8,9.9,6.5,15
		c0,0.1,0.1,0.2,0.1,0.3c0.2,0.8,0.6,1.5,1.2,2.2c0.2,0.2,0.4,0.4,0.7,0.5C181.8,308.4,183.4,308.3,184.4,309.2z"/>
	<path class="st2" d="M123.9,255.5c10.4,7.5,21.4,14.1,32.9,19.8l1.8,0.9c3.5,1.7,7.2,3.4,9.8,6.3c1.5,1.7,2.8,3.7,3.8,5.7
		c2.6,4.8,4.8,9.9,6.5,15c0.4,1.1,0.9,2.4,1.9,3s2.8,0.5,3.7,1.4c-0.9,1.1-1.7,2.1-2.6,3.1c-6.6,7.7-14.2,14.6-22.5,20.4
		c-5.2,3.6-10.6,6.8-16,10l-10,5.9c-4.2,2.5-8.4,4.9-13.1,6.4c-1.7,0.5-3.6,0.9-5.4,1.4c-1.8-2.8-3.7-5.6-5.6-8.4l-11.7-5.5
		c6.3-3.5,11.7-8.6,16.3-14.2c6.3-7.7,11.1-16.5,15.8-25.3c0.8-1.4,1.5-2.9,1.9-4.5c0.6-2.6,0.1-5.4-0.7-8
		c-2.8-9.2-8.7-17.2-16.8-22.6c-5.6-3.8-12.1-6-18.4-8.3c-4.5-1.5-9.3-3-13.9-2.4c1-1.1,2-2.1,3.1-3c1.3-1.1,2.7-1.8,4.5-1.5
		s3.4,0.5,5,0.8c3.4,1,6.7,2.3,9.9,3.5c2.2,0.8,4.3,1.7,6.3,2.8c2,1.2,3.9,2.6,5.8,4c5.4,4.1,11.2,7.9,17.2,11.2
		c6.9,3.8,14.1,6.9,21.4,10c0.8,0.4,1.6,0.6,2.5,0.6c0.9,0,1.7-0.6,1.9-1.5c0-0.5-0.1-0.9-0.3-1.3c-1.3-2.6-4.1-3.9-6.7-5.1
		c-10.7-5.2-20.1-12.6-29.4-20.1c-0.2-0.2-0.4-0.4-0.6-0.6L123.9,255.5z"/>
	<circle class="st2" cx="211.7" cy="250.2" r="39.4"/>
	<path class="st7" d="M250.8,406.8c7.4-2.3,14.8-4.7,21.3-8.9c4.5-3,8.5-6.8,12.6-10.3c3.1-2.7,6.3-5.2,9.2-8.1
		c2.6-2.7,4.9-5.6,7.1-8.7c5-6.6,10.2-13,15.6-19.4c2.9-3.4,5.9-6.8,9.9-8.7c7.1-3.4,15.5-1.1,23.1,1.2c11.3,3.4,22.5,7.1,33.1,12.4
		c6,3,11.8,6.3,17.9,9.2c11.1,5.2,22.9,8.8,34.6,12.4c0.9,0.4,1.8,0.4,2.8,0.2c0.7-0.3,1.2-0.8,1.6-1.4c1.5-1.9,2.8-4,3.6-6.3
		c0.3-0.5,0.2-1.2-0.3-1.6c-5-4.9-11.5-7.9-17.6-11.4c-4.8-2.8-9.5-5.9-14.1-9c-4.4-3-8.9-6-12.7-9.8c-1.9-1.9-3.6-4.1-5.6-5.8
		c-1.8-1.5-3.7-2.8-5.7-4c-8.9-5.7-17.5-12-25.5-18.9c-6.1-5.2-11.2-12-17.7-16.7c-4-2.9-8.7-5.5-13.6-5c-6,0.6-10.4,5.6-14.6,10
		c-14,14.6-31.7,25-47.3,37.8c-12.8,10.4-24.7,22.8-40.2,28.3c0.7,2.3,0.9,4.6,1.6,6.9c0.9,3.2,2,6.3,3.3,9.3
		c1.3,2.7,2.7,5.3,4.3,7.8l6.2,10.2c1.3,2.1,2.6,4.2,4.4,5.8C249,405.2,250.8,405.5,250.8,406.8z"/>
	<path class="st5" d="M250.8,406.8c7.4-2.3,14.8-4.7,21.3-8.9c4.5-3,8.5-6.8,12.6-10.3c3.1-2.7,6.3-5.2,9.2-8.1
		c2.6-2.7,4.9-5.6,7.1-8.7c5-6.6,10.2-13,15.6-19.4c2.9-3.4,5.9-6.8,9.9-8.7c7.1-3.4,15.5-1.1,23.1,1.2c11.3,3.4,22.5,7.1,33.1,12.4
		c6,3,11.8,6.3,17.9,9.2c11.1,5.2,22.9,8.8,34.6,12.4c0.9,0.4,1.8,0.4,2.8,0.2c0.7-0.3,1.2-0.8,1.6-1.4c1.5-1.9,2.8-4,3.6-6.3
		c0.3-0.5,0.2-1.2-0.3-1.6c-5-4.9-11.5-7.9-17.6-11.4c-4.8-2.8-9.5-5.9-14.1-9c-4.4-3-8.9-6-12.7-9.8c-1.9-1.9-3.6-4.1-5.6-5.8
		c-1.8-1.5-3.7-2.8-5.7-4c-8.9-5.7-17.5-12-25.5-18.9c-6.1-5.2-11.2-12-17.7-16.7c-4-2.9-8.7-5.5-13.6-5c-6,0.6-10.4,5.6-14.6,10
		c-14,14.6-31.7,25-47.3,37.8c-12.8,10.4-24.7,22.8-40.2,28.3c0.7,2.3,0.9,4.6,1.6,6.9c0.9,3.2,2,6.3,3.3,9.3
		c1.3,2.7,2.7,5.3,4.3,7.8l6.2,10.2c1.3,2.1,2.6,4.2,4.4,5.8C249,405.2,250.8,405.5,250.8,406.8z"/>
	<path class="st8" d="M422.5,394.9c1.4,2,1.9,4.5,1.3,6.9c2.2,1.6,4.9,2.4,7.7,2.3c2.7-0.2,5.4-0.8,7.9-1.8c2.2-0.8,4.3-1.9,6.2-3.2
		c3.3-2.4,5.6-5.9,7.6-9.5c1.1-2,2-4.5,0.6-6.3c-0.5-0.6-1.2-1.1-1.9-1.5c-4.8-2.8-9.8-5.1-15-7.2c-1.4-0.7-3-1-4.5-1
		c-1.9,0.1-3.7,1.2-5.2,2.3c-3.4,2.7-6.2,6.1-8.1,10c-0.6,1.3-2.4,4.2-1.5,5.5c0.4,0.6,1.9,0.8,2.5,1.2
		C420.9,393.2,421.8,394,422.5,394.9z"/>
	<path class="st7" d="M451.2,380.1c10.6,2,20.4,7.1,30.8,9.9c4.2,1.1,8.6,1.9,12.6,3.5c4,1.6,7.8,4.5,9.6,8.5c0.7,1.9,1.2,3.9,1.4,6
		c0.5,2.9,0.8,6.1-0.9,8.5c-1.8,2.5-5.2,3.1-8.3,3.4c-11,1.3-22,2.6-33.1,3.6c-2.2,0.1-4.5,0.4-6.7,0.8c-1.8,0.4-3.6,0.9-5.4,1.3
		c-2.3,0.6-4.7,0.9-7.1,1.3c-6.1,0.9-12.2,1.7-18.3,1.1c-2.8-0.3-5.9-1.2-7.1-3.7c-0.5-1.3-0.7-2.7-0.6-4.1c0-3.7-0.1-7.4,0-11.2
		c0.1-3.8,0.2-7.8,2-11.2c0.4-1,1.2-1.9,2.3-2.4c0.6-0.2,1.3-0.2,1.9-0.2c3.3,0.1,6.6,0.3,9.5,1.7c2.3,1.1,4-2.3,6.3-1.3
		c4.5,2,1.4-4,6-2.2c1.1-3.2,5.5-1.3,4.8-4.6s2-1.9,1.7-5.3c0-0.7-0.2-1.5-0.4-2.2C451.8,380.6,451.9,379.9,451.2,380.1z"/>
	<path class="st5" d="M133.4,179.5c-2.4,1.4-5.4,1.2-8.3,1.1c-2.5-0.1-5,0.1-7.4,0.4c-0.9,0.1-1.8,0.3-2.6,0.7
		c-1,0.7-1.9,1.6-2.4,2.8c-1,1.9-1.7,4-2,6.2c-0.4,2.4-0.3,5.1-1.8,7c-2.1,2.6-5.2,2.2-8.2,2.7c-2.5,0.5-4.9,1.4-7.2,2.7
		c-4.4,2.7-7.4,7.1-8.3,12.2c-0.1,0.6-0.1,1.1-0.2,1.7c-0.1,1.6,0.1,3.3-0.1,4.9c-0.1,0.4-0.1,0.8-0.2,1.2c0,0.1-0.1,0.2-0.1,0.3
		c-0.1-0.7-0.2-1.5-0.3-2.2c-1.9-1.9-3.6-4.1-4.9-6.5c-0.4-0.4-0.7-0.9-0.9-1.4c-2-4.7-3.4-9.5-3.4-14.7c0-17.8,14.4-32.2,32.2-32.2
		C117.7,166.3,127.3,171.2,133.4,179.5L133.4,179.5z"/>
	<path class="st7" d="M135.5,167.1c-1.6-3.7-5-6.4-8.5-8.5c-6.9-4.1-14.8-6.7-22.9-6.8c-4.1,0-8.1,0.4-12.1,1.3
		c-3.9,0.7-7.7,1.8-11.3,3.2c-6,2.5-11.4,6.5-15.6,11.5c-0.9,0.1-1.7,0.2-2.6,0.4c-3.4,0.9-6.5,2.7-9.3,4.9c-2.3,1.7-4.4,3.7-6.2,6
		c-2.1,2.9-3.5,6.3-4.2,9.8c-2.4,11,0.6,22.4,2.7,33.4c2.2,11.1,3.4,23.1-1.9,33.1c-2,3.8-4.8,7-7,10.6s-3.5,8.1-2.3,12.1
		c1.4,4.9,6.3,8.1,8.8,12.5c3.2,6,2,13.3-2.9,18c4,1.4,8.4-0.1,12-2.3c2.8-1.7,5.3-4,7.1-6.7c4.5-7.3,2.5-16.7,4.1-25.2
		c2.1-11,10.5-20.9,9.4-32.1c-0.8-7.5-5.7-13.8-9.7-20.2c-2.6-4.3-4.8-8.8-6.5-13.6c-1.3-3.4-2.3-7-1.6-10.5c0.2-1.1,0.5-2.1,1-3.1
		c0,0.1,0,0.2,0,0.4c0.1,3.2,0.8,6.4,2.1,9.4c4.7,9.5,17.1,13,22.3,22.3c1.5-1.7,3.1-3.4,3.8-5.6c0.6-1.9,0.3-4,0.4-6
		c0.2-5.6,3.6-11,8.5-13.9c2.2-1.3,4.6-2.2,7.2-2.7c2.9-0.5,6.1-0.1,8.2-2.7c1.5-1.9,1.5-4.6,1.8-7c0.3-2.2,1-4.2,2-6.2
		c0.5-1.1,1.3-2.1,2.4-2.8c0.8-0.4,1.7-0.6,2.6-0.7c2.5-0.3,4.9-0.4,7.4-0.4c2.9,0.1,5.9,0.3,8.4-1.1
		C136.3,175.9,137.1,170.9,135.5,167.1z"/>
	<path class="st5" d="M485.8,132.5c0,0.1,0,0.2,0,0.3c-1.1,9.8-10.5,9.3-12.7,24.7c-0.9,6-10,7.2-16.1,8.8c-2.6-0.9-5.2-1.6-7.8-2.6
		c-6-2.2-1.8-5.4,0.8-9c8.4-11.5,10-27.2,19.6-37.8c3.5,6.7,9.1,12,15.8,15.3C485.5,132.4,485.7,132.5,485.8,132.5z"/>
	<path class="st6" d="M486,126.9c0,1.5-0.1,3-0.3,4.4c-2.4,21.6-21.9,37.1-43.5,34.7c-21.6-2.4-37.1-21.9-34.7-43.5
		c2.4-21.6,21.9-37.1,43.5-34.7C471,90.1,486,106.9,486,126.9z"/>
	<path class="st2" d="M501.9,131.3c4.5-0.2,8.8,1.5,13,3.3c16.5,6.9,33.2,13.8,47.9,24c7.3,5,14,10.7,20.7,16.4l27.6,23.5
		c5.3,4.5,10.7,9.1,14.9,14.6c2.5,3.4,4.8,7,6.9,10.7l4.1,7c1.7,2.7,3.1,5.6,4.4,8.6c2.1,5.4,2.9,11.7,7.1,15.6
		c2.9,2.7,6.8,3.7,10.3,5.5c3.5,1.7,6.9,4.8,6.8,8.7c0,2.5-1.5,4.8-2.7,7c-2.4,4.7-3.4,10-2.9,15.3L615,256.8
		c-1.8-1.4-3.7-2.8-5.9-3.3c-2.9-0.6-5.8,0.5-8.6,1.4c-21.8,7.7-45.1,10.8-68.2,9c-10.2-0.8-20.6-2.6-29.5-7.6
		c-4.9-2.8-9.3-6.4-13.7-10c-5.4-4.5-10.9-9.1-15.7-14.3c-1.3-1.4-2.6-2.9-2.9-4.8c-0.2-1.3,0.1-2.7,0.2-4.1
		c0.8-9.5-7.1-17.4-9.5-26.7c-2.2-8.9,0.8-18.2,7.7-24.2c5.4,4.7,5.2,13,4.6,20.1c-0.8,9.6,1.8,14.4,1,24c3.4-0.1,2.8,2.1,4.2-1
		c1.5-3.1,1.7-6.6,2-10c1-12.3,2.2-24.6,3.7-36.9c0.7-6.1,1.5-12.3,2.3-18.4c0.5-3.7,0.4-7.2,2.4-10.5
		C491.8,135,496.5,131.6,501.9,131.3z"/>
	<path class="st6" d="M507.8,142.5c2.9-0.9,6-0.1,8.8,0.8c5.1,1.5,10.2,3.1,15.2,4.8c4.1,1.4,8.3,2.8,11.8,5.4
		c3.6,2.7,6.3,6.4,8.9,10.1c1.9,2.6,3.8,5.3,5,8.3c1.6,3.9,2.1,8.2,2.5,12.5c0.3,1.8,0.3,3.7-0.1,5.5c-0.6,2-1.6,3.8-3,5.3
		c-2.2,2.6-4.7,4.8-7.4,6.7c-7.4,5-16.3,7-25,8.9c-7.8,1.6-15.6,3.1-23.5,3.6c-3.1,0.2-6.7,0-8.5-2.4c-0.5-0.8-1-1.6-1.3-2.5
		c-4.6-12.2-6.6-25.3-5.9-38.4c0.1-2.4,0.4-4.7,1.1-7c0.7-1.8,1.5-3.6,2.4-5.3c2.4-4.5,4.9-9.1,9-12.2c4.3-3.1,9.8-4.1,15.1-3.9"/>
	<path class="st5" d="M536.7,189c-2.5,1.7-3.3,4.9-3.6,7.8c-1.3,12.6,3.9,25,3.5,37.7c-0.3,10-4,19.7-7.7,29
		c-6.3,16-9.6,33.3-10.9,50.4s-3.1,35-12.3,49.4c-2.1,3.3-4.5,6.3-6.6,9.6c-2.1,3.4-3.8,7.1-5.7,10.7c-5.6,10.6-12.8,20.3-21.3,28.6
		c-2.5,2.4-5.2,4.8-8.4,6.2c-4.2,1.8-8.9,1.9-13.1,0.1c-4.3-1.8-7.9-5.8-8.1-10.4c-0.2-4.2,2.3-7.9,4.8-11.2
		c8.4-11.3,18.1-21.5,28.8-30.6c1.9-1.6,4-3.3,5-5.7c1.1-2.7,0.7-5.8,0.8-8.7c0.2-4.7,2.1-9.1,3.1-13.7c4.4-18.5-3.4-38.7,2.9-56.6
		c1.4-4,3.5-7.8,4-12c0.4-2.9-0.4-6.2-2.2-8.4c-1.7-2-2.7-4.5-2.7-7.1c0-0.5,0-1.1,0.1-1.6c0.8-8.2,1.5-16.5,1.1-24.7
		c-0.4-8.2-2.1-16.5-5.8-23.8c-2-3.8-4.5-7.3-5.7-11.4c-2-6.6-0.2-13.8,2.8-20.1c2.3-4.9,5.3-9.6,9.5-12.9c7.9-6.2,19.7-7,28.3-1.8
		c6.4,3.8,10.7,10.2,14.2,16.7C534.1,179.5,536.7,183.6,536.7,189z"/>
	<path class="st6" d="M538.1,189c-2.5,1.7-3.3,4.9-3.6,7.8c-1.3,12.6,3.9,25,3.5,37.7c-0.3,10-4,19.7-7.7,29
		c-6.3,16-9.6,33.3-10.9,50.4c-1.3,17.1-3.1,35-12.3,49.4c-2.1,3.3-4.5,6.3-6.6,9.6c-2.1,3.4-3.8,7.1-5.7,10.7
		c-5.6,10.6-12.8,20.3-21.3,28.6c-2.5,2.4-5.2,4.8-8.4,6.2c-4.2,1.8-8.9,1.9-13.1,0.1c-4.3-1.8-7.9-5.8-8.1-10.4
		c-0.2-4.2,2.3-7.9,4.8-11.2c8.4-11.3,18.1-21.5,28.8-30.6c1.9-1.6,4-3.3,5-5.7c1.1-2.7,0.7-5.8,0.8-8.7c0.2-4.7,2.1-9.1,3.1-13.7
		c4.4-18.5-3.4-38.7,2.9-56.6c1.4-4,3.5-7.8,4-12c0.3-2.9-0.4-6.2-2.2-8.4c-1.8-2-2.7-4.5-2.8-7.1c0-0.5,0-1.1,0.1-1.6
		c0.8-8.2,1.5-16.5,1.1-24.7c-0.4-8.2-2.1-16.5-5.8-23.8c-2-3.8-4.5-7.3-5.7-11.4c-2-6.6-0.2-13.8,2.8-20.1
		c2.3-4.9,5.3-9.6,9.5-12.9c7.9-6.2,19.7-7,28.3-1.8c6.4,3.8,10.7,10.2,14.2,16.7C535.5,179.5,538.1,183.6,538.1,189z"/>
	<path class="st7" d="M601.5,352.7l-0.5,0.2"/>
	<path class="st7" d="M491.7,380.7c0-0.2,0.1-0.4,0.1-0.6"/>
	<path class="st2" d="M626.1,337.7c1.8-2.1,4.6-3,7.3-3.7c4.3-1.1,8.7-1.8,13.2-2.1c2.8-0.3,5.5-0.1,8.3,0.5
		c2.7,0.7,5.2,2.3,6.6,4.7c1.2,2.1,1.4,4.7,1.5,7.1c0.3,5,0.6,10-0.2,15c-0.5,3.1-1.5,6.2-2.2,9.3c-2.1,10.2-0.3,20.7-0.5,31.2
		c0,2.2-0.2,4.5-1.1,6.5c-1,2.1-2.8,3.8-4.5,5.4c-1.9,1.7-3.9,3.5-6.2,4.6c-3.4,1.7-7.4,2-11.2,2.1c-2.3,0.1-4.7,0.1-6.9-0.8
		c-2.2-0.9-4.1-2.8-4.2-5.1c-0.3-4,4.2-6.6,5.5-10.3c1-3-0.2-6.3-1.8-9c-2.6-4.3-6.3-7.9-10.7-10.4c-1.6-0.9-3.4-1.7-4.8-2.9
		s-2.3-3.2-1.7-5c0.7-2.1,3.2-3.1,5.4-3.3c2.2-0.2,4.6-0.1,6.6-1c1.8-0.9,3-2.6,3.9-4.4c1.8-3.8,2.1-8.2,0.7-12.3
		c-0.5-1.5-1.3-3-2.3-4.2c-0.9-1.2-2.9-2.2-3.5-3.5C621.9,343.4,624.5,339.5,626.1,337.7z"/>
	<path class="st5" d="M589.7,246.8c-10.4-9.2-24.8-11.6-38.3-14.4c-7-1.4-13.9-3-20.8-4.8c-4.5-1.2-9.1-2.4-13.8-2.7
		c-4.7-0.3-9.5,0.3-13.6,2.7s-7.1,6.7-7.1,11.4c0,1.9,0.4,3.7,0.3,5.6c-0.2,3-1.9,5.6-3,8.4c-1.7,4.4-2,9.3-0.8,13.9
		c2,7.3,7.8,13.8,7.3,21.3c-0.8,12.6-0.6,25.9,2,38.2c2.6,12.4,5.8,24.8,5.8,37.5c-0.1,12.7-3.9,26-13.4,34.4
		c6.4,6,14.3,10.3,22.8,12.4c7.3,1.8,16,1.6,21.2-3.8c1.2-1.3,2.2-2.9,1.9-4.7c-0.3-1.1-0.7-2.1-1.3-3c-3.6-6.4-3.1-14.3-1.6-21.4
		c1.6-7.1,4.3-14.1,5-21.4c0.5-5.3-0.1-10.7,0.9-15.9c0.8-4,2.5-7.8,3.5-11.7c3-11.7-0.2-24-3.3-35.6c2.6,6,7.5,10.7,12.6,14.7
		c7.7,6.2,17.1,11.6,26.9,10.5c8.7-1,16.2-7.1,21.3-14.2c0-8.2,2.9-16,2.4-24.3c-0.3-3.6-1-7.2-1.9-10.7c-1-3.9-1.9-7.9-3.8-11.5
		C598.5,253.3,593.7,250.3,589.7,246.8z"/>
	<path class="st6" d="M591.8,246.8c-10.4-9.2-24.8-11.6-38.3-14.4c-7-1.4-13.9-3-20.8-4.8c-4.5-1.2-9.1-2.4-13.8-2.7
		c-4.7-0.3-9.5,0.3-13.6,2.7c-4,2.4-7.1,6.7-7.1,11.4c0,1.9,0.4,3.7,0.3,5.6c-0.2,3-1.9,5.6-3,8.4c-1.7,4.4-2,9.3-0.8,13.9
		c2,7.3,7.8,13.8,7.3,21.3c-0.8,12.6-0.6,25.9,2,38.2c2.6,12.4,5.8,24.8,5.8,37.5c-0.1,12.7-3.9,26-13.4,34.4
		c6.4,6,14.3,10.3,22.8,12.4c7.3,1.8,16,1.6,21.2-3.8c1.2-1.3,2.2-2.9,1.9-4.7c-0.3-1.1-0.7-2.1-1.3-3c-3.6-6.4-3.1-14.3-1.6-21.4
		s4.3-14.1,5-21.4c0.5-5.3-0.1-10.7,0.9-15.9c0.8-4,2.5-7.8,3.5-11.7c3-11.7-0.1-24-3.3-35.6c2.6,6,7.5,10.7,12.6,14.7
		c7.7,6.2,17.1,11.6,26.9,10.5c8.7-1,16.2-7.1,21.3-14.2c0-8.2,2.9-16,2.4-24.3c-0.3-3.6-1-7.2-1.9-10.7c-1-3.9-1.9-7.9-3.8-11.5
		C600.7,253.3,595.8,250.3,591.8,246.8z"/>
	<path class="st2" d="M519.9,405c-4.6-2.8-8.6-6.5-11.7-10.9c-1.1-1.6-2.1-3.3-3.5-4.6c-1.4-1.3-3.3-2.3-5.2-2.1
		c-2.2,0.2-3.9,1.9-5.3,3.6c-3.7,4.6-6.1,10.2-10.2,14.4c-4.7,4.9-11.4,7.5-18,9.2c-6.6,1.7-13.4,2.6-19.9,4.7
		c-2,0.7-4.2,1.6-5.3,3.4c-1.4,2.3-0.6,5.4,0.8,7.7c2.7,4.4,7.4,7.2,12.2,8.9c4.9,1.7,10,2.4,15,3.3c8.9,1.7,18.1,4.6,27,2.6
		c3.5-0.8,6.9-2.3,10.5-3c8.2-1.5,16.6,1.5,24.7,0.3c4-0.6,7.7-2.2,11.3-4c1.8-0.8,3.4-1.9,4.8-3.3c1.3-1.5,2.1-3.5,1.6-5.4
		c-0.3-1.1-1-2-1.5-3c-0.7-1.6-0.9-3.4-1.1-5.1c-0.7-6.6-1.8-13.2-3.4-19.6c-0.6-2.3-1.4-4.8-3.5-5.7c-0.4-0.2-0.9-0.3-1.4-0.2
		c-0.7,0.3-1,1.2-1.2,1.9c-1.9,6.3-8.5,10-14.8,8.1c-2.3-0.7-4.4-2.1-6-4"/>
	<path class="st5" d="M486,126.9c0,1.5-0.1,3-0.3,4.4c-4,0.6-8.1-0.7-10.9-3.6c-1.3-1.4-2.3-3.1-3.6-4.5c-1.3-1.4-3.1-2.6-5-2.4
		c-1.6,0.1-3,1.1-4.1,2.3c-1.4,1.5-2.5,3.4-3.1,5.4c-0.4,1.4-0.6,3-1.8,4s-2.6,0.9-4,0.8c-1.8-0.1-3.7-0.2-5.3-1
		c-3-1.6-4-5.3-5.1-8.6c-1.9-5.4-6.1-15.7-12.7-16.8c-3.1-0.5-6.9,1.1-9.4,2.9c-3.7,2.7-6.4,4.4-11.2,4.4l0,0
		c7-20.6,29.4-31.5,50-24.5C475.4,95.1,486.1,110.1,486,126.9L486,126.9z"/>
	<path class="st7" d="M409.4,112.7c-1.1,0-2.3-0.2-3.3-0.5c-3-1.2-4.5-4.7-4.8-8c-0.4-5,1.3-9.8,2.9-14.5c0.4-1,0.8-2.1,1.7-2.7
		c0.7-0.4,1.6-0.6,2.4-0.6c4.5-0.6,8.4-3.4,11.7-6.5s6.3-6.6,10-9.2c9.8-6.8,24.5-5.5,33,2.9c3.4,3.3,6.3,7.8,10.9,8.6
		c2.7,0.4,5.6-0.5,8.2,0.5c1.9,0.7,3.2,2.4,4.3,4.1c3.5,5.5,5.1,12,5.7,18.5c0.5,6.5,0,13-0.5,19.5c0,1-0.2,1.9-0.7,2.8
		c-0.4,0.5-0.9,0.9-1.5,1.1c-4.9,2.4-10.8,1.4-14.6-2.5c-1.3-1.4-2.3-3.1-3.6-4.5s-3.1-2.6-5-2.4c-1.6,0.1-3,1.1-4.1,2.3
		c-1.4,1.5-2.5,3.4-3.1,5.4c-0.4,1.4-0.6,3-1.8,4c-1.2,0.9-2.6,0.9-4,0.8c-1.8-0.1-3.7-0.2-5.3-1c-3-1.6-4-5.3-5.1-8.6
		c-1.9-5.4-6.1-15.7-12.7-16.8c-3.1-0.5-6.9,1.1-9.4,2.9C417,111.1,414.3,112.8,409.4,112.7z"/>
	<path class="st5" d="M201.8,346.8c-0.4,2.9-3.1,5.1-4.9,7.3c-5,6.1-10.1,12.2-15.7,17.7c-6,5.9-12.6,11.2-19.2,16.5l-8.6,6.9
		c-1.1,1-2.3,1.7-3.6,2.2c-1.6,0.4-3.2,0.2-4.7-0.6c0.1-0.3,0.3-0.5,0.4-0.7l10.3-17.2c2-3.4,3.3-6.4,5.6-9.6
		c3.5-4.7,7-9.5,11.2-13.5c5.4-5.1,12.3-8.8,18.7-12.5c0.9-2.8,4.8-3.6,7.4-2.2c1,0.5,1.9,1.2,2.6,2
		C201.8,344.3,202,345.6,201.8,346.8z"/>
	<path class="st7" d="M156.4,379.7l-10.3,17.2c-0.4,0.7-0.9,1.5-0.7,2.3c0.2,0.7,0.7,1.2,1.3,1.6c3.9,3.2,8.3,6.6,9.5,11.5
		c0.9,3.5,0,7.3,0.8,10.8c1.4,6.4,7.8,10.2,13.9,12.7c13.5,5.5,28.6,7.6,43,5c14.4-2.6,28-9.9,37.4-21.2c2.9-3.5,5.3-7.2,8-10.8
		c7.5-9.9,17.1-18,26.5-26c12.2-10.3,19.4-25.7,30.1-37.6c1.9-2.2,4.1-4.4,6.9-5.1c1.6-0.4,3.8,0.2,3.8,1.8c0.1,3.1,2.7,5.7,4.4,8.3
		c6.5,9.9,13.3,20.2,23.3,26.5c5.5,3.5,11.7,5.6,17.9,7.5c15.7,4.9,31.8,8.8,47.8,12.6c0.8-1.6,1.8-3.1,2.9-4.6
		c1.7-2,3.8-3.6,5.5-5.6c3.1-3.7,4.1-8.6,5.1-13.3c-9.6-5.9-19.4-11.9-28.8-18c-4.8-3.1-9.5-6.2-13.4-10.3c-2.5-2.7-4.6-5.8-7.1-8.6
		c-2.6-2.7-5.3-5.1-8.3-7.4L353.4,311c-6.5-5.2-13.1-10.7-19.4-16c-3.6-3-7.5-6.2-12.2-6.3c-4-0.1-7.7,2-11.1,4.1
		c-20.2,12.1-40.7,23.6-61.4,34.6c-4.2,2.2-8.4,4.4-12.4,7c-7.8,5-14.7,11.2-20.5,18.4c-1.1,1.3-2.4,2.8-4.1,2.6
		c-0.5-0.1-0.9-0.2-1.3-0.5c-2.6-1.4-4.2-4.1-5.6-6.6s-3.1-5.2-5.7-6.5s-6.5-0.5-7.4,2.2c-6.5,3.8-13.3,7.4-18.8,12.5
		c-4.3,4-7.8,8.8-11.2,13.5C159.8,373.2,158.4,376.3,156.4,379.7z"/>
	<path class="st5" d="M139.6,274.7c0,0,10.3,4.6,17.7,9.8"/>
	<path class="st7" d="M656.8,284.1c0.2,5.8,0.3,11.7,0.3,17.6c0,3.1-0.2,6.3-1.7,9c-1.1,1.9-2.7,3.5-4.4,5l-10.3,9.4
		c-3.2,2.9-6.7,5.9-10.9,6.7c-4.9,0.8-9.7-1.5-14.4-3.1c-4.7-1.6-9.7-2.4-14.7-2.5c-2.9,0-5.7,0.2-8.6-0.2c-2-0.4-4-1-6-1.7
		l-9.3-3.2c0.3-2.4,2.5-3.8,4.4-5.3c6.7-5.4,9.6-14.1,11.7-22.5c1.7-6.5,2.9-13.1,3.6-19.8c0.3-3.3,0.5-6.7-0.2-9.9
		c-0.7-2.6-1.6-5.2-2.8-7.6l-3.3-7.4c-1.9-4.2-5.6-6-9.5-8.5c5.8,2.2,12.8,3.1,17.2,7.4c0.8,1,1.9,1.8,3,2.4
		c1.2,0.6,2.6,0.6,3.9,0.8c6.5,1,12.1,5.1,17.5,8.9c6.6,4.6,13.4,9,20.4,13.1c3.1,1.8,6.4,3.7,9,6.2c2.6,2.5,4.7,5.9,4.9,9.5"/>
	<path class="st5" d="M94.5,273.8c-8.2,1.6-12.5,11.3-12,19.6c0.5,7.5,3.5,14.5,8.7,20c3.4,3.6,7.7,6.4,10.8,10.3
		c4.6,5.7,6.2,13.3,10.3,19.4c3,4.4,7.1,7.9,11.3,11.2c9.6,7.6,19.4,14.8,29.6,21.6c4.1,2.8,8.7,5.6,13.6,5.5
		c4.7-0.1,9-2.9,12.1-6.4c3.1-3.6,5-7.9,7-12.2c7.2-15.6,14.4-31.4,17.8-48.2c1.1-5.3,1.8-10.7,4.2-15.6c1.9-3.8,4.7-7,7.1-10.4
		c5.9-8.1,10-17.3,12.1-27c1.4-6.4,1.8-13.2-0.4-19.2s-7.7-11.4-14.2-11.8c-5.1-0.4-10.2,2.3-13.6,6.1c-3.4,3.8-5.5,8.7-6.9,13.7
		c-2,7.1-2.7,14.6-2.3,21.9c0.4,6,1.6,12,0.6,17.9c-0.7,4.2-2.5,8-4.3,11.9c-4.6,9.9-9.3,19.9-16.3,28.2c-2.3,2.7-5.4,5.5-8.9,4.8
		c-4.8-0.9-6.1-7-8.5-11.3c-2.9-5.3-8.5-8.4-12.8-12.6c-6.2-6-9.9-13.9-14.3-21.3c-4.4-7.4-10.1-14.7-18.2-17.5s-18.9,0.8-21,9.1"/>
	<path class="st5" d="M100.7,279.5c-8.2,1.6-18.7,2.7-18.2,11.1c0.5,7.5,3.5,14.5,8.7,20c3.4,3.6,7.7,6.4,10.8,10.3
		c4.6,5.7,6.2,13.3,10.3,19.4c3,4.4,7.1,7.9,11.3,11.2c9.6,7.6,19.4,14.8,29.6,21.6c4.1,2.8,8.7,5.6,13.6,5.5
		c4.7-0.1,9-2.9,12.1-6.4c3.1-3.6,5-7.9,7-12.2c7.2-15.6,14.4-31.4,17.8-48.2c1.1-5.3,1.8-10.7,4.2-15.6c1.9-3.8,4.7-7,7.1-10.4
		c5.9-8.1,10-17.3,12.1-27c1.4-6.4,1.8-13.2-0.4-19.3c-2.2-6.1-7.7-11.3-14.2-11.8c-5.1-0.4-10.2,2.3-13.6,6.1
		c-3.4,3.8-5.5,8.7-6.9,13.7c-2,7.1-2.7,14.6-2.3,21.9c0.4,6,1.6,12,0.6,17.9c-0.7,4.2-2.5,8-4.3,11.9c-4.6,9.9-9.3,19.9-16.3,28.2
		c-2.3,2.7-5.4,5.5-8.9,4.8c-4.8-0.9-6.1-7-8.5-11.3c-2.9-5.3-8.5-8.4-12.8-12.6c-6.2-5.9-9.9-13.9-14.3-21.3
		c-4.4-7.4-10.1-14.6-18.2-17.5c-8.1-2.8,2,15.3,0,23.6"/>
	<path class="st8" d="M94.5,272.4c-8.2,1.6-12.5,11.3-12,19.6c0.5,7.5,3.5,14.5,8.7,20c3.4,3.6,7.7,6.4,10.8,10.3
		c4.6,5.7,6.2,13.3,10.3,19.4c3,4.4,7.1,7.9,11.3,11.2c9.6,7.6,19.4,14.8,29.6,21.6c4.1,2.8,8.7,5.6,13.6,5.5
		c4.7-0.1,9-2.9,12.1-6.4c3.1-3.6,5-7.9,7-12.2c7.2-15.6,14.4-31.4,17.8-48.2c1.1-5.3,1.8-10.7,4.2-15.6c1.9-3.8,4.7-7,7.1-10.4
		c5.9-8.1,10-17.3,12.1-27c1.4-6.4,1.8-13.2-0.4-19.3s-7.7-11.3-14.2-11.8c-5.1-0.4-10.2,2.3-13.6,6.1c-3.4,3.8-5.5,8.7-6.9,13.7
		c-2,7.1-2.7,14.6-2.3,21.9c0.4,6,1.6,12,0.6,17.9c-0.7,4.2-2.5,8-4.3,11.9c-4.6,9.9-9.3,19.9-16.3,28.2c-2.3,2.7-5.4,5.5-8.9,4.8
		c-4.8-0.9-6.1-7-8.5-11.3c-2.9-5.3-8.5-8.4-12.8-12.6c-6.2-6-9.9-13.9-14.3-21.3c-4.4-7.4-10.1-14.6-18.2-17.5s-18.9,0.8-21,9.1"/>
	<g class="st10">
		<path class="st11" d="M63.1,222.3c-2.6-4.3-4.8-8.8-6.5-13.6l-0.2-0.6c-1.3-1.4-2.4-3-3.3-4.8c-1.3-3-2.1-6.2-2.1-9.4
			c0-0.1,0-0.2,0-0.4c-0.4,1-0.8,2.1-1,3.1c-0.6,3.5,0.4,7.1,1.6,10.5c1.7,4.7,3.9,9.3,6.5,13.6c3.9,6.5,8.9,12.8,9.6,20.2
			c1.2,11.2-7.3,21-9.3,32.1c-1.6,8.4,0.4,17.9-4.1,25.2c-1.8,2.8-4.2,5-7.1,6.7c-1.8,1.1-3.7,2-5.8,2.5c-0.4,0.4-0.8,0.9-1.2,1.3
			c4,1.4,8.4-0.1,12-2.3c2.8-1.7,5.3-4,7.1-6.7c4.5-7.3,2.5-16.7,4.1-25.2c2.1-11,10.5-20.9,9.4-32.1C72,235,67,228.7,63.1,222.3z"
			/>
		<path class="st11" d="M135.5,167.1c-1.6-3.7-5-6.4-8.5-8.5c-4.4-2.7-9.3-4.6-14.3-5.8c3.2,1.1,6.3,2.6,9.3,4.3
			c3.5,2.1,6.9,4.7,8.5,8.5c1.6,3.7,0.8,8.8-2.7,10.9c-2.5,1.5-5.5,1.2-8.4,1.1c-2.5-0.1-5,0.1-7.4,0.4c-0.9,0.1-1.8,0.3-2.6,0.7
			c-1,0.7-1.9,1.6-2.4,2.8c-1,1.9-1.7,4-2,6.2c-0.4,2.4-0.3,5-1.8,7c-2,2.6-5.2,2.2-8.2,2.7c-2.5,0.5-4.9,1.4-7.2,2.7
			c-4.8,2.9-8.2,8.2-8.5,13.9c-0.1,2,0.2,4.1-0.3,6c-0.4,1.1-0.9,2.2-1.6,3.1c1.1,1.2,2.1,2.5,2.9,3.9c1.5-1.7,3.1-3.4,3.8-5.6
			c0.6-1.9,0.3-4,0.4-6c0.2-5.6,3.6-11,8.5-13.9c2.2-1.3,4.6-2.2,7.2-2.7c2.9-0.5,6.1-0.1,8.2-2.7c1.5-1.9,1.5-4.6,1.8-7
			c0.3-2.2,1-4.2,2-6.2c0.5-1.1,1.3-2.1,2.4-2.8c0.8-0.4,1.7-0.6,2.6-0.7c2.5-0.3,4.9-0.4,7.4-0.4c2.9,0.1,5.9,0.3,8.4-1.1
			C136.3,175.9,137.1,170.9,135.5,167.1z"/>
	</g>
	<path class="st5" d="M94.4,227c0,0,7.4,6.4,21.5,2.5C115.9,229.5,107.2,233,94.4,227z"/>
	<path class="st5" d="M491.5,119.6c0,1-0.2,1.9-0.8,2.7c-0.4,0.5-0.9,0.9-1.5,1.1c-4.9,2.4-10.8,1.4-14.6-2.5
		c-1.3-1.4-2.3-3.1-3.6-4.5s-3.1-2.6-5-2.4c-1.6,0.1-3,1.1-4.1,2.3c-1.4,1.5-2.5,3.4-3.1,5.4c-0.4,1.4-0.6,3-1.8,4s-2.6,0.9-4,0.8
		c-1.8-0.1-3.7-0.1-5.3-1c-3-1.6-4-5.3-5.1-8.6c-1.9-5.4-6.1-15.7-12.7-16.8c-3.1-0.5-7,1.1-9.4,2.9c-3.7,2.7-6.4,4.4-11.2,4.4
		c-1.1,0-2.3-0.2-3.3-0.5c-2.8-1.1-4.2-4.1-4.7-7.1c-0.2,1.4-0.2,2.7-0.1,4.1c0.3,3.2,1.7,6.8,4.8,8c1.1,0.4,2.2,0.5,3.3,0.5
		c4.8,0.1,7.5-1.7,11.2-4.4c2.5-1.8,6.3-3.4,9.4-2.9c6.6,1.1,10.8,11.3,12.7,16.8c1.1,3.2,2.1,7,5.1,8.6c1.6,0.9,3.5,0.9,5.3,1
		c1.4,0.1,2.9,0.1,4-0.8c1.1-0.9,1.4-2.6,1.8-4c0.6-2,1.6-3.9,3.1-5.4c1.1-1.2,2.5-2.2,4.1-2.3c1.9-0.2,3.8,1,5,2.4
		c1.3,1.4,2.3,3.1,3.6,4.5c3.8,3.9,9.7,4.9,14.6,2.5c0.6-0.3,1.1-0.6,1.5-1.1c0.5-0.8,0.8-1.8,0.8-2.8c0.5-5.3,0.7-10.6,0.6-15.9
		C492.1,112.3,491.8,115.9,491.5,119.6z"/>
	<path class="st7" d="M56.3,387c0,0,1-1.1-0.9-1.5v-1.8h1.1c0-4.5-3.2-8.5-7.6-9.4V372h0.3v-2.9H42v2.9h0.2v2.2
		c-4.4,1-7.5,4.9-7.5,9.4h1v1.7c0,0-2.4,1.1,0,3.1c2.4,2,2,3.5,2,3.5s-1,3.8-3,4.3v34.9c0,4.3,3.5,7.8,7.7,7.8c0,0,0,0,0,0h6.1
		c4.3,0,7.8-3.5,7.8-7.8v-34.9c0,0-3.5-2.6-2.9-4.3C54.3,390.3,55.2,388.6,56.3,387z"/>
</g>
</svg>
