<svg id="Layer_1" enable-background="new 0 0 512 512" height="512" viewBox="0 0 512 512" width="512" xmlns="http://www.w3.org/2000/svg"><g><path d="m271.584 306.872h-27.664l-33.439-20.888-15.753 24.065 21.205 194.105 7.997 7.846h64.139l7.016-5.615 22.278-200.372-20.337-24.584z" fill="#eee1dd"/><path d="m296.631 280.951 2.229-7.349c-1.086-1.302-1.735-2.956-1.74-4.732l-.01-25.056-3.976-4.248h-74.284l-4.013 5.365v23.893c0 2.129-.718 3.64-1.721 4.756l1.787 5.647-4.422 6.755 33.439 20.888h27.664l25.443-25.443z" fill="#fed1a3"/><path d="m254.67 239.566h-35.82l-4.013 5.365v23.893c0 2.129-.718 3.64-1.721 4.756l1.787 5.647-4.422 6.755 33.439 20.888h10.751v-67.304z" fill="#ffbc85"/><path d="m405.781 316.026c-2.82-1.092-33.905-13.13-61.379-23.77l-6.735 7.557-26.442 202.107 7.684 10.08h113.687c7.402 0 13.402-6.001 13.402-13.402 0-11.073 0-107.155 0-120.192-.001-28.453-18.218-53.325-40.217-62.38z" fill="#7b6c79"/><path d="m199.965 496.77-28.502-199.513-4.183-5.077-61.059 23.847c-17.194 7.077-40.217 29.341-40.217 62.38v120.192c0 7.401 6 13.402 13.402 13.402h114.048z" fill="#7b6c79"/><path d="m97.072 498.598c0-10.865 0-123.88 0-136.132 0-23.382 11.533-41.359 24.369-52.383l-15.221 5.945c-17.194 7.077-40.217 29.341-40.217 62.38v120.192c0 7.401 6 13.402 13.402 13.402h31.069c-7.402-.002-13.402-6.003-13.402-13.404z" fill="#665e68"/><path d="m270.051 338.88-2.952-2.477h-24.038l-1.112 2.477-18.019 173.12h64.139z" fill="#f27182"/><path d="m270.051 338.88-2.952-2.477h-24.038l-1.112 2.477-18.019 173.12h28.679l17.73-170.348z" fill="#ed5469"/><path d="m391.698 512v-141.485c0-4.267-3.459-7.726-7.726-7.726s-7.726 3.459-7.726 7.726v141.485z" fill="#665e68"/><path d="m135.755 512v-141.485c0-4.267-3.459-7.726-7.726-7.726s-7.726 3.459-7.726 7.726v141.485z" fill="#665e68"/><path d="m272.292 300.647-1.903-.824c-9.994 0-18.785 0-28.779 0l-2.026 1.082-9.58 16.225v3.072l11.945 18.678h28.102l11.945-18.678.855-2.815z" fill="#f27182"/><path d="m239.025 295.066-25.909-21.485c-.44.49-.93.911-1.447 1.263l-15.637 6.107-1.303 1.626 3.091 25.927 1.648.897 18.043 14.962c3.325 2.758 8.305 2.045 10.722-1.536l12.184-18.045c2.103-3.115 1.501-7.317-1.392-9.716z" fill="#fff5f5"/><path d="m315.935 281.231c-7.692-2.979-12.997-5.034-14.064-5.446-1.202-.465-2.22-1.233-3.012-2.184l-25.884 21.464c-2.893 2.399-3.495 6.602-1.392 9.716l12.184 18.045c2.418 3.581 7.397 4.294 10.722 1.536l18.043-14.962 1.804-1.927 3.026-24.145z" fill="#fff5f5"/><path d="m351.198 382.967c.432-1.728.018-3.558-1.116-4.932l-10.12-12.252c-1.956-2.367-1.643-5.867.701-7.851l13.245-11.207c1.605-1.358 2.315-3.5 1.84-5.547l-11.346-48.922c-10.65-4.125-20.759-8.039-28.467-11.025l-27.865 230.769h30.839z" fill="#938493"/><path d="m196.031 280.951-28.752 11.229-11.027 48.999c-.475 2.047.235 4.189 1.84 5.547l13.245 11.207c2.344 1.983 2.657 5.483.701 7.851l-10.12 12.252c-1.134 1.373-1.549 3.204-1.116 4.932l32.651 129.032h30.478z" fill="#938493"/><path d="m349.883 66.313c-1.417-.593-2.513-1.838-2.987-3.406-2.614-8.644-12.836-44.025-36.732-48.511-19.087-3.583-37.04-9.561-46.723-13.08-4.827-1.755-10.051-1.755-14.878 0-9.683 3.519-27.637 9.497-46.723 13.08-23.896 4.486-34.118 39.867-36.732 48.511-.474 1.569-1.57 2.812-2.987 3.406-5.728 2.4-9.73 8.044-9.73 14.693v61.545l4.652 4.423h199.084l3.488-4.423v-61.545c-.003-6.649-4.004-12.293-9.732-14.693z" fill="#bd7b62"/><path d="m195.248 81.006c0-6.648 4.002-12.292 9.73-14.693 1.417-.594 2.513-1.837 2.987-3.406 2.614-8.644 12.836-44.025 36.732-48.511 11.936-2.241 23.429-5.418 32.733-8.345-5.574-1.753-10.363-3.417-13.991-4.735-4.827-1.755-10.051-1.755-14.878 0-9.683 3.519-27.637 9.497-46.723 13.08-23.896 4.486-34.118 39.867-36.732 48.511-.474 1.569-1.57 2.812-2.987 3.406-5.728 2.4-9.73 8.044-9.73 14.693v61.545l4.652 4.423h42.859l-4.652-4.423z" fill="#ad6a50"/><path d="m336.136 132.025c-1.964 0-3.879.194-5.739.536l-4.749 2.737v51.338l4.218 4.515c2.026.408 4.12.638 6.27.638 17.025 0 30.826-13.379 30.826-29.882.001-16.504-13.801-29.882-30.826-29.882z" fill="#fed1a3"/><path d="m346.931 133.913c-3.36-1.218-6.996-1.888-10.795-1.888-1.964 0-3.879.194-5.739.536l-4.749 2.737v51.338l4.218 4.515c2.026.408 4.12.638 6.27.638 3.799 0 7.435-.67 10.795-1.888z" fill="#ffbc85"/><path d="m175.864 132.025c-17.025 0-30.826 13.378-30.826 29.882 0 16.503 13.801 29.882 30.826 29.882 2.129 0 4.201-.227 6.209-.626l3.641-1.265v-51.853l-4.111-5.484c-1.861-.343-3.776-.536-5.739-.536z" fill="#fed1a3"/><path d="m166.321 161.906c0-11.756 7.007-21.922 17.191-26.8l-1.908-2.546c-1.861-.342-3.776-.536-5.739-.536-17.025 0-30.826 13.378-30.826 29.882 0 16.503 13.801 29.882 30.826 29.882 2.129 0 4.201-.227 6.209-.626l3.641-1.265v-.241c-11.363-4.403-19.394-15.164-19.394-27.75z" fill="#ffbc85"/><path d="m297.137 91.805c-11.584 6.396-24.638 9.65-37.87 9.65-7.581 0-16.942.393-28.891-3.208-1.51 3.038-2.391 6.487-2.391 10.236v74.972c0 30.355 18.131 58.677 47.633 70.475 31.43-8.393 54.779-37.492 54.779-71.439v-71.537c0-16.31-17.418-27.936-33.26-19.149z" fill="#ffe5c1"/><g><path d="m230.004 183.034v-72.082c0-4.458 1.279-8.486 3.421-11.856-5.761-1.472-12.151-3.847-19.278-7.685-14.707-7.927-32.543 2.834-32.543 19.541v72.082c0 38.299 29.987 73.282 75.356 73.335 8.18.009 16.05-1.379 23.415-3.903-31.06-10.134-50.371-38.707-50.371-69.432z" fill="#fed1a3"/></g></g></svg>