<svg id="Layer_1" enable-background="new 0 0 512 512" height="512" viewBox="0 0 512 512" width="512" xmlns="http://www.w3.org/2000/svg"><g><path d="m404.669 218.677c0-12.798-5.173-24.384-13.54-32.79-4.872-4.896-7.196-11.761-6.764-18.655.047-.758.072-1.522.072-2.291 0-12.73-6.537-23.934-16.438-30.437-6.68-4.388-10.9-11.66-10.9-19.652v-12.48c0-55.749-44.593-101.958-100.341-102.369-56.187-.413-101.858 45.008-101.858 101.097v13.752c0 7.993-4.219 15.264-10.899 19.652-9.9 6.503-16.438 17.706-16.438 30.437 0 .77.024 1.534.072 2.291.432 6.894-1.892 13.759-6.764 18.655-8.367 8.407-13.54 19.992-13.54 32.79 0 12.878 5.238 24.529 13.697 32.948 4.776 4.753 7.15 11.297 6.64 18.015-.166 2.189-.137 4.431.105 6.712 1.113 10.495 6.789 19.644 14.927 25.531l6.099 6.557h212.219l8.272-6.547c8.144-5.887 13.825-15.04 14.939-25.541.242-2.281.271-4.524.105-6.712-.51-6.718 1.864-13.262 6.64-18.015 8.458-8.419 13.695-20.07 13.695-32.948z" fill="#7b6c79"/><path d="m177.931 276.353c-.242-2.281-.271-4.524-.105-6.712.51-6.718-1.864-13.262-6.64-18.015-8.459-8.42-13.697-20.07-13.697-32.948 0-12.798 5.173-24.384 13.54-32.79 4.872-4.896 7.196-11.761 6.764-18.655-.048-.758-.072-1.522-.072-2.291 0-12.73 6.538-23.934 16.438-30.437 6.68-4.388 10.899-11.66 10.899-19.652v-13.753c0-47.144 32.267-86.746 75.922-97.935-7.749-2.001-15.859-3.101-24.223-3.162-56.186-.413-101.857 45.008-101.857 101.097v13.752c0 7.993-4.219 15.264-10.899 19.652-9.9 6.503-16.438 17.706-16.438 30.437 0 .77.024 1.534.072 2.291.432 6.894-1.892 13.759-6.764 18.655-8.367 8.407-13.54 19.992-13.54 32.79 0 12.878 5.238 24.529 13.697 32.948 4.776 4.753 7.15 11.297 6.64 18.015-.166 2.189-.137 4.431.105 6.712 1.113 10.495 6.789 19.644 14.927 25.531l6.099 6.557h50.159l-6.099-6.557c-8.138-5.886-13.814-15.035-14.928-25.53z" fill="#665e68"/><path d="m405.781 316.027c-3.166-1.226-41.958-16.25-71.271-27.602l-3.197 1.902-12.291-4.822-12.863 48.348h-95.057l-19.672-46.263-10.954 4.197-2.984-3.391c-29.622 11.484-70.529 27.343-71.272 27.631-17.194 7.076-40.217 29.341-40.217 62.38v120.192c0 7.401 6 13.402 13.402 13.402h353.191c7.402 0 13.402-6 13.402-13.402 0-11.074 0-107.155 0-120.192-.001-28.453-18.218-53.326-40.217-62.38z" fill="#eee1dd"/><path d="m211.103 333.853h95.057l12.863-48.348-5.651-2.217-1.278-3.544c-5.587-2.163-9.343-3.618-10.221-3.958-2.85-1.102-4.744-3.844-4.752-6.916l-.02-24.181-6.478-2.865h-72.972l-2.812 3.016v23.986c0 5.691-5.076 7.061-7.24 7.9v-.001c-.268.104-3.125 1.211-7.704 2.987l-1.045 5.036-7.418 2.842z" fill="#ffcebe"/><path d="m217.649 241.822-2.812 3.016v23.986c0 5.691-5.076 7.061-7.24 7.9v-.001c-.268.104-3.125 1.211-7.704 2.987l-1.045 5.036-7.418 2.842 19.672 46.263h48.081l-2.988-8.082v-83.948h-38.546z" fill="#f5b2a2"/><g fill="#e1d3ce"><path d="m263.724 440.227c0-4.267-3.459-7.726-7.726-7.726s-7.726 3.459-7.726 7.726v71.773h15.453v-71.773z"/><path d="m135.754 512v-141.485c0-4.267-3.459-7.726-7.726-7.726s-7.726 3.459-7.726 7.726v141.485z"/><path d="m391.698 512v-141.485c0-4.267-3.459-7.726-7.726-7.726s-7.726 3.459-7.726 7.726v141.485z"/></g><path d="m301.995 310.885c-27.451 19.852-64.542 19.852-91.993 0l-3.77 4.681 49.767 137.179 50.161-134.603z" fill="#f27182"/><path d="m256.195 325.771c-16.201.041-32.412-4.919-46.194-14.885l-3.77 4.681 49.767 137.179 23.665-63.504z" fill="#ed5469"/><path d="m255.998 452.746 61.866-55.34c2.259-2.02 3.156-5.159 2.308-8.067l-5.556-19.049c-1.043-3.576.564-7.393 3.851-9.146l23.156-12.351c3.099-1.653 4.727-5.159 3.991-8.593l-11.103-51.774c-8.705-3.371-16.568-6.417-22.418-8.682z" fill="#fff5f5"/><path d="m170.374 348.792 23.156 12.351c3.286 1.753 4.894 5.57 3.851 9.146l-5.556 19.049c-.848 2.908.049 6.047 2.308 8.067l61.866 55.34-56.105-173.035c-5.472 2.122-13.412 5.2-22.401 8.685l-11.109 51.804c-.738 3.434.891 6.94 3.99 8.593z" fill="#fff5f5"/><path d="m317.516 121.893c-10.494-10.401-25.249-29.108-36.307-53.789-2.807-6.265-9.4-3.751-10.208 1.321-1.273 7.998-7.791 35.021-39.53 61.036v53.289c0 31.335 19.352 58.683 46.687 70.171 29.649-9.192 51.36-37.271 51.36-69.812v-33.112c.001-10.905-4.257-21.426-12.002-29.104z" fill="#ffdecf"/><path d="m233.421 184.11v-55.275c-7.888 6.694-17.409 13.349-28.914 19.625-13.316 7.264-21.636 21.192-21.636 36.361 0 37.681 29.456 72.128 74.076 72.278 8.596.029 16.853-1.497 24.523-4.295-27.941-10.195-48.049-37.377-48.049-68.694z" fill="#ffcebe"/><path d="m98.318 378.608c0-29.285 13.824-53.653 26.374-69.742-10.72 4.156-18.16 7.04-18.473 7.162-17.194 7.076-40.217 29.341-40.217 62.38v120.192c0 7.401 6 13.402 13.402 13.402h18.914c0-41.308 0-100.67 0-133.394z" fill="#e1d3ce"/></g></svg>