<?xml version="1.0" encoding="utf-8"?>
<!-- Generator: Adobe Illustrator 24.0.1, SVG Export Plug-In . SVG Version: 6.00 Build 0)  -->
<svg version="1.1" id="Calque_1" xmlns="http://www.w3.org/2000/svg" xmlns:xlink="http://www.w3.org/1999/xlink" x="0px" y="0px"
	 viewBox="0 0 54.2 54.2" style="enable-background:new 0 0 54.2 54.2;" xml:space="preserve">
<style type="text/css">
	.st0{fill:#D5E4BB;}
</style>
<path class="st0" d="M48.2,21.1H33.1V6c0-3.3-2.7-6-6-6c-3.3,0-6,2.7-6,6v15.1H6c-3.3,0-6,2.7-6,6c0,3.3,2.7,6,6,6h15.1v15.1
	c0,3.3,2.7,6,6,6c3.3,0,6-2.7,6-6V33.1h15.1c3.3,0,6-2.7,6-6C54.2,23.8,51.5,21.1,48.2,21.1z"/>
</svg>
