<?xml version="1.0" encoding="utf-8"?>
<!-- Generator: Adobe Illustrator 24.0.1, SVG Export Plug-In . SVG Version: 6.00 Build 0)  -->
<svg version="1.1" id="Calque_1" xmlns="http://www.w3.org/2000/svg" xmlns:xlink="http://www.w3.org/1999/xlink" x="0px" y="0px"
	 viewBox="0 0 170.2 170.2" style="enable-background:new 0 0 170.2 170.2;" xml:space="preserve">
<style type="text/css">
	.st0{fill:#A7CB6B;}
	.st1{fill:#FFFFFF;}
</style>
<g>
	<circle class="st0" cx="85.1" cy="85.1" r="85.1"/>
	<g>
		<g>
			<path class="st1" d="M74.2,134.9c3.5,1.4,7.7-1.5,10.9-1.5s7.8,2.2,10.3,1.5c19-5.4,30.8-33.4,30.8-46.7c0-9-2.8-19.6-15.8-25.1
				c-11.6-4.9-15.3-0.3-22.5,0.7c0-1-0.1-2.1-0.2-3.1c2.5-1.9,7.4-5,15.2-7c12-3,16.6-17.6,16.6-17.6s-14.6-3.2-23.6,2.2
				c-5.1,3.1-7.8,9.6-9.2,14.7c-0.6-3.7-1.5-7.3-2.6-10.8c-0.2-1-0.4-1.9-0.7-2.5c-1.9-4.6-7.2-2.4-7.2,0c0,1.6,0.9,2.4,1.8,3.2
				c1.2,3.7,2.2,7.6,2.8,11.4c0.1,0.5,0.2,1,0.3,1.6c0,0.2,0.1,0.4,0.1,0.7c0,0,0,0.1,0,0.1c0,0.1,0,0.2,0,0.2
				c0.1,1.1,0.2,2.1,0.3,3.2c0.1,1.2,0.2,2.5,0.2,3.7c-7.4-1.1-12.4-5.2-21.9-1.3C48.9,66.7,44,79.2,44,88.1
				C44,100.7,56.8,128,74.2,134.9z"/>
		</g>
	</g>
</g>
</svg>
