<?xml version="1.0" encoding="utf-8"?>
<!-- Generator: Adobe Illustrator 24.0.1, SVG Export Plug-In . SVG Version: 6.00 Build 0)  -->
<svg version="1.1" id="Calque_1" xmlns="http://www.w3.org/2000/svg" xmlns:xlink="http://www.w3.org/1999/xlink" x="0px" y="0px"
	 viewBox="0 0 170.2 170.2" style="enable-background:new 0 0 170.2 170.2;" xml:space="preserve">
<style type="text/css">
	.st0{fill:#E74350;}
	.st1{fill:#FFFFFF;}
</style>
<g>
	<g>
		<circle class="st0" cx="85.1" cy="85.1" r="85.1"/>
	</g>
	<g>
		<g>
			<path class="st1" d="M64.9,106.2c0,4.5-3.6,8.1-8,8.1l-10,0c-4.4,0-8.1-3.6-8.1-8l-0.1-42c0-4.4,3.6-8.1,8-8.1l10,0
				c4.4,0,8.1,3.6,8.1,8L64.9,106.2z M34.1,70.6c0-1-1-1.8-2-1.6c-4,0.9-6.4,4.3-6.4,7.9l0.1,16.8c0,3.6,2.4,7,6.4,7.8
				c1,0.2,2-0.6,1.9-1.6L34.1,70.6z M100.5,77.3c0-1.8-1.5-3.2-3.2-3.2l-24.3,0.1c-1.8,0-3.2,1.5-3.2,3.2l0,15.5
				c0,1.8,1.4,3.2,3.2,3.2L97.3,96c1.8,0,3.2-1.5,3.2-3.2L100.5,77.3z M136.2,99.6c0,1,1,1.8,2,1.6c4-0.9,6.4-4.3,6.4-7.9l-0.1-16.8
				c0-3.6-2.4-7-6.4-7.8c-1-0.2-2,0.6-1.9,1.6L136.2,99.6z M131.4,64c0-4.4-3.6-8-8.1-8l-10,0c-4.4,0-8,3.6-8,8.1l0.1,42
				c0,4.5,3.6,8,8.1,8l10,0c4.4,0,8-3.6,8-8.1L131.4,64z"/>
		</g>
	</g>
</g>
</svg>
