<?xml version="1.0" encoding="utf-8"?>
<!-- Generator: Adobe Illustrator 24.0.1, SVG Export Plug-In . SVG Version: 6.00 Build 0)  -->
<svg version="1.1" id="Calque_1" xmlns="http://www.w3.org/2000/svg" xmlns:xlink="http://www.w3.org/1999/xlink" x="0px" y="0px"
	 viewBox="0 0 170.2 170.2" style="enable-background:new 0 0 170.2 170.2;" xml:space="preserve">
<style type="text/css">
	.st0{fill:#70C6DF;}
	.st1{fill:#FFFFFF;}
</style>
<g>
	<circle class="st0" cx="85.1" cy="85.1" r="85.1"/>
	<g>
		<g>
			<g>
				<path class="st1" d="M120.1,72.5l-0.2-0.2l0-0.1l-13.7-20.4L92.5,72.2l0,0.1l-0.2,0.2c-2.2,3-3.4,6.5-3.4,10.2
					c0,9.5,7.7,17.3,17.3,17.3s17.3-7.7,17.3-17.3C123.5,79,122.3,75.5,120.1,72.5z"/>
			</g>
		</g>
		<g>
			<g>
				<path class="st1" d="M106.2,105.9c-12.8,0-23.2-10.4-23.2-23.2c0-5,1.5-9.7,4.5-13.7l9-13.4L82.7,35l-29,43
					c-4.6,6.2-7,13.5-7,21.3c0,19.8,16.1,35.9,35.9,35.9c18.8,0,34.2-14.5,35.8-32.8C114.9,104.6,110.7,105.9,106.2,105.9z"/>
			</g>
		</g>
	</g>
</g>
</svg>
