<?xml version="1.0" encoding="utf-8"?>
<!-- Generator: Adobe Illustrator 24.0.1, SVG Export Plug-In . SVG Version: 6.00 Build 0)  -->
<svg version="1.1" id="Calque_1" xmlns="http://www.w3.org/2000/svg" xmlns:xlink="http://www.w3.org/1999/xlink" x="0px" y="0px"
	 viewBox="0 0 170.2 170.2" style="enable-background:new 0 0 170.2 170.2;" xml:space="preserve">
<style type="text/css">
	.st0{fill:#3E559A;}
	.st1{fill:#FFFFFF;}
</style>
<g>
	<circle class="st0" cx="85.1" cy="85.1" r="85.1"/>
	<g>
		<g>
			<g>
				<path class="st1" d="M104.6,110.3c-19.4,0-35.2-15.8-35.2-35.2C69.4,63,75.6,52.3,85,46c-1.1-0.1-2.2-0.1-3.3-0.1
					C57,45.8,37,65.8,37,90.5s20,44.7,44.7,44.7c19.8,0,36.7-12.9,42.5-30.8C118.6,108.1,111.9,110.3,104.6,110.3z"/>
			</g>
		</g>
		<g>
			<g>
				<polygon class="st1" points="121,53.4 132,35 111.9,35 111.9,40.9 121.7,40.9 110.7,59.3 133.3,59.3 133.3,53.4 				"/>
			</g>
		</g>
		<g>
			<g>
				<polygon class="st1" points="104.3,57.4 86.1,57.4 86.1,63.3 93.9,63.3 85.5,77.5 104.1,77.5 104.1,71.6 95.8,71.6 				"/>
			</g>
		</g>
		<g>
			<g>
				<polygon class="st1" points="115.2,90.7 120.5,81.8 105.4,81.8 105.4,87.6 110.2,87.6 104.8,96.6 120.7,96.6 120.7,90.7 				"/>
			</g>
		</g>
	</g>
</g>
</svg>
