<?xml version="1.0" encoding="utf-8"?>
<!-- Generator: Adobe Illustrator 24.0.1, SVG Export Plug-In . SVG Version: 6.00 Build 0)  -->
<svg version="1.1" id="Calque_1" xmlns="http://www.w3.org/2000/svg" xmlns:xlink="http://www.w3.org/1999/xlink" x="0px" y="0px"
	 viewBox="0 0 133.6 133.6" style="enable-background:new 0 0 133.6 133.6;" xml:space="preserve">
<style type="text/css">
	.st0{fill:#3E559A;}
</style>
<g>
	<g>
		<path class="st0" d="M66.8,133.6C30,133.6,0,103.6,0,66.8S30,0,66.8,0s66.8,30,66.8,66.8S103.6,133.6,66.8,133.6z M66.8,5
			C32.7,5,5,32.7,5,66.8s27.7,61.8,61.8,61.8s61.8-27.7,61.8-61.8S100.9,5,66.8,5z"/>
	</g>
	<g>
		<path class="st0" d="M105.1,52.2H26.9c-2.8,0-5-2.2-5-5s2.2-5,5-5h78.2c2.8,0,5,2.2,5,5S107.9,52.2,105.1,52.2z"/>
	</g>
	<g>
		<path class="st0" d="M105.1,71.8H26.9c-2.8,0-5-2.2-5-5s2.2-5,5-5h78.2c2.8,0,5,2.2,5,5S107.9,71.8,105.1,71.8z"/>
	</g>
	<g>
		<path class="st0" d="M105.1,91.4H26.9c-2.8,0-5-2.2-5-5s2.2-5,5-5h78.2c2.8,0,5,2.2,5,5S107.9,91.4,105.1,91.4z"/>
	</g>
</g>
</svg>
