<?xml version="1.0" encoding="utf-8"?>
<!-- Generator: Adobe Illustrator 24.0.1, SVG Export Plug-In . SVG Version: 6.00 Build 0)  -->
<svg version="1.1" id="Calque_1" xmlns="http://www.w3.org/2000/svg" xmlns:xlink="http://www.w3.org/1999/xlink" x="0px" y="0px"
	 viewBox="0 0 133.6 133.6" style="enable-background:new 0 0 133.6 133.6;" xml:space="preserve">
<style type="text/css">
	.st0{fill:#66A9DF;}
	.st1{fill:#4F84CF;}
	.st2{fill:#D6F3FE;}
	.st3{fill:#BDECFC;}
	.st4{fill:#3D5499;}
</style>
<g>
	<g>
		<path class="st0" d="M66.8,128.6C32.6,128.6,5,100.9,5,66.8C5,32.6,32.6,5,66.8,5c34.2,0,61.8,27.6,61.8,61.8
			C128.6,101,100.9,128.6,66.8,128.6z"/>
		<path class="st1" d="M66.8,5v123.6c34.1,0,61.8-27.6,61.8-61.8C128.6,32.6,101,5,66.8,5z"/>
		<path class="st2" d="M66.8,81.3c-18,0-35.1,7.9-47.7,24.9c25,30.2,71.1,29.9,95.8-0.5C108.8,99.6,95.1,81.3,66.8,81.3z"/>
		<path class="st3" d="M114.9,105.6c-11.6,14.4-29.1,23-48.1,23V81.3C95.1,81.3,108.8,99.6,114.9,105.6z"/>
		<path class="st2" d="M66.8,70.4c-12,0-21.7-9.7-21.7-21.7v-7.2c0-12,9.7-21.7,21.7-21.7c12,0,21.7,9.7,21.7,21.7v7.2
			C88.5,60.7,78.8,70.4,66.8,70.4z"/>
		<path class="st3" d="M66.8,19.7v50.7c12,0,21.7-9.7,21.7-21.7v-7.2C88.5,29.5,78.8,19.7,66.8,19.7z"/>
	</g>
	<g>
		<path class="st4" d="M66.8,133.6C30,133.6,0,103.6,0,66.8S30,0,66.8,0s66.8,30,66.8,66.8S103.6,133.6,66.8,133.6z M66.8,5
			C32.7,5,5,32.7,5,66.8s27.7,61.8,61.8,61.8s61.8-27.7,61.8-61.8S100.9,5,66.8,5z"/>
	</g>
</g>
</svg>
