<?xml version="1.0" encoding="utf-8"?>
<!-- Generator: Adobe Illustrator 24.0.1, SVG Export Plug-In . SVG Version: 6.00 Build 0)  -->
<svg version="1.1" id="Calque_1" xmlns="http://www.w3.org/2000/svg" xmlns:xlink="http://www.w3.org/1999/xlink" x="0px" y="0px"
	 viewBox="0 0 30.5 40.7" style="enable-background:new 0 0 30.5 40.7;" xml:space="preserve">
<style type="text/css">
	.st0{fill:#3E559A;}
</style>
<g>
	<g>
		<path class="st0" d="M15.3,12.7c3.9,0,7.7,0,11.6,0c1.9,0,3,1.1,2.8,3.2c-0.2,1.9-0.4,3.8-0.5,5.8c-0.2,2.1-0.4,4.2-0.6,6.3
			c-0.1,1.4-0.2,2.8-0.4,4.2c-0.2,2.1-0.3,4.1-0.6,6.2c-0.1,1.3-1.5,2.4-2.9,2.4c-5.1,0-10.2,0-15.3,0c-1.2,0-2.4,0-3.6,0
			c-1.6,0-2.8-1.1-2.9-2.6c-0.2-2.5-0.4-5-0.7-7.4c-0.3-3.1-0.6-6.3-0.9-9.4c-0.2-2-0.4-4-0.5-6c-0.1-1.6,0.9-2.5,2.5-2.6
			C7.4,12.7,11.3,12.7,15.3,12.7z M12.8,17.9c0,5.9,0,11.7,0,17.5c1.7,0,3.3,0,4.9,0c0-0.1,0-0.1,0-0.1c0-5.7,0-11.4,0-17
			c0-0.1-0.2-0.3-0.3-0.3C15.9,17.9,14.4,17.9,12.8,17.9z M20.4,26.7c0,2.7,0,5.5,0,8.2c0,0.4,0.1,0.6,0.5,0.6c0.9,0,1.8,0,2.7,0
			c0.3,0,0.4-0.1,0.5-0.4c0.1-1,0.1-1.9,0.2-2.9c0.1-1.9,0.2-3.7,0.4-5.6c0.2-2.7,0.4-5.4,0.6-8.2c0-0.5-0.1-0.6-0.6-0.6
			c-1.2,0-2.4,0-3.7,0c-0.5,0-0.6,0.2-0.6,0.7C20.5,21.3,20.4,24,20.4,26.7z M10.1,26.7c0-2.8,0-5.5,0-8.3c0-0.4-0.1-0.6-0.6-0.6
			c-1.2,0-2.5,0-3.7,0c-0.6,0-0.6,0.2-0.6,0.7c0.2,1.8,0.3,3.6,0.4,5.3c0.3,3.7,0.5,7.4,0.8,11.1c0,0.3,0.1,0.5,0.5,0.5
			c0.9,0,1.7,0,2.6,0c0.5,0,0.6-0.2,0.6-0.7C10.1,32.2,10.1,29.4,10.1,26.7z"/>
		<path class="st0" d="M15.3,10.3c-4.7,0-9.5,0-14.2,0c-1,0-1,0-1-1.1c0-1.1,0.3-2,1-2.9c0.9-0.9,1.9-1.3,3.1-1.3c1,0,2,0,3,0
			c0.3,0,0.5-0.1,0.5-0.4C7.7,3.7,7.8,2.8,8,1.9C8.2,0.7,9.1,0,10.3,0c3.2,0,6.4,0,9.6,0c1.6,0,2.5,0.8,2.7,2.4
			c0.1,0.7,0.2,1.5,0.3,2.2c0,0.4,0.2,0.5,0.6,0.5c1,0,1.9,0,2.9,0c2,0,3.4,1,3.9,2.7c0.2,0.7,0.2,1.5,0.2,2.2
			c0,0.1-0.2,0.2-0.3,0.3c-0.2,0-0.4,0-0.5,0C24.9,10.3,20.1,10.3,15.3,10.3z M20.3,5C20.2,4.3,20.1,3.6,20,3c0-0.1-0.3-0.2-0.4-0.2
			c-2.9,0-5.8,0-8.6,0c-0.1,0-0.4,0.1-0.4,0.3c-0.1,0.7-0.2,1.3-0.3,2.1C13.6,5,16.9,5,20.3,5z"/>
	</g>
</g>
</svg>
