<?xml version="1.0" encoding="utf-8"?>
<!-- Generator: Adobe Illustrator 24.0.1, SVG Export Plug-In . SVG Version: 6.00 Build 0)  -->
<svg version="1.1" id="Calque_1" xmlns="http://www.w3.org/2000/svg" xmlns:xlink="http://www.w3.org/1999/xlink" x="0px" y="0px"
	 viewBox="0 0 133.6 133.6" style="enable-background:new 0 0 133.6 133.6;" xml:space="preserve">
<style type="text/css">
	.st0{fill:#3E559A;}
	.st1{fill:#7EC9C5;}
</style>
<g>
	<path class="st0" d="M66.8,0c-23,0-43.3,11.7-55.3,29.4h-0.3v0.5C4.1,40.5,0,53.2,0,66.8c0,36.8,30,66.8,66.8,66.8
		s66.8-30,66.8-66.8S103.6,0,66.8,0z M66.8,5c34.1,0,61.8,27.7,61.8,61.8c0,11.8-3.3,22.8-9.1,32.2H16.2V31.4
		C27.3,15.5,45.9,5,66.8,5z M11.2,39.9v53.7C7.2,85.5,5,76.4,5,66.8S7.2,48.1,11.2,39.9z M66.8,128.6c-20.1,0-38-9.7-49.3-24.6h98.6
		C104.8,118.9,86.9,128.6,66.8,128.6z"/>
	<polygon class="st1" points="23.7,71.7 35.2,59.4 46.2,62.8 55.7,52.1 68.2,68.5 83.3,51.6 94,60 108.7,30.5 104.3,28.3 92.2,52.3 
		82.8,44.8 68.5,60.6 56,44.3 44.6,57.1 33.7,53.7 20.1,68.3 	"/>
	<polygon class="st0" points="76.8,83.5 71.7,78.4 60.9,85.1 48.2,70.6 32.2,91 23.2,85.8 20.7,90.1 33.4,97.5 48.4,78.4 60,91.6 
		70.9,84.7 76.7,90.6 95.2,72.2 105.2,78 107.7,73.6 94.3,66 	"/>
</g>
</svg>
