<?xml version="1.0" encoding="utf-8"?>
<!-- Generator: Adobe Illustrator 24.0.1, SVG Export Plug-In . SVG Version: 6.00 Build 0)  -->
<svg version="1.1" id="Calque_1" xmlns="http://www.w3.org/2000/svg" xmlns:xlink="http://www.w3.org/1999/xlink" x="0px" y="0px"
	 viewBox="0 0 277.7 74.1" style="enable-background:new 0 0 277.7 74.1;" xml:space="preserve">
<style type="text/css">
	.st0{fill:#3D5499;}
	.st1{fill:#6ABFBD;}
	.st2{fill:#FFFFFF;}
</style>
<g>
	<g>
		<g>
			<g>
				<g>
					<g>
						<path class="st0" d="M56.8,8.2l9.2,9.2c10.9,10.9,10.9,28.5,0,39.4L56.8,66c-10.9,10.9-28.5,10.9-39.4,0l-9.2-9.2
							c-10.9-10.9-10.9-28.5,0-39.4l9.2-9.2C28.2-2.7,45.9-2.7,56.8,8.2z"/>
					</g>
				</g>
			</g>
		</g>
		<g>
			<path class="st1" d="M57.6,26.7c0-1.4-1-2.6-2.3-2.8c-0.1,0-0.3-0.1-0.4-0.1h-0.1h-3.1h-7.6H30h-7.6h-3.1h-0.1
				c-0.1,0-0.3,0-0.4,0.1c-1.3,0.3-2.3,1.4-2.3,2.8c0,1.4,1,2.6,2.3,2.8c0.1,0,0.3,0.1,0.4,0.1h0.1h3.1H30c2.3,0,4.1,1.8,4.1,4.1V59
				c0,1.6,1.3,2.9,2.9,2.9c0,0,0,0,0,0c0,0,0,0,0,0c1.6,0,2.9-1.3,2.9-2.9V33.7c0-2.3,1.8-4.1,4.1-4.1h7.6h3.1H55
				c0.1,0,0.3,0,0.4-0.1C56.6,29.3,57.6,28.1,57.6,26.7z"/>
			<g>
				<g>
					<path class="st2" d="M48.6,38.6h-3.2c-1.6,0-2.9,1.3-2.9,2.9s1.3,2.9,2.9,2.9h3.2c1.6,0,2.9-1.3,2.9-2.9S50.2,38.6,48.6,38.6z"
						/>
				</g>
				<g>
					<path class="st2" d="M37.1,61.9c1.6,0,2.9-1.3,2.9-2.9V33.7c0-2.3,1.8-4.1,4.1-4.1h11.4c1.2,0,2.1-1.3,2.1-2.9
						c0-1.2-0.6-2.3-1.3-2.7c-0.3-0.1-0.6-0.2-1-0.2H44.1h-0.4c-5.4,0.1-9.5,4.5-9.6,9.8c0,0,0,0,0,0.1v25.2
						C34.2,60.5,35.5,61.8,37.1,61.9z"/>
				</g>
			</g>
		</g>
	</g>
	<g>
		<g>
			<g>
				<g>
					<path class="st0" d="M130,30.7c0,1.6-1.3,3-3,3c-5,0-9.1,4.1-9.1,9.1V55c0,1.6-1.3,3-2.9,3c-1.7,0-3-1.4-3-3V42.9
						c0-8.4,6.8-15.1,15.1-15.1C128.7,27.8,130,29.1,130,30.7z"/>
					<path class="st0" d="M159.6,43.1v11.8c0,1.7-1.3,3-3,3c-1.2,0-2.9-1.3-2.9-3c-2.6,2.2-5.5,3-8.9,3c-8.5,0-15.2-6.3-15.2-14.8
						s6.7-15.2,15.2-15.2C153.3,27.9,159.6,34.6,159.6,43.1z M153.8,43.1c0-5-3.8-9.3-8.9-9.3c-5,0-9.3,4.3-9.3,9.3s4.3,8.9,9.3,8.9
						C149.9,52,153.8,48.1,153.8,43.1z"/>
					<path class="st0" d="M163.2,42.9c0-8.4,6.7-15.1,15-15.1c5.4,0,10.4,2.9,13.1,7.5c0.8,1.4,0.3,3.2-1.1,4.1
						c-1.4,0.8-3.2,0.3-4.1-1.1c-1.6-2.8-4.6-4.6-7.9-4.6c-5,0-9.1,4.1-9.1,9.1c0,5,4.1,9.1,9.1,9.1c3.1,0,6-1.6,7.7-4.2
						c0.9-1.4,2.8-1.7,4.1-0.9c1.4,0.9,1.7,2.8,0.8,4.1c-2.8,4.3-7.5,6.9-12.7,6.9C170,58,163.2,51.2,163.2,42.9z"/>
					<path class="st0" d="M218.8,57.1c-0.5,0.5-1.2,0.7-1.9,0.7c-0.9,0-1.7-0.4-2.3-1.1L203.2,43l-1.9,1.3v10.5c0,1.7-1.4,3-3,3
						c-1.6,0-2.9-1.3-2.9-3V42.7v-25c0-1.6,1.3-2.9,2.9-2.9c1.6,0,3,1.3,3,2.9v19.6l13.6-9c1.3-1,3.1-0.9,4.2,0.4
						c1,1.3,0.8,3.2-0.4,4.2l-10.5,6.9l10.9,13.2C220.2,54.2,220,56.1,218.8,57.1z"/>
					<path class="st1" d="M249.1,55.2v-9.5c0-1.5,1.2-2.8,2.8-2.8c1.5,0,2.8,1.2,2.8,2.8v9.5c0,1.6-1.2,2.8-2.8,2.8
						C250.3,58,249.1,56.7,249.1,55.2z"/>
					<path class="st1" d="M277.7,30.6c0,1.5-1.2,2.8-2.8,2.8h-4v21.8c0,1.5-1.2,2.8-2.8,2.8c-1.5,0-2.8-1.3-2.8-2.8V33.4h-2.2
						c-1.5,0-2.8-1.3-2.8-2.8c0-1.5,1.2-2.8,2.8-2.8h2.2v-5.6c0-1.5,1.2-2.8,2.8-2.8c1.6,0,2.8,1.2,2.8,2.8v5.6h4
						C276.4,27.8,277.7,29.1,277.7,30.6z"/>
				</g>
			</g>
			<path class="st1" d="M249.9,39.3c-0.5-0.5-0.8-1.2-0.8-2c0-0.7,0.3-1.5,0.8-2c0.5-0.5,1.2-0.8,2-0.8c0.7,0,1.5,0.3,2,0.8
				s0.8,1.2,0.8,2c0,0.7-0.3,1.5-0.8,2c-0.5,0.5-1.2,0.8-2,0.8C251.2,40,250.4,39.8,249.9,39.3z"/>
		</g>
		<path class="st0" d="M120.4,17.6c0-1.4-1-2.6-2.3-2.8c-0.1,0-0.3-0.1-0.4-0.1h-0.1h-3.1h-7.6h-14h-7.6h-3.1H82
			c-0.1,0-0.3,0-0.4,0.1c-1.3,0.3-2.3,1.4-2.3,2.8c0,1.4,1,2.6,2.3,2.8c0.1,0,0.3,0.1,0.4,0.1h0.1h3.1h7.6c2.3,0,4.1,1.8,4.1,4.1
			v30.3c0,1.6,1.3,2.9,2.9,2.9c0,0,0,0,0,0c0,0,0,0,0,0c1.6,0,2.9-1.3,2.9-2.9V24.6c0-2.3,1.8-4.1,4.1-4.1h7.6h3.1h0.1
			c0.1,0,0.3,0,0.4-0.1C119.5,20.2,120.4,19,120.4,17.6z"/>
		<g>
			<g>
				<path class="st1" d="M241.2,34.4h-3.2c-1.6,0-2.9,1.3-2.9,2.9s1.3,2.9,2.9,2.9h3.2c1.6,0,2.9-1.3,2.9-2.9S242.8,34.4,241.2,34.4
					z"/>
			</g>
			<g>
				<path class="st1" d="M229.7,57.6c1.6,0,2.9-1.3,2.9-2.9V29.5c0-2.3,1.8-4.1,4.1-4.1h11.4c1.2,0,2.1-1.3,2.1-2.9
					c0-1.2-0.6-2.3-1.3-2.7c-0.3-0.1-0.6-0.2-1-0.2h-11.2h-0.4c-5.4,0.1-9.5,4.5-9.6,9.8c0,0,0,0,0,0.1v25.2
					C226.8,56.3,228.1,57.6,229.7,57.6z"/>
			</g>
		</g>
	</g>
</g>
</svg>
